EncodeSansSemiCondensed-Light.ufo
<glyph name="exclam" format="2">
  <advance width="452.14646464646466"/>
  <unicode hex="0021"/>
  <outline>
    <contour>
      <point x="187.8661616161616" y="347.6363636363637" type="line"/>
      <point x="264.939393939394" y="347.6363636363637" type="line"/>
      <point x="288.58333333333337" y="905.5252525252525" type="line"/>
      <point x="288.58333333333337" y="1480.0" type="line"/>
      <point x="163.5631313131313" y="1480.0" type="line"/>
      <point x="163.5631313131313" y="905.5252525252525" type="line"/>
    </contour>
    <contour>
      <point x="226.07323232323233" y="-11.464646464646467" type="curve" smooth="yes"/>
      <point x="279.2828282828283" y="-11.464646464646467"/>
      <point x="316.63383838383845" y="23.00757575757577"/>
      <point x="316.63383838383845" y="76.02020202020205" type="curve" smooth="yes"/>
      <point x="316.63383838383845" y="129.03282828282835"/>
      <point x="279.8686868686869" y="165.21212121212127"/>
      <point x="226.07323232323233" y="165.21212121212127" type="curve" smooth="yes"/>
      <point x="172.27777777777777" y="165.21212121212127"/>
      <point x="135.51262626262624" y="129.61868686868692"/>
      <point x="135.51262626262624" y="76.02020202020205" type="curve" smooth="yes"/>
      <point x="135.51262626262624" y="22.421717171717184"/>
      <point x="172.86363636363637" y="-11.464646464646467"/>
    </contour>
  </outline>
</glyph>
<glyph name="quotedbl" format="2">
  <advance width="677.7474747474748"/>
  <unicode hex="0022"/>
  <outline>
    <contour>
      <point x="155.6161616161616" y="933.8838383838383" type="line"/>
      <point x="226.3737373737374" y="933.8838383838383" type="line"/>
      <point x="254.5025252525253" y="1616.0" type="line"/>
      <point x="127.48737373737372" y="1616.0" type="line"/>
    </contour>
    <contour>
      <point x="451.3737373737374" y="933.8838383838383" type="line"/>
      <point x="522.1313131313132" y="933.8838383838383" type="line"/>
      <point x="550.260101010101" y="1616.0" type="line"/>
      <point x="423.24494949494954" y="1616.0" type="line"/>
    </contour>
  </outline>
</glyph>
<glyph name="numbersign" format="2">
  <advance width="1080.7575757575758"/>
  <unicode hex="0023"/>
  <outline>
    <contour>
      <point x="593.8939393939394" y="0.0" type="line"/>
      <point x="694.8257575757576" y="0.0" type="line"/>
      <point x="833.8257575757576" y="1480.0" type="line"/>
      <point x="732.8939393939394" y="1480.0" type="line"/>
    </contour>
    <contour>
      <point x="95.0" y="475.10606060606057" type="line"/>
      <point x="985.7575757575758" y="475.10606060606057" type="line"/>
      <point x="985.7575757575758" y="575.5252525252525" type="line"/>
      <point x="95.0" y="575.5252525252525" type="line"/>
    </contour>
    <contour>
      <point x="246.93181818181816" y="0.0" type="line"/>
      <point x="347.8636363636364" y="0.0" type="line"/>
      <point x="486.8636363636364" y="1480.0" type="line"/>
      <point x="385.9318181818182" y="1480.0" type="line"/>
    </contour>
    <contour>
      <point x="95.0" y="904.4747474747475" type="line"/>
      <point x="985.7575757575758" y="904.4747474747475" type="line"/>
      <point x="985.7575757575758" y="1004.8939393939394" type="line"/>
      <point x="95.0" y="1004.8939393939394" type="line"/>
    </contour>
  </outline>
</glyph>
<glyph name="dollar" format="2">
  <advance width="966.4141414141415"/>
  <unicode hex="0024"/>
  <outline>
    <contour>
      <point x="412.27777777777777" y="-18.292929292929294" type="curve" smooth="yes"/>
      <point x="722.0707070707072" y="-18.292929292929294"/>
      <point x="896.5782828282829" y="128.87121212121212"/>
      <point x="896.5782828282829" y="389.79040404040404" type="curve" smooth="yes"/>
      <point x="896.5782828282829" y="601.0505050505051"/>
      <point x="777.1363636363637" y="722.6010101010102"/>
      <point x="534.6464646464647" y="793.7474747474748" type="curve" smooth="yes"/>
      <point x="467.54040404040404" y="813.6767676767677" type="line" smooth="yes"/>
      <point x="266.84595959595964" y="874.5631313131313"/>
      <point x="191.63383838383845" y="950.9949494949495"/>
      <point x="191.63383838383845" y="1109.6742424242425" type="curve" smooth="yes"/>
      <point x="191.63383838383845" y="1289.7424242424242"/>
      <point x="305.7348484848485" y="1392.6742424242423"/>
      <point x="554.3535353535353" y="1392.6742424242423" type="curve" smooth="yes"/>
      <point x="648.2070707070708" y="1392.6742424242423"/>
      <point x="742.6616161616162" y="1380.3813131313132"/>
      <point x="836.6237373737374" y="1351.1262626262626" type="curve"/>
      <point x="836.6237373737374" y="1458.45202020202" type="line"/>
      <point x="755.659090909091" y="1484.5732323232323"/>
      <point x="647.4015151515152" y="1498.2929292929293"/>
      <point x="552.7146464646465" y="1498.2929292929293" type="curve" smooth="yes"/>
      <point x="233.7449494949495" y="1498.2929292929293"/>
      <point x="69.83585858585857" y="1348.239898989899"/>
      <point x="69.83585858585857" y="1102.3787878787878" type="curve" smooth="yes"/>
      <point x="69.83585858585857" y="893.8383838383838"/>
      <point x="188.86363636363637" y="772.9090909090909"/>
      <point x="415.5833333333333" y="705.4217171717171" type="curve" smooth="yes"/>
      <point x="482.68939393939394" y="685.4924242424242" type="line" smooth="yes"/>
      <point x="692.3611111111111" y="622.0934343434343"/>
      <point x="774.780303030303" y="546.8560606060606"/>
      <point x="774.780303030303" y="381.969696969697" type="curve" smooth="yes"/>
      <point x="774.780303030303" y="187.73232323232327"/>
      <point x="655.070707070707" y="87.32575757575762"/>
      <point x="415.0808080808081" y="87.32575757575762" type="curve" smooth="yes"/>
      <point x="315.35858585858585" y="87.32575757575762"/>
      <point x="203.74242424242425" y="104.9974747474748"/>
      <point x="89.22979797979798" y="143.41161616161622" type="curve"/>
      <point x="89.22979797979798" y="36.08585858585859" type="line"/>
      <point x="193.78030303030303" y="-0.6338383838383834"/>
      <point x="313.4318181818182" y="-18.292929292929294"/>
    </contour>
    <contour>
      <point x="428.99242424242425" y="-240.0" type="line"/>
      <point x="539.2752525252525" y="-240.0" type="line"/>
      <point x="539.2752525252525" y="25.9848484848485" type="line"/>
      <point x="428.99242424242425" y="13.1818181818182" type="line"/>
    </contour>
    <contour>
      <point x="428.99242424242425" y="1471.2121212121212" type="line"/>
      <point x="539.2752525252525" y="1471.2121212121212" type="line"/>
      <point x="539.2752525252525" y="1720.0" type="line"/>
      <point x="428.99242424242425" y="1720.0" type="line"/>
    </contour>
  </outline>
</glyph>
<glyph name="percent" format="2">
  <advance width="1701.9520202020203"/>
  <unicode hex="0025"/>
  <note>
450
</note>
  <outline>
    <contour>
      <point x="501.82828282828285" y="0.0" type="line"/>
      <point x="608.3838383838385" y="0.0" type="line"/>
      <point x="1200.1237373737374" y="1480.0" type="line"/>
      <point x="1093.5681818181818" y="1480.0" type="line"/>
    </contour>
    <contour>
      <point x="410.58333333333337" y="576.2424242424242" type="curve" smooth="yes"/>
      <point x="594.2272727272727" y="576.2424242424242"/>
      <point x="721.9040404040404" y="700.6616161616162"/>
      <point x="721.9040404040404" y="1037.340909090909" type="curve" smooth="yes"/>
      <point x="721.9040404040404" y="1374.020202020202"/>
      <point x="596.3611111111111" y="1498.2929292929293"/>
      <point x="410.58333333333337" y="1498.2929292929293" type="curve" smooth="yes"/>
      <point x="224.80555555555554" y="1498.2929292929293"/>
      <point x="99.26262626262626" y="1374.020202020202"/>
      <point x="99.26262626262626" y="1037.340909090909" type="curve" smooth="yes"/>
      <point x="99.26262626262626" y="700.6616161616162"/>
      <point x="226.93939393939394" y="576.2424242424242"/>
    </contour>
    <contour>
      <point x="410.58333333333337" y="666.3510101010102" type="curve" smooth="yes"/>
      <point x="286.6414141414142" y="666.3510101010102"/>
      <point x="202.6717171717172" y="755.3939393939394"/>
      <point x="202.6717171717172" y="1039.04797979798" type="curve" smooth="yes"/>
      <point x="202.6717171717172" y="1320.141414141414"/>
      <point x="286.6414141414142" y="1408.1843434343434"/>
      <point x="410.58333333333337" y="1408.1843434343434" type="curve" smooth="yes"/>
      <point x="534.0984848484849" y="1408.1843434343434"/>
      <point x="618.4949494949495" y="1320.141414141414"/>
      <point x="618.4949494949495" y="1035.6338383838383" type="curve" smooth="yes"/>
      <point x="618.4949494949495" y="753.6868686868687"/>
      <point x="534.0984848484849" y="666.3510101010102"/>
    </contour>
    <contour>
      <point x="1291.3686868686868" y="-18.0" type="curve" smooth="yes"/>
      <point x="1476.2929292929293" y="-18.0"/>
      <point x="1602.689393939394" y="106.41919191919193"/>
      <point x="1602.689393939394" y="443.0984848484849" type="curve" smooth="yes"/>
      <point x="1602.689393939394" y="779.7777777777778"/>
      <point x="1475.8661616161617" y="904.0505050505051"/>
      <point x="1291.3686868686868" y="904.0505050505051" type="curve" smooth="yes"/>
      <point x="1106.8712121212122" y="904.0505050505051"/>
      <point x="980.0479797979799" y="779.7777777777778"/>
      <point x="980.0479797979799" y="443.0984848484849" type="curve" smooth="yes"/>
      <point x="980.0479797979799" y="106.41919191919193"/>
      <point x="1106.4444444444446" y="-18.0"/>
    </contour>
    <contour>
      <point x="1291.3686868686868" y="72.1085858585859" type="curve" smooth="yes"/>
      <point x="1167.8535353535353" y="72.1085858585859"/>
      <point x="1083.457070707071" y="161.15151515151518"/>
      <point x="1083.457070707071" y="444.80555555555554" type="curve" smooth="yes"/>
      <point x="1083.457070707071" y="725.8989898989898"/>
      <point x="1167.8535353535353" y="813.9419191919192"/>
      <point x="1291.3686868686868" y="813.9419191919192" type="curve" smooth="yes"/>
      <point x="1414.8838383838383" y="813.9419191919192"/>
      <point x="1499.280303030303" y="725.8989898989898"/>
      <point x="1499.280303030303" y="441.39141414141415" type="curve" smooth="yes"/>
      <point x="1499.280303030303" y="159.44444444444446"/>
      <point x="1414.8838383838383" y="72.1085858585859"/>
    </contour>
  </outline>
</glyph>
<glyph name="ampersand" format="2">
  <advance width="1377.1767676767677"/>
  <unicode hex="0026"/>
  <outline>
    <contour>
      <point x="1310.828282828283" y="-20.0" type="line"/>
      <point x="1377.1767676767677" y="68.56818181818187" type="line"/>
      <point x="651.4949494949495" y="680.479797979798" type="line" smooth="yes"/>
      <point x="456.3914141414142" y="849.0959595959596"/>
      <point x="406.33333333333337" y="945.8560606060606"/>
      <point x="406.33333333333337" y="1086.1489898989898" type="curve" smooth="yes"/>
      <point x="406.33333333333337" y="1285.8156565656566"/>
      <point x="517.7045454545455" y="1392.6742424242423"/>
      <point x="766.4671717171717" y="1392.6742424242423" type="curve" smooth="yes"/>
      <point x="836.8333333333334" y="1392.6742424242423"/>
      <point x="904.4949494949495" y="1385.5883838383838"/>
      <point x="978.4570707070708" y="1365.8333333333333" type="curve"/>
      <point x="978.4570707070708" y="1473.159090909091" type="line"/>
      <point x="914.1136363636364" y="1488.7929292929293"/>
      <point x="841.6363636363636" y="1498.2929292929293"/>
      <point x="764.1085858585859" y="1498.2929292929293" type="curve" smooth="yes"/>
      <point x="443.95707070707067" y="1498.2929292929293"/>
      <point x="284.5353535353535" y="1349.580808080808"/>
      <point x="284.5353535353535" y="1085.4545454545455" type="curve" smooth="yes"/>
      <point x="284.5353535353535" y="912.75"/>
      <point x="355.0833333333333" y="787.0530303030303"/>
      <point x="585.1464646464647" y="591.9116161616162" type="curve" smooth="yes"/>
    </contour>
    <contour>
      <point x="629.9191919191919" y="-18.0" type="curve" smooth="yes"/>
      <point x="955.2020202020202" y="-18.0"/>
      <point x="1154.2727272727273" y="160.36111111111111"/>
      <point x="1154.2727272727273" y="510.22979797979804" type="curve" smooth="yes"/>
      <point x="1154.2727272727273" y="595.459595959596"/>
      <point x="1142.919191919192" y="692.8484848484849"/>
      <point x="1117.5909090909092" y="781.3838383838385" type="curve"/>
      <point x="1010.2424242424242" y="781.3838383838385" type="line"/>
      <point x="1036.8510101010102" y="692.8484848484849"/>
      <point x="1050.4116161616162" y="594.3131313131313"/>
      <point x="1050.4116161616162" y="508.7904040404041" type="curve" smooth="yes"/>
      <point x="1050.4116161616162" y="206.96212121212125"/>
      <point x="892.6212121212121" y="81.2474747474748"/>
      <point x="638.729797979798" y="81.2474747474748" type="curve" smooth="yes"/>
      <point x="386.83080808080814" y="81.2474747474748"/>
      <point x="258.58080808080814" y="213.1035353535354"/>
      <point x="258.58080808080814" y="415.5909090909091" type="curve" smooth="yes"/>
      <point x="258.58080808080814" y="563.1540404040404"/>
      <point x="325.8560606060606" y="673.4873737373737"/>
      <point x="458.989898989899" y="743.3863636363636" type="curve"/>
      <point x="397.4318181818182" y="814.1666666666666" type="line"/>
      <point x="232.99494949494948" y="734.4520202020202"/>
      <point x="137.2222222222222" y="590.9040404040404"/>
      <point x="137.2222222222222" y="403.43939393939394" type="curve" smooth="yes"/>
      <point x="137.2222222222222" y="150.56060606060606"/>
      <point x="312.46969696969694" y="-18.0"/>
    </contour>
  </outline>
</glyph>
<glyph name="parenleft" format="2">
  <advance width="604.7474747474748"/>
  <unicode hex="0028"/>
  <outline>
    <contour>
      <point x="439.49242424242425" y="-440.0" type="curve"/>
      <point x="563.4974747474748" y="-440.0" type="line"/>
      <point x="341.2070707070708" y="-131.12373737373738"/>
      <point x="243.939393939394" y="214.11868686868686"/>
      <point x="243.939393939394" y="588.0" type="curve" smooth="yes"/>
      <point x="243.939393939394" y="961.8813131313132"/>
      <point x="341.2070707070708" y="1307.1237373737374"/>
      <point x="563.4974747474748" y="1616.0" type="curve"/>
      <point x="439.49242424242425" y="1616.0" type="line"/>
      <point x="218.01767676767676" y="1316.3207070707072"/>
      <point x="121.18939393939394" y="968.0277777777778"/>
      <point x="121.18939393939394" y="588.0" type="curve" smooth="yes"/>
      <point x="121.18939393939394" y="207.97222222222223"/>
      <point x="218.01767676767676" y="-140.32070707070707"/>
    </contour>
  </outline>
</glyph>
<glyph name="parenright" format="2">
  <advance width="604.7474747474748"/>
  <unicode hex="0029"/>
  <outline>
    <contour>
      <point x="41.24999999999997" y="-440.0" type="curve"/>
      <point x="165.25505050505055" y="-440.0" type="line"/>
      <point x="386.72979797979804" y="-140.32070707070707"/>
      <point x="483.55808080808083" y="207.97222222222223"/>
      <point x="483.55808080808083" y="588.0" type="curve" smooth="yes"/>
      <point x="483.55808080808083" y="968.0277777777778"/>
      <point x="386.72979797979804" y="1316.3207070707072"/>
      <point x="165.25505050505055" y="1616.0" type="curve"/>
      <point x="41.24999999999997" y="1616.0" type="line"/>
      <point x="263.540404040404" y="1307.1237373737374"/>
      <point x="360.8080808080808" y="961.8813131313132"/>
      <point x="360.8080808080808" y="588.0" type="curve" smooth="yes"/>
      <point x="360.8080808080808" y="214.11868686868686"/>
      <point x="263.540404040404" y="-131.12373737373738"/>
    </contour>
  </outline>
</glyph>
<glyph name="asterisk" format="2">
  <advance width="875.8282828282829"/>
  <unicode hex="002A"/>
  <outline>
    <contour>
      <point x="481.92929292929296" y="1196.280303030303" type="line"/>
      <point x="678.9772727272727" y="1239.7398989898988" type="line"/>
      <point x="845.8282828282829" y="1293.7146464646464" type="line"/>
      <point x="816.5277777777778" y="1382.4949494949494" type="line"/>
      <point x="651.3838383838385" y="1328.300505050505" type="line"/>
      <point x="464.67929292929296" y="1246.7853535353536" type="line"/>
      <point x="484.9267676767677" y="1448.9545454545455" type="line"/>
      <point x="484.9267676767677" y="1616.0" type="line"/>
      <point x="390.9015151515151" y="1616.0" type="line"/>
      <point x="390.9015151515151" y="1448.9545454545455" type="line"/>
      <point x="411.1489898989899" y="1246.7853535353536" type="line"/>
      <point x="224.44444444444446" y="1328.300505050505" type="line"/>
      <point x="59.300505050505066" y="1382.4949494949494" type="line"/>
      <point x="30.0" y="1293.7146464646464" type="line"/>
      <point x="196.8510101010101" y="1239.7398989898988" type="line"/>
      <point x="393.8989898989899" y="1196.280303030303" type="line"/>
      <point x="259.7020202020202" y="1044.6742424242425" type="line"/>
      <point x="158.91161616161617" y="907.469696969697" type="line"/>
      <point x="235.22474747474752" y="851.820707070707" type="line"/>
      <point x="336.01515151515156" y="988.9520202020202" type="line"/>
      <point x="437.91414141414145" y="1165.0025252525252" type="line"/>
      <point x="539.8131313131313" y="988.9520202020202" type="line"/>
      <point x="640.6035353535353" y="851.820707070707" type="line"/>
      <point x="716.9166666666667" y="907.469696969697" type="line"/>
      <point x="616.1262626262627" y="1044.6742424242425" type="line"/>
    </contour>
  </outline>
</glyph>
<glyph name="plus" format="2">
  <advance width="1044.419191919192"/>
  <unicode hex="002B"/>
  <outline>
    <contour>
      <point x="469.5353535353535" y="367.45454545454544" type="line"/>
      <point x="574.8838383838385" y="367.45454545454544" type="line"/>
      <point x="574.8838383838385" y="709.9848484848485" type="line"/>
      <point x="898.9520202020202" y="709.9848484848485" type="line"/>
      <point x="898.9520202020202" y="810.0151515151515" type="line"/>
      <point x="574.8838383838385" y="810.0151515151515" type="line"/>
      <point x="574.8838383838385" y="1152.5454545454545" type="line"/>
      <point x="469.5353535353535" y="1152.5454545454545" type="line"/>
      <point x="469.5353535353535" y="810.0151515151515" type="line"/>
      <point x="145.4671717171717" y="810.0151515151515" type="line"/>
      <point x="145.4671717171717" y="709.9848484848485" type="line"/>
      <point x="469.5353535353535" y="709.9848484848485" type="line"/>
    </contour>
  </outline>
</glyph>
<glyph name="comma" format="2">
  <advance width="412.14646464646466"/>
  <unicode hex="002C"/>
  <outline>
    <contour>
      <point x="139.66919191919192" y="-308.7878787878788" type="curve"/>
      <point x="211.05808080808083" y="-308.7878787878788" type="line"/>
      <point x="260.04292929292933" y="-207.75757575757575"/>
      <point x="296.4873737373738" y="-82.04040404040403"/>
      <point x="296.4873737373738" y="49.648989898989925" type="curve" smooth="yes"/>
      <point x="296.4873737373738" y="131.76515151515156"/>
      <point x="260.96717171717177" y="167.99494949494957"/>
      <point x="203.48737373737376" y="167.99494949494957" type="curve" smooth="yes"/>
      <point x="150.57070707070707" y="167.99494949494957"/>
      <point x="115.51262626262624" y="132.76767676767682"/>
      <point x="115.51262626262624" y="79.1186868686869" type="curve" smooth="yes"/>
      <point x="115.51262626262624" y="24.421717171717184"/>
      <point x="153.3030303030303" y="-11.464646464646467"/>
      <point x="206.07323232323233" y="-11.464646464646467" type="curve" smooth="yes"/>
      <point x="223.6388888888889" y="-11.464646464646467" type="line"/>
      <point x="206.53030303030303" y="17.858585858585865" type="line"/>
      <point x="206.53030303030303" y="-88.82828282828282"/>
      <point x="181.38131313131314" y="-188.92929292929293"/>
    </contour>
  </outline>
</glyph>
<glyph name="hyphen" format="2">
  <advance width="754.8686868686868"/>
  <unicode hex="002D"/>
  <outline>
    <contour>
      <point x="145.4671717171717" y="510.20454545454544" type="line"/>
      <point x="609.4015151515152" y="510.20454545454544" type="line"/>
      <point x="609.4015151515152" y="612.7247474747475" type="line"/>
      <point x="145.4671717171717" y="612.7247474747475" type="line"/>
    </contour>
  </outline>
</glyph>
<glyph name="period" format="2">
  <advance width="412.14646464646466"/>
  <unicode hex="002E"/>
  <outline>
    <contour>
      <point x="206.07323232323233" y="-11.464646464646467" type="curve" smooth="yes"/>
      <point x="259.2828282828283" y="-11.464646464646467"/>
      <point x="296.63383838383845" y="23.300505050505063"/>
      <point x="296.63383838383845" y="77.4116161616162" type="curve" smooth="yes"/>
      <point x="296.63383838383845" y="131.52272727272734"/>
      <point x="259.8686868686869" y="167.99494949494957"/>
      <point x="206.07323232323233" y="167.99494949494957" type="curve" smooth="yes"/>
      <point x="152.27777777777777" y="167.99494949494957"/>
      <point x="115.51262626262624" y="132.1085858585859"/>
      <point x="115.51262626262624" y="77.4116161616162" type="curve" smooth="yes"/>
      <point x="115.51262626262624" y="22.714646464646478"/>
      <point x="152.86363636363637" y="-11.464646464646467"/>
    </contour>
  </outline>
</glyph>
<glyph name="slash" format="2">
  <advance width="519.9343434343435"/>
  <unicode hex="002F"/>
  <outline>
    <contour>
      <point x="0.0" y="-240.0" type="line"/>
      <point x="117.02777777777783" y="-240.0" type="line"/>
      <point x="519.9343434343435" y="1616.0" type="line"/>
      <point x="402.90656565656565" y="1616.0" type="line"/>
    </contour>
  </outline>
</glyph>
<glyph name="zero" format="2">
  <advance width="1145.04797979798"/>
  <unicode hex="0030"/>
  <note>
600
</note>
  <outline>
    <contour>
      <point x="572.4873737373738" y="-18.292929292929294" type="curve" smooth="yes"/>
      <point x="855.1464646464647" y="-18.292929292929294"/>
      <point x="1033.858585858586" y="182.00505050505052"/>
      <point x="1033.858585858586" y="740.0" type="curve" smooth="yes"/>
      <point x="1033.858585858586" y="1297.9949494949494"/>
      <point x="857.7070707070708" y="1498.2929292929293"/>
      <point x="572.4873737373738" y="1498.2929292929293" type="curve" smooth="yes"/>
      <point x="287.2676767676768" y="1498.2929292929293"/>
      <point x="111.18939393939394" y="1297.9949494949494"/>
      <point x="111.18939393939394" y="740.0" type="curve" smooth="yes"/>
      <point x="111.18939393939394" y="182.00505050505052"/>
      <point x="289.82828282828285" y="-18.292929292929294"/>
    </contour>
    <contour>
      <point x="572.5606060606061" y="87.47222222222227" type="curve" smooth="yes"/>
      <point x="365.3535353535354" y="87.47222222222227"/>
      <point x="231.96212121212127" y="236.90404040404044"/>
      <point x="231.96212121212127" y="743.4141414141415" type="curve" smooth="yes"/>
      <point x="231.96212121212127" y="1243.0959595959596"/>
      <point x="365.50000000000006" y="1392.5277777777778"/>
      <point x="572.5606060606061" y="1392.5277777777778" type="curve" smooth="yes"/>
      <point x="779.5479797979798" y="1392.5277777777778"/>
      <point x="913.0858585858585" y="1243.0959595959596"/>
      <point x="913.0858585858585" y="736.5858585858585" type="curve" smooth="yes"/>
      <point x="913.0858585858585" y="236.90404040404044"/>
      <point x="779.5479797979798" y="87.47222222222227"/>
    </contour>
  </outline>
</glyph>
<glyph name="one" format="2">
  <advance width="641.5732323232323"/>
  <unicode hex="0031"/>
  <outline>
    <contour>
      <point x="347.54040404040404" y="0.0" type="line"/>
      <point x="466.0707070707071" y="0.0" type="line"/>
      <point x="466.0707070707071" y="1484.2929292929293" type="line"/>
      <point x="393.8484848484849" y="1484.2929292929293" type="line"/>
      <point x="21.06060606060606" y="1209.719696969697" type="line"/>
      <point x="21.06060606060606" y="1089.4747474747473" type="line"/>
      <point x="393.8484848484849" y="1363.1944444444443" type="line"/>
      <point x="347.54040404040404" y="1375.4444444444443" type="line"/>
    </contour>
  </outline>
</glyph>
<glyph name="two" format="2">
  <advance width="897.3888888888889"/>
  <unicode hex="0032"/>
  <outline>
    <contour>
      <point x="56.0580808080808" y="0.0" type="line"/>
      <point x="835.7575757575758" y="0.0" type="line"/>
      <point x="835.7575757575758" y="105.66919191919197" type="line"/>
      <point x="172.75252525252532" y="105.66919191919197" type="line"/>
      <point x="188.50757575757584" y="70.4646464646465" type="line"/>
      <point x="554.6035353535354" y="603.9848484848485" type="line" smooth="yes"/>
      <point x="709.1262626262627" y="827.2222222222222"/>
      <point x="761.0277777777778" y="964.5530303030303"/>
      <point x="762.3080808080808" y="1118.489898989899" type="curve" smooth="yes"/>
      <point x="764.868686868687" y="1385.7777777777778"/>
      <point x="605.3131313131313" y="1498.2929292929293"/>
      <point x="340.6388888888889" y="1498.2929292929293" type="curve" smooth="yes"/>
      <point x="233.52777777777777" y="1498.2929292929293"/>
      <point x="116.87626262626262" y="1477.5"/>
      <point x="39.118686868686865" y="1443.2323232323233" type="curve"/>
      <point x="39.118686868686865" y="1335.9065656565656" type="line"/>
      <point x="130.80050505050505" y="1373.9545454545455"/>
      <point x="226.65656565656565" y="1392.6742424242423"/>
      <point x="332.510101010101" y="1392.6742424242423" type="curve" smooth="yes"/>
      <point x="534.7853535353536" y="1392.6742424242423"/>
      <point x="642.8762626262626" y="1315.6287878787878"/>
      <point x="642.8762626262626" y="1111.9242424242425" type="curve" smooth="yes"/>
      <point x="642.8762626262626" y="980.2727272727273"/>
      <point x="591.1338383838383" y="852.2045454545455"/>
      <point x="456.1010101010101" y="655.5050505050505" type="curve" smooth="yes"/>
      <point x="56.0580808080808" y="67.16919191919196" type="line"/>
    </contour>
  </outline>
</glyph>
<glyph name="three" format="2">
  <advance width="935.030303030303"/>
  <unicode hex="0033"/>
  <outline>
    <contour>
      <point x="377.29545454545456" y="-18.292929292929294" type="curve" smooth="yes"/>
      <point x="688.1994949494949" y="-18.292929292929294"/>
      <point x="862.790404040404" y="130.33080808080808"/>
      <point x="862.790404040404" y="391.74747474747477" type="curve" smooth="yes"/>
      <point x="862.790404040404" y="607.7323232323232"/>
      <point x="734.0252525252525" y="745.5959595959596"/>
      <point x="490.99494949494954" y="779.0959595959596" type="curve"/>
      <point x="489.71464646464653" y="756.8535353535353" type="line"/>
      <point x="695.8914141414142" y="799.3282828282828"/>
      <point x="815.6565656565657" y="939.0580808080808"/>
      <point x="815.6565656565657" y="1130.4949494949494" type="curve" smooth="yes"/>
      <point x="815.6565656565657" y="1365.5959595959596"/>
      <point x="665.0050505050506" y="1498.2929292929293"/>
      <point x="385.6136363636364" y="1498.2929292929293" type="curve" smooth="yes"/>
      <point x="278.3308080808081" y="1498.2929292929293"/>
      <point x="162.3989898989899" y="1478.5"/>
      <point x="80.49494949494948" y="1444.5126262626263" type="curve"/>
      <point x="80.49494949494948" y="1340.9949494949494" type="line"/>
      <point x="175.6161616161616" y="1378.5429292929293"/>
      <point x="273.07070707070704" y="1396.3358585858584"/>
      <point x="378.70454545454544" y="1396.3358585858584" type="curve" smooth="yes"/>
      <point x="589.8308080808081" y="1396.3358585858584"/>
      <point x="698.2752525252525" y="1304.3181818181818"/>
      <point x="698.2752525252525" y="1124.9772727272727" type="curve" smooth="yes"/>
      <point x="698.2752525252525" y="928.9444444444445"/>
      <point x="558.5555555555555" y="811.5757575757576"/>
      <point x="290.7651515151515" y="811.5757575757576" type="curve" smooth="yes"/>
      <point x="224.2222222222222" y="811.5757575757576" type="line"/>
      <point x="224.2222222222222" y="708.6666666666666" type="line"/>
      <point x="365.5984848484849" y="708.6666666666666" type="line" smooth="yes"/>
      <point x="627.429292929293" y="708.6666666666666"/>
      <point x="745.9217171717171" y="589.3838383838383"/>
      <point x="745.9217171717171" y="394.9949494949495" type="curve" smooth="yes"/>
      <point x="745.9217171717171" y="189.29040404040407"/>
      <point x="613.4797979797979" y="83.66414141414145"/>
      <point x="374.7449494949495" y="83.66414141414145" type="curve" smooth="yes"/>
      <point x="271.8661616161616" y="83.66414141414145"/>
      <point x="156.33838383838383" y="102.37121212121217"/>
      <point x="49.838383838383834" y="140.0404040404041" type="curve"/>
      <point x="49.838383838383834" y="36.52272727272727" type="line"/>
      <point x="150.53535353535352" y="0.2676767676767666"/>
      <point x="262.5858585858586" y="-18.292929292929294"/>
    </contour>
  </outline>
</glyph>
<glyph name="four" format="2">
  <advance width="1089.4141414141413"/>
  <unicode hex="0034"/>
  <outline>
    <contour>
      <point x="48.48484848484848" y="368.5479797979798" type="line"/>
      <point x="1048.270202020202" y="368.5479797979798" type="line"/>
      <point x="1048.270202020202" y="469.3106060606061" type="line"/>
      <point x="149.91161616161622" y="469.3106060606061" type="line"/>
      <point x="169.74494949494954" y="434.3030303030303" type="line"/>
      <point x="719.4368686868687" y="1480.0" type="line"/>
      <point x="598.1540404040404" y="1480.0" type="line"/>
      <point x="48.48484848484848" y="436.01010101010104" type="line"/>
    </contour>
    <contour>
      <point x="732.5555555555555" y="0.0" type="line"/>
      <point x="844.2020202020202" y="0.0" type="line"/>
      <point x="844.2020202020202" y="980.0" type="line"/>
      <point x="750.3636363636364" y="980.0" type="line"/>
      <point x="732.5555555555555" y="469.3106060606061" type="line"/>
    </contour>
  </outline>
</glyph>
<glyph name="five" format="2">
  <advance width="941.0681818181819"/>
  <unicode hex="0035"/>
  <outline>
    <contour>
      <point x="404.08838383838383" y="-18.292929292929294" type="curve" smooth="yes"/>
      <point x="718.0151515151515" y="-18.292929292929294"/>
      <point x="887.6439393939395" y="130.75757575757575"/>
      <point x="887.7171717171717" y="409.55555555555554" type="curve" smooth="yes"/>
      <point x="887.790404040404" y="680.290404040404"/>
      <point x="716.2651515151515" y="817.1212121212121"/>
      <point x="340.65909090909093" y="839.8535353535353" type="curve" smooth="yes"/>
      <point x="168.38131313131316" y="850.1338383838385" type="line"/>
      <point x="244.03535353535358" y="789.7323232323232" type="line"/>
      <point x="286.9974747474748" y="1427.060606060606" type="line"/>
      <point x="232.04040404040407" y="1377.699494949495" type="line"/>
      <point x="826.6691919191919" y="1377.699494949495" type="line"/>
      <point x="826.6691919191919" y="1480.0" type="line"/>
      <point x="175.6540404040404" y="1480.0" type="line"/>
      <point x="127.93434343434343" y="748.9823232323232" type="line"/>
      <point x="300.2121212121212" y="738.7020202020202" type="line" smooth="yes"/>
      <point x="641.3333333333334" y="718.5555555555555"/>
      <point x="770.7752525252525" y="619.3308080808081"/>
      <point x="770.7752525252525" y="406.3712121212121" type="curve" smooth="yes"/>
      <point x="770.7752525252525" y="192.5707070707071"/>
      <point x="647.2954545454545" y="83.95707070707076"/>
      <point x="402.8181818181818" y="83.95707070707076" type="curve" smooth="yes"/>
      <point x="295.2449494949495" y="83.95707070707076"/>
      <point x="179.7171717171717" y="104.16414141414145"/>
      <point x="75.35101010101009" y="140.7727272727273" type="curve"/>
      <point x="75.35101010101009" y="37.255050505050505" type="line"/>
      <point x="173.06060606060606" y="1.06060606060606"/>
      <point x="287.67171717171715" y="-18.292929292929294"/>
    </contour>
  </outline>
</glyph>
<glyph name="six" format="2">
  <advance width="1054.2828282828284"/>
  <unicode hex="0036"/>
  <outline>
    <contour>
      <point x="591.5959595959596" y="-18.292929292929294" type="curve" smooth="yes"/>
      <point x="822.9873737373738" y="-18.292929292929294"/>
      <point x="999.4065656565657" y="124.16414141414143"/>
      <point x="999.4065656565657" y="414.7020202020202" type="curve" smooth="yes"/>
      <point x="999.4065656565657" y="704.3156565656566"/>
      <point x="817.719696969697" y="840.5959595959596"/>
      <point x="575.8282828282829" y="840.5959595959596" type="curve" smooth="yes"/>
      <point x="428.69696969696975" y="840.5959595959596"/>
      <point x="287.1868686868687" y="783.719696969697"/>
      <point x="211.65151515151518" y="689.209595959596" type="curve"/>
      <point x="211.65151515151518" y="573.0025252525253" type="line"/>
      <point x="291.2954545454546" y="693.6060606060606"/>
      <point x="436.3358585858586" y="740.6161616161615"/>
      <point x="560.0378787878788" y="740.6161616161615" type="curve" smooth="yes"/>
      <point x="749.6717171717172" y="740.6161616161615"/>
      <point x="885.2474747474747" y="643.9520202020202"/>
      <point x="885.2474747474747" y="409.81060606060606" type="curve" smooth="yes"/>
      <point x="885.2474747474747" y="177.30303030303034"/>
      <point x="755.5126262626263" y="82.12626262626267"/>
      <point x="593.3156565656566" y="82.12626262626267" type="curve" smooth="yes"/>
      <point x="387.4873737373738" y="82.12626262626267"/>
      <point x="242.5833333333334" y="213.9217171717172"/>
      <point x="242.5833333333334" y="682.1868686868687" type="curve" smooth="yes"/>
      <point x="242.5833333333334" y="718.2070707070707" type="line" smooth="yes"/>
      <point x="242.5833333333334" y="1209.9419191919192"/>
      <point x="400.6868686868687" y="1395.1641414141413"/>
      <point x="695.4722222222223" y="1395.1641414141413" type="curve" smooth="yes"/>
      <point x="778.9141414141415" y="1395.1641414141413"/>
      <point x="863.6338383838385" y="1381.810606060606"/>
      <point x="935.1363636363636" y="1352.1767676767677" type="curve"/>
      <point x="935.1363636363636" y="1456.8661616161617" type="line"/>
      <point x="865.159090909091" y="1486.439393939394"/>
      <point x="778.1565656565657" y="1498.2929292929293"/>
      <point x="695.0429292929293" y="1498.2929292929293" type="curve" smooth="yes"/>
      <point x="329.27272727272725" y="1498.2929292929293"/>
      <point x="123.9570707070707" y="1265.8989898989898"/>
      <point x="123.9570707070707" y="691.8787878787879" type="curve" smooth="yes"/>
      <point x="123.9570707070707" y="158.12626262626264"/>
      <point x="318.780303030303" y="-18.292929292929294"/>
    </contour>
  </outline>
</glyph>
<glyph name="seven" format="2">
  <advance width="862.459595959596"/>
  <unicode hex="0037"/>
  <outline>
    <contour>
      <point x="160.8712121212121" y="0.0" type="line"/>
      <point x="284.1464646464647" y="0.0" type="line"/>
      <point x="805.1060606060606" y="1412.830808080808" type="line"/>
      <point x="805.1060606060606" y="1480.0" type="line"/>
      <point x="10.073232323232324" y="1480.0" type="line"/>
      <point x="10.073232323232324" y="1374.330808080808" type="line"/>
      <point x="719.1313131313132" y="1374.330808080808" type="line"/>
      <point x="688.1515151515151" y="1414.5378787878788" type="line"/>
    </contour>
  </outline>
</glyph>
<glyph name="eight" format="2">
  <advance width="1145.04797979798"/>
  <unicode hex="0038"/>
  <outline>
    <contour>
      <point x="582.5959595959596" y="-18.292929292929294" type="curve" smooth="yes"/>
      <point x="877.0479797979798" y="-18.292929292929294"/>
      <point x="1050.3207070707072" y="136.83333333333334"/>
      <point x="1050.3207070707072" y="370.48232323232327" type="curve" smooth="yes"/>
      <point x="1050.3207070707072" y="583.8611111111111"/>
      <point x="934.5782828282829" y="702.2171717171717"/>
      <point x="614.1818181818182" y="792.1843434343434" type="curve" smooth="yes"/>
      <point x="338.64898989898995" y="868.2702020202021"/>
      <point x="258.16666666666674" y="957.8484848484849"/>
      <point x="258.16666666666674" y="1125.421717171717" type="curve" smooth="yes"/>
      <point x="258.16666666666674" y="1294.578282828283"/>
      <point x="367.3914141414142" y="1400.290404040404"/>
      <point x="571.3686868686868" y="1400.290404040404" type="curve" smooth="yes"/>
      <point x="774.5151515151515" y="1400.290404040404"/>
      <point x="894.7020202020202" y="1301.7247474747473"/>
      <point x="894.7020202020202" y="1120.2752525252524" type="curve" smooth="yes"/>
      <point x="894.7020202020202" y="954.689393939394"/>
      <point x="815.280303030303" y="857.2424242424242"/>
      <point x="631.6565656565657" y="775.5252525252525" type="curve"/>
      <point x="725.5555555555557" y="734.6742424242424" type="line"/>
      <point x="907.2171717171718" y="813.2247474747475"/>
      <point x="1004.1515151515152" y="948.4318181818182"/>
      <point x="1004.1515151515152" y="1126.121212121212" type="curve" smooth="yes"/>
      <point x="1004.1515151515152" y="1355.1464646464647"/>
      <point x="839.4267676767677" y="1498.2929292929293"/>
      <point x="571.8686868686868" y="1498.2929292929293" type="curve" smooth="yes"/>
      <point x="302.6818181818182" y="1498.2929292929293"/>
      <point x="139.88383838383837" y="1351.1186868686868"/>
      <point x="139.88383838383837" y="1121.6641414141413" type="curve" smooth="yes"/>
      <point x="139.88383838383837" y="907.530303030303"/>
      <point x="259.22474747474746" y="778.9646464646464"/>
      <point x="575.4873737373738" y="692.2424242424242" type="curve" smooth="yes"/>
      <point x="845.3358585858585" y="617.9141414141413"/>
      <point x="932.9166666666666" y="537.7727272727273"/>
      <point x="932.9166666666666" y="362.71212121212125" type="curve" smooth="yes"/>
      <point x="932.9166666666666" y="183.1287878787879"/>
      <point x="805.8409090909091" y="79.709595959596"/>
      <point x="583.0959595959596" y="79.709595959596" type="curve" smooth="yes"/>
      <point x="335.3914141414142" y="79.709595959596"/>
      <point x="211.41161616161622" y="186.4217171717172"/>
      <point x="211.41161616161622" y="376.6641414141414" type="curve" smooth="yes"/>
      <point x="211.41161616161622" y="547.2727272727273"/>
      <point x="315.9040404040404" y="677.9621212121212"/>
      <point x="497.2373737373738" y="732.85101010101" type="curve"/>
      <point x="401.2020202020202" y="776.0429292929293" type="line"/>
      <point x="210.7979797979798" y="709.9444444444445"/>
      <point x="94.28787878787878" y="560.1666666666666"/>
      <point x="94.28787878787878" y="369.5858585858586" type="curve" smooth="yes"/>
      <point x="94.28787878787878" y="126.23484848484848"/>
      <point x="266.77777777777777" y="-18.292929292929294"/>
    </contour>
  </outline>
</glyph>
<glyph name="nine" format="2">
  <advance width="1054.2828282828284"/>
  <unicode hex="0039"/>
  <outline>
    <contour>
      <point x="462.6868686868687" y="1498.2929292929293" type="curve" smooth="yes"/>
      <point x="231.29545454545456" y="1498.2929292929293"/>
      <point x="54.87626262626262" y="1355.8358585858587"/>
      <point x="54.87626262626262" y="1065.2979797979797" type="curve" smooth="yes"/>
      <point x="54.87626262626262" y="775.6843434343434"/>
      <point x="236.56313131313132" y="639.4040404040404"/>
      <point x="478.45454545454544" y="639.4040404040404" type="curve" smooth="yes"/>
      <point x="625.5858585858585" y="639.4040404040404"/>
      <point x="767.0959595959596" y="696.280303030303"/>
      <point x="842.6313131313132" y="790.790404040404" type="curve"/>
      <point x="842.6313131313132" y="906.9974747474747" type="line"/>
      <point x="762.9873737373738" y="786.3939393939394"/>
      <point x="617.9469696969697" y="739.3838383838385"/>
      <point x="494.24494949494954" y="739.3838383838385" type="curve" smooth="yes"/>
      <point x="304.61111111111114" y="739.3838383838385"/>
      <point x="169.03535353535358" y="836.0479797979798"/>
      <point x="169.03535353535358" y="1070.189393939394" type="curve" smooth="yes"/>
      <point x="169.03535353535358" y="1302.6969696969697"/>
      <point x="298.7702020202021" y="1397.8737373737374"/>
      <point x="460.96717171717177" y="1397.8737373737374" type="curve" smooth="yes"/>
      <point x="666.7954545454545" y="1397.8737373737374"/>
      <point x="811.6994949494949" y="1266.078282828283"/>
      <point x="811.6994949494949" y="797.8131313131313" type="curve" smooth="yes"/>
      <point x="811.6994949494949" y="761.7929292929293" type="line" smooth="yes"/>
      <point x="811.6994949494949" y="270.05808080808083"/>
      <point x="653.5959595959596" y="84.83585858585863"/>
      <point x="358.81060606060606" y="84.83585858585863" type="curve" smooth="yes"/>
      <point x="275.3686868686869" y="84.83585858585863"/>
      <point x="190.6489898989899" y="98.189393939394"/>
      <point x="119.14646464646465" y="127.82323232323236" type="curve"/>
      <point x="119.14646464646465" y="23.133838383838384" type="line"/>
      <point x="189.12373737373738" y="-6.43939393939394"/>
      <point x="276.12626262626264" y="-18.292929292929294"/>
      <point x="359.239898989899" y="-18.292929292929294" type="curve" smooth="yes"/>
      <point x="725.010101010101" y="-18.292929292929294"/>
      <point x="930.3257575757576" y="214.1010101010101"/>
      <point x="930.3257575757576" y="788.1212121212121" type="curve" smooth="yes"/>
      <point x="930.3257575757576" y="1321.8737373737374"/>
      <point x="735.5025252525253" y="1498.2929292929293"/>
    </contour>
  </outline>
</glyph>
<glyph name="colon" format="2">
  <advance width="412.14646464646466"/>
  <unicode hex="003A"/>
  <outline>
    <contour>
      <point x="206.07323232323233" y="-11.464646464646467" type="curve" smooth="yes"/>
      <point x="259.2828282828283" y="-11.464646464646467"/>
      <point x="296.63383838383845" y="23.300505050505063"/>
      <point x="296.63383838383845" y="77.4116161616162" type="curve" smooth="yes"/>
      <point x="296.63383838383845" y="131.52272727272734"/>
      <point x="259.8686868686869" y="167.99494949494957"/>
      <point x="206.07323232323233" y="167.99494949494957" type="curve" smooth="yes"/>
      <point x="152.27777777777777" y="167.99494949494957"/>
      <point x="115.51262626262624" y="132.1085858585859"/>
      <point x="115.51262626262624" y="77.4116161616162" type="curve" smooth="yes"/>
      <point x="115.51262626262624" y="22.714646464646478"/>
      <point x="152.86363636363637" y="-11.464646464646467"/>
    </contour>
    <contour>
      <point x="206.07323232323233" y="914.9343434343434" type="curve" smooth="yes"/>
      <point x="259.2828282828283" y="914.9343434343434"/>
      <point x="296.63383838383845" y="949.6994949494949"/>
      <point x="296.63383838383845" y="1003.810606060606" type="curve" smooth="yes"/>
      <point x="296.63383838383845" y="1057.921717171717"/>
      <point x="259.8686868686869" y="1094.3939393939395"/>
      <point x="206.07323232323233" y="1094.3939393939395" type="curve" smooth="yes"/>
      <point x="152.27777777777777" y="1094.3939393939395"/>
      <point x="115.51262626262624" y="1058.5075757575758"/>
      <point x="115.51262626262624" y="1003.810606060606" type="curve" smooth="yes"/>
      <point x="115.51262626262624" y="949.1136363636363"/>
      <point x="152.86363636363637" y="914.9343434343434"/>
    </contour>
  </outline>
</glyph>
<glyph name="semicolon" format="2">
  <advance width="412.14646464646466"/>
  <unicode hex="003B"/>
  <outline>
    <contour>
      <point x="139.66919191919192" y="-308.7878787878788" type="curve"/>
      <point x="211.05808080808083" y="-308.7878787878788" type="line"/>
      <point x="260.04292929292933" y="-207.75757575757575"/>
      <point x="296.4873737373738" y="-82.04040404040403"/>
      <point x="296.4873737373738" y="49.648989898989925" type="curve" smooth="yes"/>
      <point x="296.4873737373738" y="131.76515151515156"/>
      <point x="260.96717171717177" y="167.99494949494957"/>
      <point x="203.48737373737376" y="167.99494949494957" type="curve" smooth="yes"/>
      <point x="150.57070707070707" y="167.99494949494957"/>
      <point x="115.51262626262624" y="132.76767676767682"/>
      <point x="115.51262626262624" y="79.1186868686869" type="curve" smooth="yes"/>
      <point x="115.51262626262624" y="24.421717171717184"/>
      <point x="153.3030303030303" y="-11.464646464646467"/>
      <point x="206.07323232323233" y="-11.464646464646467" type="curve" smooth="yes"/>
      <point x="223.6388888888889" y="-11.464646464646467" type="line"/>
      <point x="206.53030303030303" y="17.858585858585865" type="line"/>
      <point x="206.53030303030303" y="-88.82828282828282"/>
      <point x="181.38131313131314" y="-188.92929292929293"/>
    </contour>
    <contour>
      <point x="206.07323232323233" y="914.9343434343434" type="curve" smooth="yes"/>
      <point x="259.2828282828283" y="914.9343434343434"/>
      <point x="296.63383838383845" y="949.6994949494949"/>
      <point x="296.63383838383845" y="1003.810606060606" type="curve" smooth="yes"/>
      <point x="296.63383838383845" y="1057.921717171717"/>
      <point x="259.8686868686869" y="1094.3939393939395"/>
      <point x="206.07323232323233" y="1094.3939393939395" type="curve" smooth="yes"/>
      <point x="152.27777777777777" y="1094.3939393939395"/>
      <point x="115.51262626262624" y="1058.5075757575758"/>
      <point x="115.51262626262624" y="1003.810606060606" type="curve" smooth="yes"/>
      <point x="115.51262626262624" y="949.1136363636363"/>
      <point x="152.86363636363637" y="914.9343434343434"/>
    </contour>
  </outline>
</glyph>
<glyph name="less" format="2">
  <advance width="1044.419191919192"/>
  <unicode hex="003C"/>
  <outline>
    <contour>
      <point x="898.9520202020202" y="380.07575757575756" type="line"/>
      <point x="898.9520202020202" y="486.9343434343434" type="line"/>
      <point x="232.53535353535355" y="772.8055555555555" type="line"/>
      <point x="232.53535353535355" y="747.560606060606" type="line"/>
      <point x="898.9520202020202" y="1033.0656565656566" type="line"/>
      <point x="898.9520202020202" y="1139.9242424242425" type="line"/>
      <point x="145.4671717171717" y="811.3383838383838" type="line"/>
      <point x="145.4671717171717" y="708.6616161616162" type="line"/>
    </contour>
  </outline>
</glyph>
<glyph name="equal" format="2">
  <advance width="1044.419191919192"/>
  <unicode hex="003D"/>
  <outline>
    <contour>
      <point x="145.4671717171717" y="899.7474747474747" type="line"/>
      <point x="898.9520202020202" y="899.7474747474747" type="line"/>
      <point x="898.9520202020202" y="999.7777777777778" type="line"/>
      <point x="145.4671717171717" y="999.7777777777778" type="line"/>
    </contour>
    <contour>
      <point x="145.4671717171717" y="520.2222222222222" type="line"/>
      <point x="898.9520202020202" y="520.2222222222222" type="line"/>
      <point x="898.9520202020202" y="620.2525252525253" type="line"/>
      <point x="145.4671717171717" y="620.2525252525253" type="line"/>
    </contour>
  </outline>
</glyph>
<glyph name="greater" format="2">
  <advance width="1044.419191919192"/>
  <unicode hex="003E"/>
  <outline>
    <contour>
      <point x="145.4671717171717" y="380.07575757575756" type="line"/>
      <point x="898.9520202020202" y="708.6616161616162" type="line"/>
      <point x="898.9520202020202" y="811.3383838383838" type="line"/>
      <point x="145.4671717171717" y="1139.9242424242425" type="line"/>
      <point x="145.4671717171717" y="1033.0656565656566" type="line"/>
      <point x="811.8838383838383" y="747.560606060606" type="line"/>
      <point x="811.8838383838383" y="772.8055555555555" type="line"/>
      <point x="145.4671717171717" y="486.9343434343434" type="line"/>
    </contour>
  </outline>
</glyph>
<glyph name="question" format="2">
  <advance width="832.0580808080808"/>
  <unicode hex="003F"/>
  <outline>
    <contour>
      <point x="329.19191919191917" y="333.97979797979804" type="line"/>
      <point x="406.26515151515156" y="333.97979797979804" type="line"/>
      <point x="419.1212121212122" y="688.6212121212121" type="line"/>
      <point x="679.4444444444445" y="797.6262626262626"/>
      <point x="773.6464646464647" y="923.9570707070707"/>
      <point x="773.6464646464647" y="1130.1287878787878" type="curve" smooth="yes"/>
      <point x="773.6464646464647" y="1365.5959595959596"/>
      <point x="622.9949494949495" y="1498.2929292929293"/>
      <point x="343.60353535353534" y="1498.2929292929293" type="curve" smooth="yes"/>
      <point x="236.32070707070707" y="1498.2929292929293"/>
      <point x="120.38888888888889" y="1478.5"/>
      <point x="38.48484848484848" y="1444.5126262626263" type="curve"/>
      <point x="38.48484848484848" y="1340.2626262626263" type="line"/>
      <point x="133.6060606060606" y="1377.810606060606"/>
      <point x="230.91414141414143" y="1395.6035353535353"/>
      <point x="335.2676767676768" y="1395.6035353535353" type="curve" smooth="yes"/>
      <point x="547.820707070707" y="1395.6035353535353"/>
      <point x="656.2651515151515" y="1303.8055555555554"/>
      <point x="656.2651515151515" y="1124.830808080808" type="curve" smooth="yes"/>
      <point x="656.2651515151515" y="952.489898989899"/>
      <point x="570.6464646464647" y="845.5580808080808"/>
      <point x="308.770202020202" y="753.1388888888889" type="curve"/>
    </contour>
    <contour>
      <point x="367.7651515151515" y="-11.464646464646467" type="curve" smooth="yes"/>
      <point x="422.68181818181824" y="-11.464646464646467"/>
      <point x="458.3257575757576" y="24.714646464646478"/>
      <point x="458.3257575757576" y="76.02020202020205" type="curve" smooth="yes"/>
      <point x="458.3257575757576" y="129.03282828282835"/>
      <point x="421.5606060606061" y="165.21212121212127"/>
      <point x="367.7651515151515" y="165.21212121212127" type="curve" smooth="yes"/>
      <point x="313.96969696969694" y="165.21212121212127"/>
      <point x="277.20454545454544" y="129.61868686868692"/>
      <point x="277.20454545454544" y="76.02020202020205" type="curve" smooth="yes"/>
      <point x="277.20454545454544" y="24.12878787878789"/>
      <point x="314.55555555555554" y="-11.464646464646467"/>
    </contour>
  </outline>
</glyph>
<glyph name="at" format="2">
  <advance width="1741.3560606060607"/>
  <unicode hex="0040"/>
  <outline>
    <contour>
      <point x="914.8914141414142" y="-460.0" type="curve" smooth="yes"/>
      <point x="1043.7247474747476" y="-460.0"/>
      <point x="1166.7777777777778" y="-437.7323232323232"/>
      <point x="1269.4797979797981" y="-404.2929292929293" type="curve"/>
      <point x="1269.4797979797981" y="-308.0252525252525" type="line"/>
      <point x="1148.9873737373737" y="-346.1590909090909"/>
      <point x="1038.1767676767677" y="-365.4393939393939"/>
      <point x="914.8914141414142" y="-365.4393939393939" type="curve" smooth="yes"/>
      <point x="452.25" y="-365.4393939393939"/>
      <point x="207.6085858585859" y="-138.8712121212121"/>
      <point x="207.6085858585859" y="523.4141414141415" type="curve" smooth="yes"/>
      <point x="207.6085858585859" y="1175.4570707070707"/>
      <point x="451.39646464646466" y="1403.439393939394"/>
      <point x="876.5505050505051" y="1403.439393939394" type="curve" smooth="yes"/>
      <point x="1301.3510101010102" y="1403.439393939394"/>
      <point x="1540.2373737373737" y="1178.3358585858587"/>
      <point x="1540.6767676767677" y="557.8080808080808" type="curve" smooth="yes"/>
      <point x="1541.0429292929293" y="192.88131313131316"/>
      <point x="1443.2449494949497" y="77.00000000000004"/>
      <point x="1342.9065656565658" y="77.00000000000004" type="curve" smooth="yes"/>
      <point x="1262.1919191919192" y="77.00000000000004"/>
      <point x="1227.4974747474748" y="125.9116161616162"/>
      <point x="1227.4974747474748" y="234.74747474747477" type="curve" smooth="yes"/>
      <point x="1227.4974747474748" y="734.8737373737373" type="line" smooth="yes"/>
      <point x="1227.4974747474748" y="1006.2878787878788"/>
      <point x="1097.3964646464647" y="1096.2929292929293"/>
      <point x="858.1717171717172" y="1096.2929292929293" type="curve" smooth="yes"/>
      <point x="768.9242424242425" y="1096.2929292929293"/>
      <point x="657.6161616161617" y="1079.4267676767677"/>
      <point x="575.9419191919192" y="1048.840909090909" type="curve"/>
      <point x="575.5025252525253" y="945.6161616161615" type="line"/>
      <point x="671.0378787878788" y="979.8232323232323"/>
      <point x="770.5631313131314" y="994.3358585858585"/>
      <point x="845.8939393939394" y="994.3358585858585" type="curve" smooth="yes"/>
      <point x="1018.8787878787879" y="994.3358585858585"/>
      <point x="1111.75" y="938.6792929292928"/>
      <point x="1111.75" y="738.4368686868687" type="curve" smooth="yes"/>
      <point x="1111.75" y="231.39898989898992" type="line"/>
      <point x="1035.8181818181818" y="120.3636363636364"/>
      <point x="931.8762626262627" y="81.78282828282832"/>
      <point x="838.9469696969697" y="81.78282828282832" type="curve" smooth="yes"/>
      <point x="703.3737373737374" y="81.78282828282832"/>
      <point x="629.5126262626263" y="148.47222222222226"/>
      <point x="629.5126262626263" y="285.29040404040404" type="curve" smooth="yes"/>
      <point x="629.5126262626263" y="412.8787878787879"/>
      <point x="703.9343434343435" y="481.800505050505"/>
      <point x="871.0555555555557" y="500.81060606060606" type="curve" smooth="yes"/>
      <point x="1162.3055555555557" y="533.3560606060606" type="line"/>
      <point x="1150.7146464646464" y="620.739898989899" type="line"/>
      <point x="865.5984848484849" y="588.1944444444445" type="line" smooth="yes"/>
      <point x="619.8055555555555" y="561.719696969697"/>
      <point x="508.49747474747477" y="459.63131313131316"/>
      <point x="508.49747474747477" y="272.5050505050505" type="curve" smooth="yes"/>
      <point x="508.49747474747477" y="86.74747474747475"/>
      <point x="629.3282828282828" y="-16.87878787878788"/>
      <point x="813.9419191919192" y="-16.87878787878788" type="curve" smooth="yes"/>
      <point x="935.4646464646465" y="-16.87878787878788"/>
      <point x="1045.5858585858587" y="31.070707070707066"/>
      <point x="1112.8131313131314" y="125.17171717171718" type="curve"/>
      <point x="1122.9242424242425" y="125.17171717171718" type="line"/>
      <point x="1147.4065656565656" y="38.37626262626262"/>
      <point x="1215.108585858586" y="-16.87878787878788"/>
      <point x="1326.530303030303" y="-16.87878787878788" type="curve" smooth="yes"/>
      <point x="1500.5353535353536" y="-16.87878787878788"/>
      <point x="1639.739898989899" y="145.97474747474746"/>
      <point x="1640.1666666666667" y="564.1010101010102" type="curve" smooth="yes"/>
      <point x="1640.5934343434344" y="1218.3257575757575"/>
      <point x="1363.2045454545455" y="1498.0"/>
      <point x="876.5505050505051" y="1498.0" type="curve" smooth="yes"/>
      <point x="389.1161616161616" y="1498.0"/>
      <point x="101.18939393939394" y="1218.3257575757575"/>
      <point x="101.18939393939394" y="520.0" type="curve" smooth="yes"/>
      <point x="101.18939393939394" y="-184.30050505050505"/>
      <point x="392.10353535353534" y="-459.57323232323233"/>
    </contour>
  </outline>
</glyph>
<glyph name="B" format="2">
  <advance width="1176.2878787878788"/>
  <unicode hex="0042"/>
  <anchor x="603.739898989899" y="0.0" name="bottom"/>
  <anchor x="603.739898989899" y="1480.0" name="top"/>
  <outline>
    <contour>
      <point x="492.94444444444446" y="-11.464646464646467" type="curve" smooth="yes"/>
      <point x="929.4469696969697" y="-11.464646464646467"/>
      <point x="1103.1717171717173" y="128.8181818181818"/>
      <point x="1103.1717171717173" y="396.67424242424244" type="curve" smooth="yes"/>
      <point x="1103.1717171717173" y="601.8459595959596"/>
      <point x="992.9015151515152" y="743.2676767676768"/>
      <point x="756.9368686868687" y="770.9873737373738" type="curve"/>
      <point x="755.6565656565657" y="756.8535353535353" type="line"/>
      <point x="979.8156565656566" y="790.5732323232323"/>
      <point x="1060.891414141414" y="938.8383838383838"/>
      <point x="1060.891414141414" y="1107.1666666666667" type="curve" smooth="yes"/>
      <point x="1060.891414141414" y="1370.7676767676767"/>
      <point x="900.7878787878788" y="1494.878787878788"/>
      <point x="527.1919191919192" y="1494.878787878788" type="curve" smooth="yes"/>
      <point x="385.8358585858586" y="1494.878787878788"/>
      <point x="271.1540404040404" y="1481.340909090909"/>
      <point x="165.50252525252523" y="1460.4368686868686" type="curve"/>
      <point x="165.50252525252523" y="7.952020202020202" type="line"/>
      <point x="276.99242424242425" y="-5.5732323232323235"/>
      <point x="383.74747474747477" y="-11.464646464646467"/>
    </contour>
    <contour>
      <point x="511.7878787878788" y="89.54040404040408" type="curve" smooth="yes"/>
      <point x="431.29292929292933" y="89.54040404040408"/>
      <point x="356.8585858585859" y="92.32070707070712"/>
      <point x="282.49494949494954" y="101.51515151515156" type="curve"/>
      <point x="282.49494949494954" y="1374.3989898989898" type="line"/>
      <point x="355.11363636363643" y="1387.1666666666665"/>
      <point x="430.07323232323233" y="1393.8737373737374"/>
      <point x="534.2853535353536" y="1393.8737373737374" type="curve" smooth="yes"/>
      <point x="832.2878787878788" y="1393.8737373737374"/>
      <point x="944.9621212121212" y="1310.4040404040404"/>
      <point x="944.9621212121212" y="1103.358585858586" type="curve" smooth="yes"/>
      <point x="944.9621212121212" y="912.8232323232323"/>
      <point x="844.9570707070707" y="811.2828282828283"/>
      <point x="555.3914141414142" y="811.2828282828283" type="curve" smooth="yes"/>
      <point x="263.419191919192" y="811.2828282828283" type="line"/>
      <point x="263.419191919192" y="708.739898989899" type="line"/>
      <point x="588.3055555555555" y="708.739898989899" type="line" smooth="yes"/>
      <point x="863.8737373737374" y="708.739898989899"/>
      <point x="987.3282828282828" y="606.8333333333334"/>
      <point x="987.3282828282828" y="398.1161616161616" type="curve" smooth="yes"/>
      <point x="987.3282828282828" y="188.2525252525253"/>
      <point x="864.4469696969697" y="89.54040404040408"/>
    </contour>
  </outline>
</glyph>
<glyph name="F" format="2">
  <advance width="1018.2171717171717"/>
  <unicode hex="0046"/>
  <outline>
    <contour>
      <point x="165.50252525252523" y="0.0" type="line"/>
      <point x="284.03282828282835" y="0.0" type="line"/>
      <point x="284.03282828282835" y="1373.3560606060605" type="line"/>
      <point x="985.4621212121212" y="1373.3560606060605" type="line"/>
      <point x="985.4621212121212" y="1480.0" type="line"/>
      <point x="165.50252525252523" y="1480.0" type="line"/>
    </contour>
    <contour>
      <point x="256.7727272727273" y="699.7323232323232" type="line"/>
      <point x="891.6439393939394" y="699.7323232323232" type="line"/>
      <point x="891.6439393939394" y="806.3762626262626" type="line"/>
      <point x="256.7727272727273" y="806.3762626262626" type="line"/>
    </contour>
  </outline>
</glyph>
<glyph name="H" format="2">
  <advance width="1333.020202020202"/>
  <unicode hex="0048"/>
  <anchor x="666.6565656565657" y="0.0" name="bottom"/>
  <anchor x="666.6565656565657" y="1149.5934343434344" name="center"/>
  <anchor x="666.6565656565657" y="1520.0" name="top"/>
  <anchor x="37.5479797979798" y="1480.0" name="topleft"/>
  <outline>
    <contour>
      <point x="165.50252525252523" y="0.0" type="line"/>
      <point x="284.03282828282835" y="0.0" type="line"/>
      <point x="284.03282828282835" y="704.9318181818181" type="line"/>
      <point x="1048.9873737373737" y="704.9318181818181" type="line"/>
      <point x="1048.9873737373737" y="0.0" type="line"/>
      <point x="1167.517676767677" y="0.0" type="line"/>
      <point x="1167.517676767677" y="1480.0" type="line"/>
      <point x="1048.9873737373737" y="1480.0" type="line"/>
      <point x="1048.9873737373737" y="815.3106060606061" type="line"/>
      <point x="284.03282828282835" y="815.3106060606061" type="line"/>
      <point x="284.03282828282835" y="1480.0" type="line"/>
      <point x="165.50252525252523" y="1480.0" type="line"/>
    </contour>
  </outline>
</glyph>
<glyph name="I" format="2">
  <advance width="449.5353535353536"/>
  <unicode hex="0049"/>
  <anchor x="224.69444444444446" y="0.0" name="bottom"/>
  <anchor x="284.03282828282835" y="0.0" name="ogonek"/>
  <anchor x="224.7676767676768" y="1520.0" name="top"/>
  <outline>
    <contour>
      <point x="165.50252525252523" y="0.0" type="line"/>
      <point x="284.03282828282835" y="0.0" type="line"/>
      <point x="284.03282828282835" y="1480.0" type="line"/>
      <point x="165.50252525252523" y="1480.0" type="line"/>
    </contour>
  </outline>
</glyph>
<glyph name="K" format="2">
  <advance width="1141.3055555555557"/>
  <unicode hex="004B"/>
  <anchor x="601.0126262626263" y="0.0" name="bottom"/>
  <anchor x="599.4747474747475" y="1480.0" name="top"/>
  <outline>
    <contour>
      <point x="1035.3030303030303" y="0.0" type="line"/>
      <point x="1171.3838383838383" y="0.0" type="line"/>
      <point x="572.010101010101" y="780.0050505050505" type="line"/>
      <point x="571.1313131313132" y="743.4090909090909" type="line"/>
      <point x="1129.75" y="1480.0" type="line"/>
      <point x="997.3535353535353" y="1480.0" type="line"/>
      <point x="451.3712121212121" y="756.9747474747475" type="line"/>
    </contour>
    <contour>
      <point x="165.50252525252523" y="0.0" type="line"/>
      <point x="284.03282828282835" y="0.0" type="line"/>
      <point x="284.03282828282835" y="1480.0" type="line"/>
      <point x="165.50252525252523" y="1480.0" type="line"/>
    </contour>
    <contour>
      <point x="262.3207070707071" y="704.9318181818181" type="line"/>
      <point x="510.189393939394" y="704.9318181818181" type="line"/>
      <point x="510.189393939394" y="814.030303030303" type="line"/>
      <point x="262.3207070707071" y="814.030303030303" type="line"/>
    </contour>
  </outline>
</glyph>
<glyph name="L" format="2">
  <advance width="981.7878787878788"/>
  <unicode hex="004C"/>
  <anchor x="570.4318181818182" y="0.0" name="bottom"/>
  <anchor x="638.6969696969697" y="1616.0" name="caronalt"/>
  <anchor x="708.8383838383838" y="792.8939393939394" name="periodcentered"/>
  <anchor x="225.64646464646466" y="785.7171717171717" name="slash"/>
  <anchor x="225.64646464646466" y="1520.0" name="top"/>
  <outline>
    <contour>
      <point x="165.50252525252523" y="0.0" type="line"/>
      <point x="973.6540404040404" y="0.0" type="line"/>
      <point x="973.6540404040404" y="107.81565656565662" type="line"/>
      <point x="284.03282828282835" y="107.81565656565662" type="line"/>
      <point x="284.03282828282835" y="1480.0" type="line"/>
      <point x="165.50252525252523" y="1480.0" type="line"/>
    </contour>
  </outline>
</glyph>
<glyph name="M" format="2">
  <advance width="1639.4444444444446"/>
  <unicode hex="004D"/>
  <anchor x="823.75" y="0.0" name="bottom"/>
  <anchor x="823.75" y="1480.0" name="top"/>
  <outline>
    <contour>
      <point x="169.50252525252523" y="0.0" type="line"/>
      <point x="282.07828282828285" y="0.0" type="line"/>
      <point x="282.07828282828285" y="1374.1313131313132" type="line"/>
      <point x="237.97474747474752" y="1374.1313131313132" type="line"/>
      <point x="763.4141414141415" y="202.92929292929293" type="line"/>
      <point x="876.0303030303031" y="202.92929292929293" type="line"/>
      <point x="1397.3459595959596" y="1374.1313131313132" type="line"/>
      <point x="1357.3661616161617" y="1374.1313131313132" type="line"/>
      <point x="1357.3661616161617" y="0.0" type="line"/>
      <point x="1469.9419191919192" y="0.0" type="line"/>
      <point x="1469.9419191919192" y="1480.0" type="line"/>
      <point x="1331.169191919192" y="1480.0" type="line"/>
      <point x="806.1616161616162" y="288.38888888888897" type="line"/>
      <point x="838.7474747474748" y="288.38888888888897" type="line"/>
      <point x="308.2752525252526" y="1480.0" type="line"/>
      <point x="169.50252525252523" y="1480.0" type="line"/>
    </contour>
  </outline>
</glyph>
<glyph name="P" format="2">
  <advance width="1144.8510101010102"/>
  <unicode hex="0050"/>
  <outline>
    <contour>
      <point x="165.50252525252523" y="0.0" type="line"/>
      <point x="284.03282828282835" y="0.0" type="line"/>
      <point x="284.03282828282835" y="508.02020202020196" type="line"/>
      <point x="347.6262626262627" y="502.0454545454545"/>
      <point x="403.719696969697" y="499.61868686868684"/>
      <point x="469.6060606060606" y="499.61868686868684" type="curve" smooth="yes"/>
      <point x="871.9722222222223" y="499.61868686868684"/>
      <point x="1055.429292929293" y="672.8282828282828"/>
      <point x="1055.429292929293" y="996.7121212121212" type="curve" smooth="yes"/>
      <point x="1055.429292929293" y="1339.8156565656566"/>
      <point x="866.6313131313132" y="1494.878787878788"/>
      <point x="501.2045454545455" y="1494.878787878788" type="curve" smooth="yes"/>
      <point x="380.5631313131313" y="1494.878787878788"/>
      <point x="271.37373737373736" y="1481.7070707070707"/>
      <point x="165.50252525252523" y="1462.3762626262626" type="curve"/>
    </contour>
    <contour>
      <point x="474.0328282828283" y="602.3813131313132" type="curve" smooth="yes"/>
      <point x="406.00000000000006" y="602.3813131313132"/>
      <point x="345.7727272727273" y="605.2348484848485"/>
      <point x="284.03282828282835" y="613.5757575757576" type="curve"/>
      <point x="284.03282828282835" y="1374.7272727272727" type="line"/>
      <point x="353.5757575757576" y="1385.8484848484848"/>
      <point x="425.09343434343435" y="1392.1161616161617"/>
      <point x="507.06313131313135" y="1392.1161616161617" type="curve" smooth="yes"/>
      <point x="796.9469696969697" y="1392.1161616161617"/>
      <point x="935.4621212121212" y="1272.4646464646464"/>
      <point x="935.4621212121212" y="993.2853535353536" type="curve" smooth="yes"/>
      <point x="935.4621212121212" y="728.25"/>
      <point x="794.3863636363636" y="602.3813131313132"/>
    </contour>
  </outline>
</glyph>
<glyph name="Q" format="2">
  <advance width="1303.2020202020203"/>
  <unicode hex="0051"/>
  <outline>
    <contour>
      <point x="1158.0909090909092" y="-206.94949494949498" type="curve"/>
      <point x="1178.1717171717173" y="-102.86868686868685" type="line"/>
      <point x="977.659090909091" y="-83.90404040404039"/>
      <point x="752.4318181818182" y="-44.58585858585857"/>
      <point x="579.2373737373738" y="35.6237373737374" type="curve"/>
      <point x="569.9141414141415" y="-2.0681818181818103" type="line"/>
      <point x="987.3080808080808" y="-56.290404040404034"/>
      <point x="1202.0126262626263" y="205.77272727272728"/>
      <point x="1202.0126262626263" y="740.0" type="curve" smooth="yes"/>
      <point x="1202.0126262626263" y="1289.2272727272727"/>
      <point x="982.6868686868687" y="1498.2929292929293"/>
      <point x="651.6010101010102" y="1498.2929292929293" type="curve" smooth="yes"/>
      <point x="320.5151515151515" y="1498.2929292929293"/>
      <point x="101.18939393939394" y="1286.8131313131314"/>
      <point x="101.18939393939394" y="739.2676767676768" type="curve" smooth="yes"/>
      <point x="101.18939393939394" y="128.70454545454547"/>
      <point x="344.6489898989899" y="-105.76767676767679"/>
    </contour>
    <contour>
      <point x="651.6010101010102" y="87.53282828282833" type="curve" smooth="yes"/>
      <point x="394.2222222222223" y="87.53282828282833"/>
      <point x="224.74494949494954" y="246.4166666666667"/>
      <point x="224.74494949494954" y="744.5858585858585" type="curve" smooth="yes"/>
      <point x="224.74494949494954" y="1233.4368686868686"/>
      <point x="394.5883838383839" y="1392.4671717171716"/>
      <point x="651.6010101010102" y="1392.4671717171716" type="curve" smooth="yes"/>
      <point x="908.6136363636364" y="1392.4671717171716"/>
      <point x="1078.4570707070707" y="1233.2171717171716"/>
      <point x="1078.4570707070707" y="735.4141414141415" type="curve" smooth="yes"/>
      <point x="1078.4570707070707" y="246.78282828282832"/>
      <point x="908.8333333333334" y="87.53282828282833"/>
    </contour>
  </outline>
</glyph>
<glyph name="R" format="2">
  <advance width="1216.628787878788"/>
  <unicode hex="0052"/>
  <anchor x="640.8888888888889" y="0.0" name="bottom"/>
  <anchor x="578.8661616161617" y="1520.0" name="top"/>
  <outline>
    <contour>
      <point x="165.50252525252523" y="0.0" type="line"/>
      <point x="283.0075757575758" y="0.0" type="line"/>
      <point x="283.0075757575758" y="636.4318181818181" type="line"/>
      <point x="340.7853535353536" y="632.090909090909"/>
      <point x="392.989898989899" y="629.2373737373737"/>
      <point x="473.83838383838383" y="629.2373737373737" type="curve" smooth="yes"/>
      <point x="855.5555555555555" y="629.2373737373737"/>
      <point x="1056.891414141414" y="776.9116161616162"/>
      <point x="1054.330808080808" y="1067.3560606060605" type="curve" smooth="yes"/>
      <point x="1054.330808080808" y="1355.9974747474748"/>
      <point x="879.7020202020202" y="1494.878787878788"/>
      <point x="516.7525252525253" y="1494.878787878788" type="curve" smooth="yes"/>
      <point x="377.77272727272725" y="1494.878787878788"/>
      <point x="267.73989898989896" y="1480.060606060606"/>
      <point x="165.50252525252523" y="1461.7171717171718" type="curve"/>
    </contour>
    <contour>
      <point x="1035.25" y="0.0" type="line"/>
      <point x="1169.6237373737374" y="0.0" type="line"/>
      <point x="656.8914141414142" y="696.6186868686868" type="line"/>
      <point x="525.8358585858585" y="696.6186868686868" type="line"/>
    </contour>
    <contour>
      <point x="471.1565656565657" y="729.9141414141415" type="curve" smooth="yes"/>
      <point x="399.47727272727275" y="729.9141414141415"/>
      <point x="355.3686868686869" y="732.4141414141415"/>
      <point x="283.0075757575758" y="737.7676767676768" type="curve"/>
      <point x="283.0075757575758" y="1373.9722222222222" type="line"/>
      <point x="358.1237373737374" y="1386.4469696969697"/>
      <point x="424.58333333333337" y="1393.5075757575758"/>
      <point x="520.2474747474748" y="1393.5075757575758" type="curve" smooth="yes"/>
      <point x="816.5782828282828" y="1393.5075757575758"/>
      <point x="939.5353535353535" y="1292.891414141414"/>
      <point x="939.5353535353535" y="1065.2222222222222" type="curve" smooth="yes"/>
      <point x="939.5353535353535" y="837.0277777777778"/>
      <point x="799.9343434343434" y="729.9141414141415"/>
    </contour>
  </outline>
</glyph>
<glyph name="T" format="2">
  <advance width="1079.1742424242425"/>
  <unicode hex="0054"/>
  <anchor x="539.6969696969697" y="0.0" name="bottom"/>
  <anchor x="539.6969696969697" y="785.3535353535353" name="center"/>
  <anchor x="539.6969696969697" y="1520.0" name="top"/>
  <outline>
    <contour>
      <point x="480.2121212121212" y="0.0" type="line"/>
      <point x="598.9621212121212" y="0.0" type="line"/>
      <point x="598.9621212121212" y="1372.1843434343434" type="line"/>
      <point x="1068.5404040404042" y="1372.1843434343434" type="line"/>
      <point x="1068.5404040404042" y="1480.0" type="line"/>
      <point x="10.633838383838384" y="1480.0" type="line"/>
      <point x="10.633838383838384" y="1372.1843434343434" type="line"/>
      <point x="480.2121212121212" y="1372.1843434343434" type="line"/>
    </contour>
  </outline>
</glyph>
<glyph name="V" format="2">
  <advance width="1204.6616161616162"/>
  <unicode hex="0056"/>
  <outline>
    <contour>
      <point x="516.6641414141413" y="0.0" type="line"/>
      <point x="687.9974747474748" y="0.0" type="line"/>
      <point x="1194.8964646464647" y="1480.0" type="line"/>
      <point x="1076.5025252525252" y="1480.0" type="line"/>
      <point x="592.0959595959596" y="57.79545454545457" type="line"/>
      <point x="618.2020202020202" y="57.79545454545457" type="line"/>
      <point x="135.89393939393946" y="1480.0" type="line"/>
      <point x="9.76515151515151" y="1480.0" type="line"/>
    </contour>
  </outline>
</glyph>
<glyph name="X" format="2">
  <advance width="1180.709595959596"/>
  <unicode hex="0058"/>
  <outline>
    <contour>
      <point x="1021.4797979797979" y="0.0" type="line"/>
      <point x="1158.8661616161617" y="0.0" type="line"/>
      <point x="659.9646464646465" y="752.540404040404" type="line"/>
      <point x="590.3181818181819" y="849.8156565656566" type="line"/>
      <point x="172.42929292929298" y="1480.0" type="line"/>
      <point x="35.664141414141405" y="1480.0" type="line"/>
      <point x="519.8787878787879" y="751.6010101010102" type="line"/>
      <point x="589.5252525252525" y="653.7045454545454" type="line"/>
    </contour>
    <contour>
      <point x="20.391414141414124" y="0.0" type="line"/>
      <point x="156.14393939393943" y="0.0" type="line"/>
      <point x="589.5252525252525" y="653.7045454545454" type="line"/>
      <point x="659.9646464646465" y="752.540404040404" type="line"/>
      <point x="1142.9343434343434" y="1480.0" type="line"/>
      <point x="1008.560606060606" y="1480.0" type="line"/>
      <point x="590.3181818181819" y="849.8156565656566" type="line"/>
      <point x="519.8787878787879" y="751.6010101010102" type="line"/>
    </contour>
  </outline>
</glyph>
<glyph name="bracketleft" format="2">
  <advance width="604.7474747474748"/>
  <unicode hex="005B"/>
  <outline>
    <contour>
      <point x="185.50252525252523" y="-440.0" type="line"/>
      <point x="642.2575757575758" y="-440.0" type="line"/>
      <point x="642.2575757575758" y="-339.2373737373737" type="line"/>
      <point x="302.9343434343435" y="-339.2373737373737" type="line"/>
      <point x="302.9343434343435" y="1515.2373737373737" type="line"/>
      <point x="642.989898989899" y="1515.2373737373737" type="line"/>
      <point x="642.989898989899" y="1616.0" type="line"/>
      <point x="185.50252525252523" y="1616.0" type="line"/>
    </contour>
  </outline>
</glyph>
<glyph name="backslash" format="2">
  <advance width="521.6414141414142"/>
  <unicode hex="005C"/>
  <outline>
    <contour>
      <point x="403.76010101010104" y="-240.0" type="line"/>
      <point x="521.6414141414142" y="-240.0" type="line"/>
      <point x="117.88131313131319" y="1616.0" type="line"/>
      <point x="0.0" y="1616.0" type="line"/>
    </contour>
  </outline>
</glyph>
<glyph name="bracketright" format="2">
  <advance width="604.7474747474748"/>
  <unicode hex="005D"/>
  <outline>
    <contour>
      <point x="-37.51010101010101" y="-440.0" type="line"/>
      <point x="419.24494949494954" y="-440.0" type="line"/>
      <point x="419.24494949494954" y="1616.0" type="line"/>
      <point x="-38.24242424242424" y="1616.0" type="line"/>
      <point x="-38.24242424242424" y="1515.2373737373737" type="line"/>
      <point x="301.8131313131313" y="1515.2373737373737" type="line"/>
      <point x="301.8131313131313" y="-339.2373737373737" type="line"/>
      <point x="-37.51010101010101" y="-339.2373737373737" type="line"/>
    </contour>
  </outline>
</glyph>
<glyph name="underscore" format="2">
  <advance width="1023.510101010101"/>
  <unicode hex="005F"/>
  <outline>
    <contour>
      <point x="91.03535353535354" y="-100.83585858585863" type="line"/>
      <point x="932.4747474747476" y="-100.83585858585863" type="line"/>
      <point x="932.4747474747476" y="-0.07323232323232333" type="line"/>
      <point x="91.03535353535354" y="-0.07323232323232333" type="line"/>
    </contour>
  </outline>
</glyph>
<glyph name="grave" format="2">
  <advance width="943.939393939394"/>
  <unicode hex="0060"/>
  <anchor x="471.969696969697" y="1200.0" name="_top"/>
  <anchor x="471.969696969697" y="1570.6464646464647" name="top"/>
  <outline>
    <contour>
      <point x="419.85353535353534" y="1257.5555555555557" type="line"/>
      <point x="524.0858585858587" y="1257.5555555555557" type="line"/>
      <point x="339.86111111111114" y="1616.0" type="line"/>
      <point x="214.62373737373736" y="1616.0" type="line"/>
    </contour>
  </outline>
</glyph>
<glyph name="a" format="2">
  <advance width="941.3510101010102"/>
  <unicode hex="0061"/>
  <anchor x="473.51010101010104" y="0.0" name="bottom"/>
  <anchor x="805.5050505050506" y="0.0" name="ogonek"/>
  <anchor x="465.82828282828285" y="1200.0" name="top"/>
  <outline>
    <contour>
      <point x="391.9494949494949" y="-16.87878787878788" type="curve" smooth="yes"/>
      <point x="512.679292929293" y="-16.87878787878788"/>
      <point x="619.6893939393939" y="30.92424242424242"/>
      <point x="687.3459595959596" y="122.29040404040404" type="curve"/>
      <point x="696.6641414141413" y="122.29040404040404" type="line"/>
      <point x="705.959595959596" y="0.0" type="line"/>
      <point x="805.5050505050506" y="0.0" type="line"/>
      <point x="805.5050505050506" y="732.1313131313132" type="line" smooth="yes"/>
      <point x="805.5050505050506" y="1009.2171717171717"/>
      <point x="675.4040404040404" y="1099.2222222222222"/>
      <point x="432.9469696969697" y="1099.2222222222222" type="curve" smooth="yes"/>
      <point x="341.85858585858585" y="1099.2222222222222"/>
      <point x="230.03787878787878" y="1083.0151515151515"/>
      <point x="147.9242424242424" y="1053.4545454545455" type="curve"/>
      <point x="147.9242424242424" y="950.2297979797979" type="line"/>
      <point x="243.8989898989899" y="983.4116161616162"/>
      <point x="343.57070707070704" y="997.2651515151515"/>
      <point x="420.4494949494949" y="997.2651515151515" type="curve" smooth="yes"/>
      <point x="596.8863636363636" y="997.2651515151515"/>
      <point x="689.7575757575758" y="941.6085858585858"/>
      <point x="689.7575757575758" y="736.4267676767677" type="curve" smooth="yes"/>
      <point x="689.7575757575758" y="230.81313131313132" type="line"/>
      <point x="613.3863636363636" y="119.63131313131316"/>
      <point x="510.39646464646466" y="81.19696969696975"/>
      <point x="416.9545454545455" y="81.19696969696975" type="curve" smooth="yes"/>
      <point x="280.5757575757576" y="81.19696969696975"/>
      <point x="207.52020202020208" y="148.39898989898992"/>
      <point x="207.52020202020208" y="284.7045454545455" type="curve" smooth="yes"/>
      <point x="207.52020202020208" y="411.780303030303"/>
      <point x="281.2954545454546" y="482.42171717171715"/>
      <point x="453.1237373737374" y="500.5782828282828" type="curve" smooth="yes"/>
      <point x="741.5934343434343" y="532.1969696969696" type="line"/>
      <point x="728.7222222222222" y="620.5328282828283" type="line"/>
      <point x="447.8737373737374" y="588.9141414141415" type="line" smooth="yes"/>
      <point x="197.8131313131313" y="563.439393939394"/>
      <point x="86.50505050505049" y="459.63131313131316"/>
      <point x="86.50505050505049" y="272.5050505050505" type="curve" smooth="yes"/>
      <point x="86.50505050505049" y="88.1010101010101"/>
      <point x="206.9090909090909" y="-16.87878787878788"/>
    </contour>
  </outline>
</glyph>
<glyph name="b" format="2">
  <advance width="1022.9646464646465"/>
  <unicode hex="0062"/>
  <anchor x="514.9646464646465" y="0.0" name="bottom"/>
  <anchor x="205.64646464646466" y="1616.0" name="top"/>
  <outline>
    <contour>
      <point x="429.9166666666667" y="-18.366161616161616" type="curve" smooth="yes"/>
      <point x="754.5176767676768" y="-18.58585858585859"/>
      <point x="932.5075757575758" y="163.260101010101"/>
      <point x="932.5075757575758" y="561.3914141414141" type="curve" smooth="yes"/>
      <point x="932.5075757575758" y="965.6313131313132"/>
      <point x="756.0429292929293" y="1099.2222222222222"/>
      <point x="548.6641414141415" y="1099.2222222222222" type="curve" smooth="yes"/>
      <point x="424.3005050505051" y="1099.2222222222222"/>
      <point x="328.7777777777778" y="1043.699494949495"/>
      <point x="272.08333333333337" y="974.5757575757576" type="curve"/>
      <point x="264.2525252525253" y="974.5757575757576" type="line"/>
      <point x="264.2525252525253" y="1616.0" type="line"/>
      <point x="146.82070707070704" y="1616.0" type="line"/>
      <point x="146.82070707070704" y="24.808080808080813" type="line"/>
      <point x="228.31565656565655" y="-2.84090909090909"/>
      <point x="334.6287878787879" y="-18.366161616161616"/>
    </contour>
    <contour>
      <point x="436.6767676767677" y="82.49242424242429" type="curve" smooth="yes"/>
      <point x="374.54797979797985" y="82.49242424242429"/>
      <point x="308.29797979797985" y="92.7474747474748"/>
      <point x="264.2525252525253" y="105.85606060606065" type="curve"/>
      <point x="264.2525252525253" y="855.9747474747475" type="line"/>
      <point x="321.9065656565657" y="948.280303030303"/>
      <point x="422.0555555555556" y="993.9696969696969"/>
      <point x="520.1313131313132" y="993.9696969696969" type="curve" smooth="yes"/>
      <point x="684.3661616161617" y="993.9696969696969"/>
      <point x="811.0025252525253" y="904.4267676767677"/>
      <point x="811.0025252525253" y="549.6565656565657" type="curve" smooth="yes"/>
      <point x="811.0025252525253" y="213.2626262626263"/>
      <point x="678.8055555555555" y="82.49242424242429"/>
    </contour>
  </outline>
</glyph>
<glyph name="c" format="2">
  <advance width="788.5328282828283"/>
  <unicode hex="0063"/>
  <anchor x="471.1666666666667" y="0.0" name="bottom"/>
  <anchor x="469.22474747474746" y="1200.0" name="top"/>
  <outline>
    <contour>
      <point x="520.5025252525253" y="-18.58585858585859" type="curve" smooth="yes"/>
      <point x="599.2727272727273" y="-18.58585858585859"/>
      <point x="679.409090909091" y="-5.0858585858585865"/>
      <point x="760.9570707070707" y="24.035353535353533" type="curve"/>
      <point x="760.9570707070707" y="129.09090909090912" type="line"/>
      <point x="672.5934343434344" y="98.49494949494954"/>
      <point x="601.3030303030304" y="85.93434343434348"/>
      <point x="538.3282828282829" y="85.93434343434348" type="curve" smooth="yes"/>
      <point x="325.06818181818187" y="85.93434343434348"/>
      <point x="213.3535353535354" y="199.0126262626263"/>
      <point x="213.3535353535354" y="545.1717171717172" type="curve" smooth="yes"/>
      <point x="213.3535353535354" y="884.9393939393939"/>
      <point x="331.53030303030306" y="994.7020202020202"/>
      <point x="576.6919191919192" y="994.7020202020202" type="curve" smooth="yes"/>
      <point x="628.6313131313132" y="994.7020202020202"/>
      <point x="694.0808080808081" y="987.1414141414141"/>
      <point x="760.9570707070707" y="969.3257575757575" type="curve"/>
      <point x="760.9570707070707" y="1074.3813131313132" type="line"/>
      <point x="697.6388888888889" y="1091.7954545454545"/>
      <point x="627.760101010101" y="1099.2222222222222"/>
      <point x="564.0252525252525" y="1099.2222222222222" type="curve" smooth="yes"/>
      <point x="258.72222222222223" y="1099.2222222222222"/>
      <point x="90.4570707070707" y="945.1944444444445"/>
      <point x="90.4570707070707" y="541.0984848484849" type="curve" smooth="yes"/>
      <point x="90.4570707070707" y="138.11363636363637"/>
      <point x="245.17171717171718" y="-18.58585858585859"/>
    </contour>
  </outline>
</glyph>
<glyph name="f" format="2">
  <advance width="641.6691919191919"/>
  <unicode hex="0066"/>
  <outline>
    <contour>
      <point x="213.73737373737373" y="0.0" type="line"/>
      <point x="330.51010101010104" y="0.0" type="line"/>
      <point x="330.51010101010104" y="1298.320707070707" type="line" smooth="yes"/>
      <point x="330.51010101010104" y="1466.921717171717"/>
      <point x="407.98232323232327" y="1532.651515151515"/>
      <point x="562.4318181818182" y="1532.651515151515" type="curve" smooth="yes"/>
      <point x="608.0757575757576" y="1532.651515151515"/>
      <point x="646.6717171717172" y="1528.5176767676767"/>
      <point x="690.0606060606061" y="1520.6767676767677" type="curve"/>
      <point x="690.0606060606061" y="1624.8535353535353" type="line"/>
      <point x="646.5353535353536" y="1632.8535353535353"/>
      <point x="597.0959595959596" y="1636.0"/>
      <point x="556.1060606060606" y="1636.0" type="curve" smooth="yes"/>
      <point x="329.5151515151515" y="1636.0"/>
      <point x="213.73737373737373" y="1519.4772727272727"/>
      <point x="213.73737373737373" y="1294.5252525252524" type="curve" smooth="yes"/>
    </contour>
    <contour>
      <point x="12.525252525252526" y="982.1666666666666" type="line"/>
      <point x="652.2424242424242" y="982.1666666666666" type="line"/>
      <point x="652.2424242424242" y="1082.9292929292928" type="line"/>
      <point x="12.525252525252526" y="1082.9292929292928" type="line"/>
    </contour>
  </outline>
</glyph>
<glyph name="h" format="2">
  <advance width="1034.9368686868688"/>
  <unicode hex="0068"/>
  <anchor x="523.3156565656566" y="0.0" name="bottom"/>
  <anchor x="523.3156565656566" y="541.4646464646464" name="center"/>
  <anchor x="146.82070707070704" y="1355.121212121212" name="stroke"/>
  <anchor x="523.3156565656566" y="1616.0" name="top"/>
  <outline>
    <contour>
      <point x="146.82070707070704" y="0.0" type="line"/>
      <point x="264.2525252525253" y="0.0" type="line"/>
      <point x="264.2525252525253" y="831.739898989899" type="line"/>
      <point x="339.83080808080814" y="948.8611111111111"/>
      <point x="464.42929292929296" y="989.5530303030303"/>
      <point x="560.3484848484849" y="989.5530303030303" type="curve" smooth="yes"/>
      <point x="692.8131313131313" y="989.5530303030303"/>
      <point x="781.6590909090909" y="929.6919191919192"/>
      <point x="781.6590909090909" y="741.2550505050505" type="curve" smooth="yes"/>
      <point x="781.6590909090909" y="0.0" type="line"/>
      <point x="899.0909090909091" y="0.0" type="line"/>
      <point x="899.0909090909091" y="744.0277777777777" type="line" smooth="yes"/>
      <point x="899.0909090909091" y="1010.1691919191919"/>
      <point x="765.9419191919193" y="1099.2222222222222"/>
      <point x="587.64898989899" y="1099.2222222222222" type="curve" smooth="yes"/>
      <point x="465.78282828282835" y="1099.2222222222222"/>
      <point x="355.11616161616166" y="1053.5025252525252"/>
      <point x="272.08333333333337" y="960.0656565656566" type="curve"/>
      <point x="264.2525252525253" y="960.0656565656566" type="line"/>
      <point x="264.2525252525253" y="1616.0" type="line"/>
      <point x="146.82070707070704" y="1616.0" type="line"/>
    </contour>
  </outline>
</glyph>
<glyph name="j" format="2">
  <advance width="411.29292929292933"/>
  <unicode hex="006A"/>
  <anchor x="205.28030303030306" y="1202.560606060606" name="_top"/>
  <anchor x="205.28030303030306" y="1202.560606060606" name="top"/>
  <outline>
    <contour>
      <point x="53.16919191919196" y="-462.34343434343435" type="line"/>
      <point x="201.5075757575758" y="-258.85353535353534"/>
      <point x="264.4722222222223" y="-87.28787878787878"/>
      <point x="264.4722222222223" y="177.6489898989899" type="curve" smooth="yes"/>
      <point x="264.4722222222223" y="1082.9292929292928" type="line"/>
      <point x="146.82070707070704" y="1082.9292929292928" type="line"/>
      <point x="146.82070707070704" y="168.05050505050505" type="line" smooth="yes"/>
      <point x="146.82070707070704" y="-71.23737373737373"/>
      <point x="96.1161616161616" y="-226.25757575757575"/>
      <point x="-27.747474747474755" y="-407.41161616161617" type="curve"/>
    </contour>
    <contour>
      <point x="205.28030303030306" y="1340.4444444444443" type="curve" smooth="yes"/>
      <point x="260.76010101010104" y="1340.4444444444443"/>
      <point x="293.9368686868687" y="1372.2070707070707"/>
      <point x="293.9368686868687" y="1423.9747474747476" type="curve" smooth="yes"/>
      <point x="293.9368686868687" y="1475.7424242424242"/>
      <point x="260.76010101010104" y="1509.2121212121212"/>
      <point x="205.28030303030306" y="1509.2121212121212" type="curve" smooth="yes"/>
      <point x="149.80050505050505" y="1509.2121212121212"/>
      <point x="116.62373737373736" y="1475.7424242424242"/>
      <point x="116.62373737373736" y="1423.9747474747476" type="curve" smooth="yes"/>
      <point x="116.62373737373736" y="1372.2070707070707"/>
      <point x="149.80050505050505" y="1340.4444444444443"/>
    </contour>
  </outline>
</glyph>
<glyph name="k" format="2">
  <advance width="936.5353535353536"/>
  <unicode hex="006B"/>
  <anchor x="510.4191919191919" y="0.0" name="bottom"/>
  <anchor x="205.64646464646466" y="1616.0" name="top"/>
  <outline>
    <contour>
      <point x="823.5681818181818" y="0.0" type="line"/>
      <point x="959.4040404040404" y="0.0" type="line"/>
      <point x="524.9267676767678" y="573.0934343434344" type="line"/>
      <point x="524.9267676767678" y="537.35101010101" type="line"/>
      <point x="926.7449494949495" y="1082.9292929292928" type="line"/>
      <point x="793.6540404040404" y="1082.9292929292928" type="line"/>
      <point x="401.5328282828283" y="554.0505050505051" type="line"/>
    </contour>
    <contour>
      <point x="245.90909090909096" y="503.4494949494949" type="line"/>
      <point x="456.72727272727275" y="503.4494949494949" type="line"/>
      <point x="456.72727272727275" y="604.6515151515151" type="line"/>
      <point x="245.90909090909096" y="604.6515151515151" type="line"/>
    </contour>
    <contour>
      <point x="146.82070707070704" y="0.0" type="line"/>
      <point x="264.2525252525253" y="0.0" type="line"/>
      <point x="264.2525252525253" y="1616.0" type="line"/>
      <point x="146.82070707070704" y="1616.0" type="line"/>
    </contour>
  </outline>
</glyph>
<glyph name="l" format="2">
  <advance width="411.07323232323233"/>
  <unicode hex="006C"/>
  <anchor x="205.57323232323233" y="0.0" name="bottom"/>
  <anchor x="370.5909090909091" y="1616.0" name="caronalt"/>
  <anchor x="429.08333333333337" y="794.0" name="periodcentered"/>
  <anchor x="205.64646464646466" y="714.0" name="slash"/>
  <anchor x="205.64646464646466" y="1616.0" name="top"/>
  <outline>
    <contour>
      <point x="146.82070707070704" y="0.0" type="line"/>
      <point x="264.2525252525253" y="0.0" type="line"/>
      <point x="264.2525252525253" y="1616.0" type="line"/>
      <point x="146.82070707070704" y="1616.0" type="line"/>
    </contour>
  </outline>
</glyph>
<glyph name="m" format="2">
  <advance width="1571.9772727272727"/>
  <unicode hex="006D"/>
  <anchor x="794.1590909090909" y="0.0" name="bottom"/>
  <anchor x="794.1590909090909" y="1200.0" name="top"/>
  <outline>
    <contour>
      <point x="146.82070707070704" y="0.0" type="line"/>
      <point x="264.2525252525253" y="0.0" type="line"/>
      <point x="264.2525252525253" y="827.0454545454545" type="line"/>
      <point x="334.6237373737374" y="948.8611111111111"/>
      <point x="449.60101010101016" y="991.2601010101009"/>
      <point x="535.4116161616162" y="991.2601010101009" type="curve" smooth="yes"/>
      <point x="653.1338383838383" y="991.2601010101009"/>
      <point x="735.9191919191919" y="929.9116161616162"/>
      <point x="735.9191919191919" y="739.7929292929293" type="curve" smooth="yes"/>
      <point x="735.9191919191919" y="0.0" type="line"/>
      <point x="852.1060606060606" y="0.0" type="line"/>
      <point x="852.1060606060606" y="746.4444444444445" type="line" smooth="yes"/>
      <point x="852.1060606060606" y="1010.6085858585859"/>
      <point x="728.0176767676768" y="1099.2222222222222"/>
      <point x="564.2222222222223" y="1099.2222222222222" type="curve" smooth="yes"/>
      <point x="451.3914141414142" y="1099.2222222222222"/>
      <point x="345.73484848484856" y="1053.5883838383838"/>
      <point x="265.5656565656566" y="957.8585858585859" type="curve"/>
      <point x="256.2474747474748" y="957.8585858585859" type="line"/>
      <point x="247.02525252525257" y="1082.9292929292928" type="line"/>
      <point x="146.82070707070704" y="1082.9292929292928" type="line"/>
    </contour>
    <contour>
      <point x="1318.7727272727273" y="0.0" type="line"/>
      <point x="1436.1313131313132" y="0.0" type="line"/>
      <point x="1436.1313131313132" y="743.5883838383838" type="line" smooth="yes"/>
      <point x="1436.1313131313132" y="1010.1691919191919"/>
      <point x="1306.25" y="1099.2222222222222"/>
      <point x="1138.098484848485" y="1099.2222222222222" type="curve" smooth="yes"/>
      <point x="1026.1212121212122" y="1099.2222222222222"/>
      <point x="895.3181818181819" y="1052.550505050505"/>
      <point x="797.040404040404" y="910.7752525252525" type="curve"/>
      <point x="830.4848484848485" y="804.0" type="line"/>
      <point x="901.7222222222223" y="948.8611111111111"/>
      <point x="1027.4419191919192" y="991.2601010101009"/>
      <point x="1113.6919191919192" y="991.2601010101009" type="curve" smooth="yes"/>
      <point x="1231.7676767676767" y="991.2601010101009"/>
      <point x="1318.7727272727273" y="929.9116161616162"/>
      <point x="1318.7727272727273" y="739.7929292929293" type="curve" smooth="yes"/>
    </contour>
  </outline>
</glyph>
<glyph name="p" format="2">
  <advance width="1022.9646464646465"/>
  <unicode hex="0070"/>
  <outline>
    <contour>
      <point x="146.82070707070704" y="-440.0" type="line"/>
      <point x="264.2525252525253" y="-440.0" type="line"/>
      <point x="264.2525252525253" y="-6.550505050505054" type="line"/>
      <point x="312.83333333333337" y="-13.09848484848485"/>
      <point x="372.22979797979804" y="-18.366161616161616"/>
      <point x="425.8712121212121" y="-18.366161616161616" type="curve" smooth="yes"/>
      <point x="755.5782828282829" y="-18.366161616161616"/>
      <point x="932.5075757575758" y="163.69949494949495"/>
      <point x="932.5075757575758" y="561.3914141414141" type="curve" smooth="yes"/>
      <point x="932.5075757575758" y="966.510101010101"/>
      <point x="753.2727272727274" y="1099.2222222222222"/>
      <point x="540.14898989899" y="1099.2222222222222" type="curve" smooth="yes"/>
      <point x="418.3686868686869" y="1099.2222222222222"/>
      <point x="322.199494949495" y="1042.3813131313132"/>
      <point x="266.1515151515152" y="967.6969696969697" type="curve"/>
      <point x="257.26010101010104" y="967.6969696969697" type="line"/>
      <point x="247.97727272727278" y="1082.9292929292928" type="line"/>
      <point x="146.82070707070704" y="1082.9292929292928" type="line"/>
    </contour>
    <contour>
      <point x="430.27525252525254" y="82.56565656565661" type="curve" smooth="yes"/>
      <point x="375.2070707070707" y="82.56565656565661"/>
      <point x="308.29797979797985" y="89.4065656565657"/>
      <point x="264.2525252525253" y="99.23484848484853" type="curve"/>
      <point x="264.2525252525253" y="849.8282828282828" type="line"/>
      <point x="321.97979797979804" y="947.9873737373737"/>
      <point x="422.2878787878788" y="994.1893939393939"/>
      <point x="518.5353535353536" y="994.1893939393939" type="curve" smooth="yes"/>
      <point x="684.2929292929293" y="994.1893939393939"/>
      <point x="811.0025252525253" y="904.6464646464647"/>
      <point x="811.0025252525253" y="549.7297979797979" type="curve" smooth="yes"/>
      <point x="811.0025252525253" y="213.3358585858586"/>
      <point x="678.8055555555555" y="82.56565656565661"/>
    </contour>
  </outline>
</glyph>
<glyph name="q" format="2">
  <advance width="1022.9646464646465"/>
  <unicode hex="0071"/>
  <outline>
    <contour>
      <point x="758.7121212121212" y="-440.0" type="line"/>
      <point x="876.1439393939395" y="-440.0" type="line"/>
      <point x="876.1439393939395" y="1056.04797979798" type="line"/>
      <point x="797.868686868687" y="1082.1969696969697"/>
      <point x="688.3358585858587" y="1099.2222222222222"/>
      <point x="593.0479797979798" y="1099.2222222222222" type="curve" smooth="yes"/>
      <point x="268.4469696969697" y="1099.2222222222222"/>
      <point x="90.4570707070707" y="917.5959595959596"/>
      <point x="90.4570707070707" y="519.4646464646464" type="curve" smooth="yes"/>
      <point x="90.4570707070707" y="115.22474747474749"/>
      <point x="266.92171717171715" y="-18.366161616161616"/>
      <point x="474.300505050505" y="-18.366161616161616" type="curve" smooth="yes"/>
      <point x="598.6641414141415" y="-18.366161616161616"/>
      <point x="694.1868686868687" y="37.156565656565654"/>
      <point x="750.8813131313132" y="106.28030303030303" type="curve"/>
      <point x="758.7121212121212" y="106.28030303030303" type="line"/>
    </contour>
    <contour>
      <point x="502.83333333333337" y="86.88636363636368" type="curve" smooth="yes"/>
      <point x="338.5984848484849" y="86.88636363636368"/>
      <point x="211.96212121212127" y="176.42929292929296"/>
      <point x="211.96212121212127" y="531.1994949494949" type="curve" smooth="yes"/>
      <point x="211.96212121212127" y="867.5934343434343"/>
      <point x="344.8914141414142" y="998.3636363636364"/>
      <point x="586.0681818181819" y="998.3636363636364" type="curve" smooth="yes"/>
      <point x="648.2702020202021" y="998.3636363636364"/>
      <point x="714.6666666666666" y="988.5353535353535"/>
      <point x="758.7121212121212" y="977.3535353535353" type="curve"/>
      <point x="758.7121212121212" y="224.88131313131316" type="line"/>
      <point x="701.0580808080808" y="132.57575757575762"/>
      <point x="600.0555555555555" y="86.88636363636368"/>
    </contour>
  </outline>
</glyph>
<glyph name="v" format="2">
  <advance width="958.5025252525253"/>
  <unicode hex="0076"/>
  <anchor x="480.3181818181818" y="0.0" name="bottom"/>
  <anchor x="480.3181818181818" y="1200.0" name="top"/>
  <outline>
    <contour>
      <point x="401.63383838383834" y="0.0" type="line"/>
      <point x="556.7954545454546" y="0.0" type="line"/>
      <point x="944.3232323232323" y="1082.9292929292928" type="line"/>
      <point x="822.4419191919192" y="1082.9292929292928" type="line"/>
      <point x="470.9166666666667" y="78.3535353535354" type="line"/>
      <point x="491.9419191919192" y="78.3535353535354" type="line"/>
      <point x="140.41666666666674" y="1082.9292929292928" type="line"/>
      <point x="14.179292929292924" y="1082.9292929292928" type="line"/>
    </contour>
  </outline>
</glyph>
<glyph name="x" format="2">
  <advance width="902.2398989898991"/>
  <unicode hex="0078"/>
  <anchor x="452.1868686868687" y="0.0" name="bottom"/>
  <anchor x="452.4065656565657" y="1200.0" name="top"/>
  <outline>
    <contour>
      <point x="754.4949494949495" y="0.0" type="line"/>
      <point x="889.7095959595961" y="0.0" type="line"/>
      <point x="520.8333333333334" y="547.8308080808081" type="line"/>
      <point x="452.84595959595964" y="639.1641414141415" type="line"/>
      <point x="155.8914141414142" y="1082.9292929292928" type="line"/>
      <point x="20.676767676767668" y="1082.9292929292928" type="line"/>
      <point x="381.4671717171717" y="545.4646464646464" type="line"/>
      <point x="450.1136363636364" y="455.85101010101005" type="line"/>
    </contour>
    <contour>
      <point x="15.03030303030302" y="0.0" type="line"/>
      <point x="147.13383838383845" y="0.0" type="line"/>
      <point x="450.1136363636364" y="455.85101010101005" type="line"/>
      <point x="520.8333333333334" y="547.8308080808081" type="line"/>
      <point x="881.2575757575759" y="1082.9292929292928" type="line"/>
      <point x="750.0075757575758" y="1082.9292929292928" type="line"/>
      <point x="452.84595959595964" y="639.1641414141415" type="line"/>
      <point x="381.4671717171717" y="545.4646464646464" type="line"/>
    </contour>
  </outline>
</glyph>
<glyph name="z" format="2">
  <advance width="828.6919191919192"/>
  <unicode hex="007A"/>
  <anchor x="418.0479797979798" y="0.0" name="bottom"/>
  <anchor x="418.0479797979798" y="1200.0" name="top"/>
  <outline>
    <contour>
      <point x="57.06060606060606" y="0.0" type="line"/>
      <point x="777.6818181818182" y="0.0" type="line"/>
      <point x="777.6818181818182" y="100.76262626262631" type="line"/>
      <point x="182.38383838383845" y="100.76262626262631" type="line"/>
      <point x="182.38383838383845" y="68.45202020202024" type="line"/>
      <point x="766.8282828282829" y="1011.4393939393939" type="line"/>
      <point x="766.8282828282829" y="1082.9292929292928" type="line"/>
      <point x="67.91414141414141" y="1082.9292929292928" type="line"/>
      <point x="67.91414141414141" y="982.1666666666666" type="line"/>
      <point x="641.5050505050505" y="982.1666666666666" type="line"/>
      <point x="641.5050505050505" y="1014.4772727272727" type="line"/>
      <point x="57.06060606060606" y="71.48989898989903" type="line"/>
    </contour>
  </outline>
</glyph>
<glyph name="braceleft" format="2">
  <advance width="644.7474747474748"/>
  <unicode hex="007B"/>
  <outline>
    <contour>
      <point x="552.9570707070707" y="-460.0" type="curve" smooth="yes"/>
      <point x="601.2777777777778" y="-460.0"/>
      <point x="649.4015151515151" y="-455.7070707070707"/>
      <point x="682.989898989899" y="-449.4141414141414" type="curve"/>
      <point x="682.989898989899" y="-356.6515151515151" type="line"/>
      <point x="560.2348484848485" y="-356.6515151515151" type="line" smooth="yes"/>
      <point x="414.28282828282835" y="-356.6515151515151"/>
      <point x="342.9343434343435" y="-291.8156565656565"/>
      <point x="342.9343434343435" y="-146.02272727272725" type="curve" smooth="yes"/>
      <point x="342.9343434343435" y="396.3838383838384" type="line" smooth="yes"/>
      <point x="342.9343434343435" y="532.6363636363636"/>
      <point x="288.73232323232327" y="609.9090909090909"/>
      <point x="165.34343434343435" y="632.1010101010102" type="curve"/>
      <point x="165.34343434343435" y="614.8282828282828" type="line"/>
      <point x="288.73232323232327" y="637.020202020202"/>
      <point x="342.9343434343435" y="714.2929292929293"/>
      <point x="342.9343434343435" y="850.5454545454545" type="curve" smooth="yes"/>
      <point x="342.9343434343435" y="1322.0227272727273" type="line" smooth="yes"/>
      <point x="342.9343434343435" y="1467.8156565656566"/>
      <point x="414.28282828282835" y="1532.651515151515"/>
      <point x="560.2348484848485" y="1532.651515151515" type="curve" smooth="yes"/>
      <point x="682.989898989899" y="1532.651515151515" type="line"/>
      <point x="682.989898989899" y="1625.4141414141413" type="line"/>
      <point x="649.4015151515151" y="1631.7070707070707"/>
      <point x="601.2777777777778" y="1636.0"/>
      <point x="552.9570707070707" y="1636.0" type="curve" smooth="yes"/>
      <point x="336.5808080808081" y="1636.0"/>
      <point x="225.50252525252523" y="1528.7146464646464"/>
      <point x="225.50252525252523" y="1316.5" type="curve" smooth="yes"/>
      <point x="225.50252525252523" y="843.6414141414142" type="line" smooth="yes"/>
      <point x="225.50252525252523" y="726.0883838383838"/>
      <point x="166.43181818181816" y="673.8459595959596"/>
      <point x="57.41414141414141" y="673.8459595959596" type="curve" smooth="yes"/>
      <point x="39.78535353535352" y="673.8459595959596" type="line"/>
      <point x="39.78535353535352" y="573.0833333333333" type="line"/>
      <point x="57.41414141414141" y="573.0833333333333" type="line" smooth="yes"/>
      <point x="166.43181818181816" y="573.0833333333333"/>
      <point x="225.50252525252523" y="520.8409090909091"/>
      <point x="225.50252525252523" y="403.28787878787875" type="curve" smooth="yes"/>
      <point x="225.50252525252523" y="-140.5" type="line" smooth="yes"/>
      <point x="225.50252525252523" y="-352.7146464646465"/>
      <point x="336.5808080808081" y="-460.0"/>
    </contour>
  </outline>
</glyph>
<glyph name="bar" format="2">
  <advance width="441.7727272727273"/>
  <unicode hex="007C"/>
  <outline>
    <contour>
      <point x="165.50252525252523" y="-440.0" type="line"/>
      <point x="276.2702020202021" y="-440.0" type="line"/>
      <point x="276.2702020202021" y="1616.0" type="line"/>
      <point x="165.50252525252523" y="1616.0" type="line"/>
    </contour>
  </outline>
</glyph>
<glyph name="braceright" format="2">
  <advance width="644.7474747474748"/>
  <unicode hex="007D"/>
  <outline>
    <contour>
      <point x="91.79040404040406" y="-460.0" type="curve" smooth="yes"/>
      <point x="308.1666666666667" y="-460.0"/>
      <point x="419.24494949494954" y="-352.7146464646465"/>
      <point x="419.24494949494954" y="-140.5" type="curve" smooth="yes"/>
      <point x="419.24494949494954" y="403.28787878787875" type="line" smooth="yes"/>
      <point x="419.24494949494954" y="520.8409090909091"/>
      <point x="478.3156565656566" y="573.0833333333333"/>
      <point x="587.3333333333334" y="573.0833333333333" type="curve" smooth="yes"/>
      <point x="604.9621212121212" y="573.0833333333333" type="line"/>
      <point x="604.9621212121212" y="673.8459595959596" type="line"/>
      <point x="587.3333333333334" y="673.8459595959596" type="line" smooth="yes"/>
      <point x="478.3156565656566" y="673.8459595959596"/>
      <point x="419.24494949494954" y="726.0883838383838"/>
      <point x="419.24494949494954" y="843.6414141414142" type="curve" smooth="yes"/>
      <point x="419.24494949494954" y="1316.5" type="line" smooth="yes"/>
      <point x="419.24494949494954" y="1528.7146464646464"/>
      <point x="308.1666666666667" y="1636.0"/>
      <point x="91.79040404040406" y="1636.0" type="curve" smooth="yes"/>
      <point x="43.46969696969698" y="1636.0"/>
      <point x="-4.654040404040397" y="1631.7070707070707"/>
      <point x="-38.24242424242424" y="1625.4141414141413" type="curve"/>
      <point x="-38.24242424242424" y="1532.651515151515" type="line"/>
      <point x="84.51262626262627" y="1532.651515151515" type="line" smooth="yes"/>
      <point x="230.46464646464645" y="1532.651515151515"/>
      <point x="301.8131313131313" y="1467.8156565656566"/>
      <point x="301.8131313131313" y="1322.0227272727273" type="curve" smooth="yes"/>
      <point x="301.8131313131313" y="850.5454545454545" type="line" smooth="yes"/>
      <point x="301.8131313131313" y="714.2929292929293"/>
      <point x="356.67424242424244" y="637.020202020202"/>
      <point x="479.4040404040404" y="614.8282828282828" type="curve"/>
      <point x="479.4040404040404" y="632.1010101010102" type="line"/>
      <point x="356.67424242424244" y="609.9090909090909"/>
      <point x="301.8131313131313" y="532.6363636363636"/>
      <point x="301.8131313131313" y="396.3838383838384" type="curve" smooth="yes"/>
      <point x="301.8131313131313" y="-146.02272727272725" type="line" smooth="yes"/>
      <point x="301.8131313131313" y="-291.8156565656565"/>
      <point x="230.46464646464645" y="-356.6515151515151"/>
      <point x="84.51262626262627" y="-356.6515151515151" type="curve" smooth="yes"/>
      <point x="-38.24242424242424" y="-356.6515151515151" type="line"/>
      <point x="-38.24242424242424" y="-449.4141414141414" type="line"/>
      <point x="-4.654040404040397" y="-455.7070707070707"/>
      <point x="43.46969696969698" y="-460.0"/>
    </contour>
  </outline>
</glyph>
<glyph name="asciitilde" format="2">
  <advance width="1044.419191919192"/>
  <unicode hex="007E"/>
  <outline>
    <contour>
      <point x="698.4570707070707" y="647.1565656565656" type="curve" smooth="yes"/>
      <point x="780.9242424242425" y="647.1565656565656"/>
      <point x="851.510101010101" y="678.8636363636364"/>
      <point x="898.9520202020202" y="738.9141414141413" type="curve"/>
      <point x="898.9520202020202" y="854.6010101010102" type="line"/>
      <point x="841.1439393939394" y="781.7222222222223"/>
      <point x="776.0454545454545" y="746.3080808080808"/>
      <point x="697.3358585858585" y="746.3080808080808" type="curve" smooth="yes"/>
      <point x="589.6742424242424" y="746.3080808080808"/>
      <point x="482.0631313131313" y="862.6010101010102"/>
      <point x="345.9621212121212" y="862.6010101010102" type="curve" smooth="yes"/>
      <point x="263.4949494949495" y="862.6010101010102"/>
      <point x="192.9090909090909" y="830.8939393939394"/>
      <point x="145.4671717171717" y="770.8434343434344" type="curve"/>
      <point x="145.4671717171717" y="655.1565656565656" type="line"/>
      <point x="203.2752525252525" y="728.0353535353535"/>
      <point x="268.37373737373736" y="763.4494949494949"/>
      <point x="347.0833333333333" y="763.4494949494949" type="curve" smooth="yes"/>
      <point x="454.7449494949495" y="763.4494949494949"/>
      <point x="562.3560606060606" y="647.1565656565656"/>
    </contour>
  </outline>
</glyph>
<glyph name="exclamdown" format="2">
  <advance width="452.14646464646466"/>
  <unicode hex="00A1"/>
  <outline>
    <contour>
      <point x="187.8661616161616" y="732.5101010101009" type="line"/>
      <point x="163.5631313131313" y="176.01262626262624" type="line"/>
      <point x="163.5631313131313" y="-380.0" type="line"/>
      <point x="288.58333333333337" y="-380.0" type="line"/>
      <point x="288.58333333333337" y="176.01262626262624" type="line"/>
      <point x="264.939393939394" y="732.5101010101009" type="line"/>
    </contour>
    <contour>
      <point x="226.07323232323233" y="1094.3939393939395" type="curve" smooth="yes"/>
      <point x="172.86363636363637" y="1094.3939393939395"/>
      <point x="135.51262626262624" y="1060.2146464646464"/>
      <point x="135.51262626262624" y="1005.5176767676768" type="curve" smooth="yes"/>
      <point x="135.51262626262624" y="950.820707070707"/>
      <point x="172.27777777777777" y="914.9343434343434"/>
      <point x="226.07323232323233" y="914.9343434343434" type="curve" smooth="yes"/>
      <point x="279.8686868686869" y="914.9343434343434"/>
      <point x="316.63383838383845" y="951.4065656565656"/>
      <point x="316.63383838383845" y="1005.5176767676768" type="curve" smooth="yes"/>
      <point x="316.63383838383845" y="1059.6287878787878"/>
      <point x="279.2828282828283" y="1094.3939393939395"/>
    </contour>
  </outline>
</glyph>
<glyph name="cent" format="2">
  <advance width="788.6186868686868"/>
  <unicode hex="00A2"/>
  <outline>
    <contour>
      <point x="520.5025252525253" y="-18.58585858585859" type="curve" smooth="yes"/>
      <point x="599.2727272727273" y="-18.58585858585859"/>
      <point x="679.409090909091" y="-5.0858585858585865"/>
      <point x="760.9570707070707" y="24.035353535353533" type="curve"/>
      <point x="760.9570707070707" y="129.09090909090912" type="line"/>
      <point x="672.5934343434344" y="98.49494949494954"/>
      <point x="601.3030303030304" y="85.93434343434348"/>
      <point x="538.3282828282829" y="85.93434343434348" type="curve" smooth="yes"/>
      <point x="325.06818181818187" y="85.93434343434348"/>
      <point x="213.3535353535354" y="199.0126262626263"/>
      <point x="213.3535353535354" y="545.1717171717172" type="curve" smooth="yes"/>
      <point x="213.3535353535354" y="884.9393939393939"/>
      <point x="331.1035353535354" y="994.7020202020202"/>
      <point x="572.4242424242425" y="994.7020202020202" type="curve" smooth="yes"/>
      <point x="628.2045454545455" y="994.7020202020202"/>
      <point x="693.2272727272727" y="987.1414141414141"/>
      <point x="760.9570707070707" y="969.3257575757575" type="curve"/>
      <point x="760.9570707070707" y="1074.3813131313132" type="line"/>
      <point x="695.9318181818182" y="1091.7954545454545"/>
      <point x="628.6136363636364" y="1099.2222222222222"/>
      <point x="565.3055555555555" y="1099.2222222222222" type="curve" smooth="yes"/>
      <point x="258.29545454545456" y="1099.2222222222222"/>
      <point x="90.4570707070707" y="945.1944444444445"/>
      <point x="90.4570707070707" y="541.0984848484849" type="curve" smooth="yes"/>
      <point x="90.4570707070707" y="138.11363636363637"/>
      <point x="244.74494949494948" y="-18.58585858585859"/>
    </contour>
    <contour>
      <point x="462.72474747474746" y="-240.0" type="line"/>
      <point x="567.14898989899" y="-240.0" type="line"/>
      <point x="567.14898989899" y="8.7878787878788" type="line"/>
      <point x="462.72474747474746" y="8.7878787878788" type="line"/>
    </contour>
    <contour>
      <point x="462.72474747474746" y="1074.141414141414" type="line"/>
      <point x="567.14898989899" y="1074.141414141414" type="line"/>
      <point x="567.14898989899" y="1322.9292929292928" type="line"/>
      <point x="462.72474747474746" y="1322.9292929292928" type="line"/>
    </contour>
  </outline>
</glyph>
<glyph name="sterling" format="2">
  <advance width="1159.239898989899"/>
  <unicode hex="00A3"/>
  <outline>
    <contour>
      <point x="290.6010101010101" y="45.47474747474749" type="line"/>
      <point x="407.66666666666674" y="45.47474747474749" type="line"/>
      <point x="407.66666666666674" y="1069.8686868686868" type="line" smooth="yes"/>
      <point x="407.66666666666674" y="1299.790404040404"/>
      <point x="531.4747474747476" y="1392.6742424242423"/>
      <point x="780.2398989898991" y="1392.6742424242423" type="curve" smooth="yes"/>
      <point x="874.0934343434344" y="1392.6742424242423"/>
      <point x="968.5479797979798" y="1380.3813131313132"/>
      <point x="1062.5101010101012" y="1351.1262626262626" type="curve"/>
      <point x="1062.5101010101012" y="1458.45202020202" type="line"/>
      <point x="981.5454545454546" y="1484.5732323232323"/>
      <point x="873.2878787878789" y="1498.2929292929293"/>
      <point x="777.320707070707" y="1498.2929292929293" type="curve" smooth="yes"/>
      <point x="459.6313131313131" y="1498.2929292929293"/>
      <point x="290.6010101010101" y="1356.8964646464647"/>
      <point x="290.6010101010101" y="1067.8181818181818" type="curve" smooth="yes"/>
    </contour>
    <contour>
      <point x="77.07070707070707" y="0.0" type="line"/>
      <point x="1097.4621212121212" y="0.0" type="line"/>
      <point x="1097.4621212121212" y="104.13131313131319" type="line"/>
      <point x="77.07070707070707" y="104.13131313131319" type="line"/>
    </contour>
    <contour>
      <point x="77.07070707070707" y="700.35101010101" type="line"/>
      <point x="903.8484848484849" y="700.35101010101" type="line"/>
      <point x="903.8484848484849" y="799.64898989899" type="line"/>
      <point x="77.07070707070707" y="799.64898989899" type="line"/>
    </contour>
  </outline>
</glyph>
<glyph name="currency" format="2">
  <advance width="1080.7575757575758"/>
  <unicode hex="00A4"/>
  <outline>
    <contour>
      <point x="316.3787878787879" y="919.4949494949494" type="line"/>
      <point x="360.88383838383845" y="962.2929292929293" type="line"/>
      <point x="258.4545454545455" y="1093.3080808080808" type="line"/>
      <point x="160.84343434343435" y="1194.6262626262626" type="line"/>
      <point x="84.04545454545453" y="1117.828282828283" type="line"/>
      <point x="187.07070707070707" y="1020.2171717171717" type="line"/>
    </contour>
    <contour>
      <point x="764.3787878787879" y="919.4949494949494" type="line"/>
      <point x="893.6868686868687" y="1020.2171717171717" type="line"/>
      <point x="996.7121212121212" y="1117.828282828283" type="line"/>
      <point x="919.9141414141415" y="1194.6262626262626" type="line"/>
      <point x="822.3030303030304" y="1093.3080808080808" type="line"/>
      <point x="719.8737373737374" y="962.2929292929293" type="line"/>
    </contour>
    <contour>
      <point x="918.2070707070707" y="285.37373737373736" type="line"/>
      <point x="995.0050505050506" y="362.17171717171715" type="line"/>
      <point x="893.6868686868687" y="459.7828282828283" type="line"/>
      <point x="772.9141414141415" y="551.969696969697" type="line"/>
      <point x="728.4090909090909" y="505.75757575757575" type="line"/>
      <point x="820.5959595959596" y="386.69191919191917" type="line"/>
    </contour>
    <contour>
      <point x="162.55050505050508" y="285.37373737373736" type="line"/>
      <point x="260.16161616161617" y="386.69191919191917" type="line"/>
      <point x="352.3484848484849" y="505.75757575757575" type="line"/>
      <point x="307.84343434343435" y="551.969696969697" type="line"/>
      <point x="187.07070707070707" y="459.7828282828283" type="line"/>
      <point x="85.75252525252525" y="362.17171717171715" type="line"/>
    </contour>
    <contour>
      <point x="540.3787878787879" y="404.22474747474746" type="curve" smooth="yes"/>
      <point x="730.5050505050506" y="404.22474747474746"/>
      <point x="861.6691919191919" y="538.1666666666666"/>
      <point x="861.6691919191919" y="740.0" type="curve" smooth="yes"/>
      <point x="861.6691919191919" y="939.8333333333334"/>
      <point x="730.5050505050506" y="1073.7752525252524"/>
      <point x="540.3787878787879" y="1073.7752525252524" type="curve" smooth="yes"/>
      <point x="348.54545454545456" y="1073.7752525252524"/>
      <point x="219.08838383838383" y="939.8333333333334"/>
      <point x="219.08838383838383" y="740.0" type="curve" smooth="yes"/>
      <point x="219.08838383838383" y="538.1666666666666"/>
      <point x="348.54545454545456" y="404.22474747474746"/>
    </contour>
    <contour>
      <point x="540.3787878787879" y="489.9520202020202" type="curve" smooth="yes"/>
      <point x="402.6060606060606" y="489.9520202020202"/>
      <point x="307.45202020202026" y="582.8131313131313"/>
      <point x="307.45202020202026" y="740.0" type="curve" smooth="yes"/>
      <point x="307.45202020202026" y="897.1868686868687"/>
      <point x="402.6060606060606" y="990.0479797979798"/>
      <point x="542.3787878787879" y="990.0479797979798" type="curve" smooth="yes"/>
      <point x="690.6868686868687" y="990.0479797979798"/>
      <point x="773.3055555555555" y="885.7727272727273"/>
      <point x="773.3055555555555" y="740.0" type="curve" smooth="yes"/>
      <point x="773.3055555555555" y="581.1060606060606"/>
      <point x="678.1515151515151" y="489.9520202020202"/>
    </contour>
  </outline>
</glyph>
<glyph name="yen" format="2">
  <advance width="1125.1186868686868"/>
  <unicode hex="00A5"/>
  <outline>
    <contour>
      <point x="503.550505050505" y="0.0" type="line"/>
      <point x="622.0808080808081" y="0.0" type="line"/>
      <point x="622.0808080808081" y="716.8737373737374" type="line"/>
      <point x="595.4141414141415" y="624.0984848484848" type="line"/>
      <point x="1124.9444444444446" y="1480.0" type="line"/>
      <point x="999.929292929293" y="1480.0" type="line"/>
      <point x="543.7146464646464" y="743.75" type="line"/>
      <point x="585.9924242424242" y="743.75" type="line"/>
      <point x="130.91161616161622" y="1480.0" type="line"/>
      <point x="-1.2171717171717322" y="1480.0" type="line"/>
      <point x="530.2171717171717" y="624.0984848484848" type="line"/>
      <point x="503.550505050505" y="717.7525252525253" type="line"/>
    </contour>
    <contour>
      <point x="195.0151515151515" y="308.94191919191917" type="line"/>
      <point x="930.6161616161617" y="308.94191919191917" type="line"/>
      <point x="930.6161616161617" y="398.42676767676767" type="line"/>
      <point x="195.0151515151515" y="398.42676767676767" type="line"/>
    </contour>
    <contour>
      <point x="195.0151515151515" y="649.5732323232323" type="line"/>
      <point x="930.6161616161617" y="649.5732323232323" type="line"/>
      <point x="930.6161616161617" y="739.0580808080808" type="line"/>
      <point x="195.0151515151515" y="739.0580808080808" type="line"/>
    </contour>
  </outline>
</glyph>
<glyph name="brokenbar" format="2">
  <advance width="441.7727272727273"/>
  <unicode hex="00A6"/>
  <outline>
    <contour>
      <point x="165.50252525252523" y="836.0" type="line"/>
      <point x="276.2702020202021" y="836.0" type="line"/>
      <point x="276.2702020202021" y="1616.0" type="line"/>
      <point x="165.50252525252523" y="1616.0" type="line"/>
    </contour>
    <contour>
      <point x="165.50252525252523" y="-440.0" type="line"/>
      <point x="276.2702020202021" y="-440.0" type="line"/>
      <point x="276.2702020202021" y="340.0" type="line"/>
      <point x="165.50252525252523" y="340.0" type="line"/>
    </contour>
  </outline>
</glyph>
<glyph name="section" format="2">
  <advance width="915.5353535353536"/>
  <unicode hex="00A7"/>
  <outline>
    <contour>
      <point x="395.3005050505051" y="-18.58585858585859" type="curve" smooth="yes"/>
      <point x="644.9217171717172" y="-18.58585858585859"/>
      <point x="779.4166666666667" y="97.80808080808082"/>
      <point x="779.4166666666667" y="288.3005050505051" type="curve" smooth="yes"/>
      <point x="779.4166666666667" y="434.01010101010104"/>
      <point x="711.4848484848485" y="525.3257575757576"/>
      <point x="518.4520202020202" y="573.3484848484849" type="curve" smooth="yes"/>
      <point x="391.32828282828285" y="603.2777777777778" type="line" smooth="yes"/>
      <point x="268.0934343434344" y="633.8484848484849"/>
      <point x="216.45202020202024" y="697.4772727272727"/>
      <point x="216.45202020202024" y="799.5782828282828" type="curve" smooth="yes"/>
      <point x="216.45202020202024" y="868.1111111111111"/>
      <point x="248.03535353535358" y="927.1313131313132"/>
      <point x="311.0075757575758" y="968.8762626262626" type="curve"/>
      <point x="236.85353535353536" y="1025.9242424242425" type="line"/>
      <point x="159.1060606060606" y="972.0328282828283"/>
      <point x="111.94444444444443" y="890.8611111111111"/>
      <point x="111.94444444444443" y="793.8813131313132" type="curve" smooth="yes"/>
      <point x="111.94444444444443" y="645.7045454545454"/>
      <point x="183.81565656565655" y="551.4242424242424"/>
      <point x="365.46969696969694" y="506.47474747474746" type="curve" smooth="yes"/>
      <point x="492.520202020202" y="476.3989898989899" type="line" smooth="yes"/>
      <point x="611.1666666666666" y="446.70707070707067"/>
      <point x="665.8560606060606" y="394.51767676767673"/>
      <point x="665.8560606060606" y="281.03030303030306" type="curve" smooth="yes"/>
      <point x="665.8560606060606" y="152.2878787878788"/>
      <point x="578.5353535353536" y="79.34343434343438"/>
      <point x="395.8484848484849" y="79.34343434343438" type="curve" smooth="yes"/>
      <point x="312.02777777777777" y="79.34343434343438"/>
      <point x="232.24242424242425" y="91.209595959596"/>
      <point x="135.16919191919192" y="120.62373737373741" type="curve"/>
      <point x="135.16919191919192" y="20.987373737373737" type="line"/>
      <point x="216.90404040404042" y="-5.15909090909091"/>
      <point x="303.82323232323233" y="-18.58585858585859"/>
    </contour>
    <contour>
      <point x="679.5328282828283" y="451.89141414141415" type="line"/>
      <point x="756.4646464646465" y="504.79545454545456"/>
      <point x="803.5909090909091" y="584.4191919191919"/>
      <point x="803.5909090909091" y="689.39898989899" type="curve" smooth="yes"/>
      <point x="803.5909090909091" y="839.5757575757576"/>
      <point x="735.659090909091" y="933.4772727272727"/>
      <point x="544.4570707070708" y="980.9141414141415" type="curve" smooth="yes"/>
      <point x="416.67424242424244" y="1010.6969696969697" type="line" smooth="yes"/>
      <point x="297.1742424242425" y="1040.388888888889"/>
      <point x="248.94696969696975" y="1099.9671717171718"/>
      <point x="248.94696969696975" y="1199.5050505050506" type="curve" smooth="yes"/>
      <point x="248.94696969696975" y="1310.1641414141413"/>
      <point x="327.96464646464653" y="1398.3636363636363"/>
      <point x="526.790404040404" y="1398.3636363636363" type="curve" smooth="yes"/>
      <point x="602.1691919191919" y="1398.3636363636363"/>
      <point x="664.7449494949495" y="1391.3636363636363"/>
      <point x="745.0984848484849" y="1370.949494949495" type="curve"/>
      <point x="745.0984848484849" y="1470.5858585858587" type="line"/>
      <point x="675.5606060606061" y="1487.2929292929293"/>
      <point x="604.1666666666667" y="1496.2929292929293"/>
      <point x="522.3232323232323" y="1496.2929292929293" type="curve" smooth="yes"/>
      <point x="263.75757575757575" y="1496.2929292929293"/>
      <point x="135.38636363636363" y="1368.3636363636363"/>
      <point x="135.38636363636363" y="1193.5151515151515" type="curve" smooth="yes"/>
      <point x="135.38636363636363" y="1051.270202020202"/>
      <point x="206.96464646464648" y="959.0631313131313"/>
      <point x="391.47474747474746" y="913.7474747474747" type="curve" smooth="yes"/>
      <point x="518.5252525252525" y="883.8181818181818" type="line" smooth="yes"/>
      <point x="640.9065656565657" y="853.2474747474747"/>
      <point x="699.0833333333334" y="797.0075757575758"/>
      <point x="699.0833333333334" y="682.0555555555555" type="curve" smooth="yes"/>
      <point x="699.0833333333334" y="607.1464646464647"/>
      <point x="667.6464646464647" y="551.5530303030304"/>
      <point x="605.280303030303" y="511.20959595959596" type="curve"/>
    </contour>
  </outline>
</glyph>
<glyph name="copyright" format="2">
  <advance width="1692.1363636363635"/>
  <unicode hex="00A9"/>
  <outline>
    <contour>
      <point x="846.0681818181818" y="-22.0" type="curve" smooth="yes"/>
      <point x="1292.9469696969697" y="-22.0"/>
      <point x="1590.9469696969697" y="282.0"/>
      <point x="1590.9469696969697" y="740.0" type="curve" smooth="yes"/>
      <point x="1590.9469696969697" y="1198.0"/>
      <point x="1292.9469696969697" y="1502.0"/>
      <point x="846.0681818181818" y="1502.0" type="curve" smooth="yes"/>
      <point x="399.18939393939394" y="1502.0"/>
      <point x="101.18939393939394" y="1198.0"/>
      <point x="101.18939393939394" y="740.0" type="curve" smooth="yes"/>
      <point x="101.18939393939394" y="282.0"/>
      <point x="399.18939393939394" y="-22.0"/>
    </contour>
    <contour>
      <point x="885.3409090909091" y="324.0" type="curve" smooth="yes"/>
      <point x="963.9267676767677" y="324.0"/>
      <point x="1035.9267676767677" y="336.0"/>
      <point x="1101.290404040404" y="364.24242424242425" type="curve"/>
      <point x="1101.290404040404" y="457.1919191919192" type="line"/>
      <point x="1019.8762626262626" y="427.24242424242425"/>
      <point x="952.2702020202021" y="417.82828282828285"/>
      <point x="894.5631313131313" y="417.82828282828285" type="curve" smooth="yes"/>
      <point x="710.8661616161617" y="417.82828282828285"/>
      <point x="597.6540404040404" y="519.6262626262627"/>
      <point x="597.6540404040404" y="737.1212121212121" type="curve" smooth="yes"/>
      <point x="597.6540404040404" y="949.7878787878788"/>
      <point x="709.9873737373738" y="1050.171717171717"/>
      <point x="915.0984848484849" y="1050.171717171717" type="curve" smooth="yes"/>
      <point x="983.0479797979798" y="1050.171717171717"/>
      <point x="1039.5833333333333" y="1040.7575757575758"/>
      <point x="1101.290404040404" y="1023.9292929292928" type="curve"/>
      <point x="1101.290404040404" y="1116.878787878788" type="line"/>
      <point x="1038.4621212121212" y="1136.0"/>
      <point x="978.1691919191919" y="1144.0"/>
      <point x="909.290404040404" y="1144.0" type="curve" smooth="yes"/>
      <point x="642.9469696969697" y="1144.0"/>
      <point x="492.260101010101" y="995.4141414141415"/>
      <point x="492.260101010101" y="733.7070707070707" type="curve" smooth="yes"/>
      <point x="492.260101010101" y="463.75757575757575"/>
      <point x="649.1893939393939" y="324.0"/>
    </contour>
    <contour>
      <point x="846.0681818181818" y="67.09090909090912" type="curve" smooth="yes"/>
      <point x="450.02777777777777" y="67.09090909090912"/>
      <point x="191.7449494949495" y="333.42424242424244"/>
      <point x="191.7449494949495" y="740.0" type="curve" smooth="yes"/>
      <point x="191.7449494949495" y="1146.5757575757575"/>
      <point x="450.02777777777777" y="1412.909090909091"/>
      <point x="846.0681818181818" y="1412.909090909091" type="curve" smooth="yes"/>
      <point x="1242.108585858586" y="1412.909090909091"/>
      <point x="1500.391414141414" y="1146.5757575757575"/>
      <point x="1500.391414141414" y="740.0" type="curve" smooth="yes"/>
      <point x="1500.391414141414" y="333.42424242424244"/>
      <point x="1242.108585858586" y="67.09090909090912"/>
    </contour>
  </outline>
</glyph>
<glyph name="ordfeminine" format="2">
  <advance width="792.2121212121212"/>
  <unicode hex="00AA"/>
  <outline>
    <contour>
      <point x="323.5328282828283" y="595.4141414141415" type="curve" smooth="yes"/>
      <point x="424.39646464646466" y="595.4141414141415"/>
      <point x="515.6262626262626" y="634.290404040404"/>
      <point x="572.989898989899" y="707.7297979797979" type="curve"/>
      <point x="580.5277777777777" y="707.7297979797979" type="line"/>
      <point x="589.6035353535353" y="610.0" type="line"/>
      <point x="682.439393939394" y="610.0" type="line"/>
      <point x="682.439393939394" y="1190.2424242424242" type="line" smooth="yes"/>
      <point x="682.439393939394" y="1418.0454545454545"/>
      <point x="573.0454545454546" y="1493.4646464646464"/>
      <point x="361.0909090909091" y="1493.4646464646464" type="curve" smooth="yes"/>
      <point x="283.00252525252523" y="1493.4646464646464"/>
      <point x="190.76767676767676" y="1479.7575757575758"/>
      <point x="119.66666666666666" y="1454.6969696969697" type="curve"/>
      <point x="119.66666666666666" y="1359.5732323232323" type="line"/>
      <point x="200.12878787878788" y="1386.2550505050506"/>
      <point x="280.64141414141415" y="1399.388888888889"/>
      <point x="346.45959595959596" y="1399.388888888889" type="curve" smooth="yes"/>
      <point x="497.6161616161616" y="1399.388888888889"/>
      <point x="573.4015151515151" y="1353.8787878787878"/>
      <point x="573.4015151515151" y="1198.9545454545455" type="curve" smooth="yes"/>
      <point x="573.4015151515151" y="799.2020202020202" type="line"/>
      <point x="511.96969696969694" y="716.3964646464647"/>
      <point x="427.76010101010104" y="685.1691919191919"/>
      <point x="352.4646464646465" y="685.1691919191919" type="curve" smooth="yes"/>
      <point x="238.5606060606061" y="685.1691919191919"/>
      <point x="177.34595959595964" y="739.2373737373738"/>
      <point x="177.34595959595964" y="844.4848484848485" type="curve" smooth="yes"/>
      <point x="177.34595959595964" y="942.9520202020202"/>
      <point x="238.62121212121215" y="996.739898989899"/>
      <point x="381.0353535353536" y="1010.6893939393939" type="curve" smooth="yes"/>
      <point x="619.9570707070707" y="1034.1742424242425" type="line"/>
      <point x="607.8661616161615" y="1111.3232323232323" type="line"/>
      <point x="372.62626262626264" y="1087.5454545454545" type="line" smooth="yes"/>
      <point x="157.5681818181818" y="1067.510101010101"/>
      <point x="65.99242424242424" y="981.89898989899"/>
      <point x="65.99242424242424" y="831.1868686868687" type="curve" smooth="yes"/>
      <point x="65.99242424242424" y="685.7954545454545"/>
      <point x="167.22474747474746" y="595.4141414141415"/>
    </contour>
  </outline>
</glyph>
<glyph name="guillemetleft" format="2">
  <advance width="864.169191919192"/>
  <unicode hex="00AB"/>
  <outline>
    <contour>
      <point x="332.94444444444446" y="138.53535353535352" type="line"/>
      <point x="452.86363636363643" y="138.53535353535352" type="line"/>
      <point x="230.71717171717177" y="561.4646464646464" type="line"/>
      <point x="452.86363636363643" y="984.3939393939394" type="line"/>
      <point x="332.94444444444446" y="984.3939393939394" type="line"/>
      <point x="110.79797979797979" y="561.4646464646464" type="line"/>
    </contour>
    <contour>
      <point x="673.4520202020202" y="138.53535353535352" type="line"/>
      <point x="793.3712121212122" y="138.53535353535352" type="line"/>
      <point x="571.2247474747476" y="561.4646464646464" type="line"/>
      <point x="793.3712121212122" y="984.3939393939394" type="line"/>
      <point x="673.4520202020202" y="984.3939393939394" type="line"/>
      <point x="451.3055555555556" y="561.4646464646464" type="line"/>
    </contour>
  </outline>
</glyph>
<glyph name="logicalnot" format="2">
  <advance width="1286.8535353535353"/>
  <unicode hex="00AC"/>
  <outline>
    <contour>
      <point x="1045.6590909090908" y="192.43939393939394" type="line"/>
      <point x="1151.0075757575758" y="192.43939393939394" type="line"/>
      <point x="1151.0075757575758" y="810.0151515151515" type="line"/>
      <point x="145.4671717171717" y="810.0151515151515" type="line"/>
      <point x="145.4671717171717" y="709.9848484848485" type="line"/>
      <point x="1045.6590909090908" y="709.9848484848485" type="line"/>
    </contour>
  </outline>
</glyph>
<glyph name="registered" format="2">
  <advance width="1493.641414141414"/>
  <unicode hex="00AE"/>
  <outline>
    <contour>
      <point x="746.820707070707" y="268.0" type="curve" smooth="yes"/>
      <point x="1108.8207070707072" y="268.0"/>
      <point x="1356.8207070707072" y="518.0"/>
      <point x="1356.8207070707072" y="882.0" type="curve" smooth="yes"/>
      <point x="1356.8207070707072" y="1246.0"/>
      <point x="1108.8207070707072" y="1498.0"/>
      <point x="746.820707070707" y="1498.0" type="curve" smooth="yes"/>
      <point x="384.82070707070704" y="1498.0"/>
      <point x="136.82070707070704" y="1246.0"/>
      <point x="136.82070707070704" y="882.0" type="curve" smooth="yes"/>
      <point x="136.82070707070704" y="518.0"/>
      <point x="384.82070707070704" y="268.0"/>
    </contour>
    <contour>
      <point x="914.2752525252525" y="600.0" type="line"/>
      <point x="1005.8005050505051" y="600.0" type="line"/>
      <point x="833.3156565656566" y="854.1414141414141" type="line"/>
      <point x="758.0833333333333" y="828.1414141414141" type="line"/>
    </contour>
    <contour>
      <point x="746.820707070707" y="347.1818181818182" type="curve" smooth="yes"/>
      <point x="427.60858585858585" y="347.1818181818182"/>
      <point x="219.4671717171717" y="557.9090909090909"/>
      <point x="219.4671717171717" y="882.0" type="curve" smooth="yes"/>
      <point x="219.4671717171717" y="1206.3838383838383"/>
      <point x="427.60858585858585" y="1418.8181818181818"/>
      <point x="746.820707070707" y="1418.8181818181818" type="curve" smooth="yes"/>
      <point x="1066.0328282828282" y="1418.8181818181818"/>
      <point x="1274.1742424242425" y="1206.3838383838383"/>
      <point x="1274.1742424242425" y="882.0" type="curve" smooth="yes"/>
      <point x="1274.1742424242425" y="557.9090909090909"/>
      <point x="1066.0328282828282" y="347.1818181818182"/>
    </contour>
    <contour>
      <point x="536.770202020202" y="600.0" type="line"/>
      <point x="617.4166666666666" y="600.0" type="line"/>
      <point x="618.2954545454545" y="820.1414141414141" type="line"/>
      <point x="733.6994949494949" y="820.1414141414141" type="line" smooth="yes"/>
      <point x="898.3358585858585" y="820.1414141414141"/>
      <point x="980.6287878787879" y="885.8484848484849"/>
      <point x="980.6287878787879" y="1005.070707070707" type="curve" smooth="yes"/>
      <point x="980.6287878787879" y="1124.2929292929293"/>
      <point x="896.3358585858585" y="1192.0"/>
      <point x="733.6994949494949" y="1192.0" type="curve" smooth="yes"/>
      <point x="536.770202020202" y="1192.0" type="line"/>
    </contour>
    <contour>
      <point x="618.2954545454545" y="892.3939393939394" type="line"/>
      <point x="618.2954545454545" y="1119.7474747474748" type="line"/>
      <point x="747.75" y="1119.7474747474748" type="line" smooth="yes"/>
      <point x="850.3762626262626" y="1119.7474747474748"/>
      <point x="900.5681818181818" y="1082.090909090909"/>
      <point x="900.5681818181818" y="1005.070707070707" type="curve" smooth="yes"/>
      <point x="900.5681818181818" y="928.0505050505051"/>
      <point x="852.3762626262626" y="892.3939393939394"/>
      <point x="747.75" y="892.3939393939394" type="curve" smooth="yes"/>
    </contour>
  </outline>
</glyph>
<glyph name="macron" format="2">
  <advance width="943.939393939394"/>
  <unicode hex="00AF"/>
  <anchor x="471.969696969697" y="1200.0" name="_top"/>
  <anchor x="471.969696969697" y="1564.7878787878788" name="top"/>
  <outline>
    <contour>
      <point x="190.16414141414143" y="1379.5732323232323" type="line"/>
      <point x="753.7752525252525" y="1379.5732323232323" type="line"/>
      <point x="753.7752525252525" y="1465.6818181818182" type="line"/>
      <point x="190.16414141414143" y="1465.6818181818182" type="line"/>
    </contour>
  </outline>
</glyph>
<glyph name="degree" format="2">
  <advance width="946.3888888888889"/>
  <unicode hex="00B0"/>
  <outline>
    <contour>
      <point x="473.19444444444446" y="825.8888888888889" type="curve" smooth="yes"/>
      <point x="669.1742424242424" y="825.8888888888889"/>
      <point x="809.5681818181819" y="967.4040404040404"/>
      <point x="809.5681818181819" y="1161.3838383838383" type="curve" smooth="yes"/>
      <point x="809.5681818181819" y="1355.3636363636363"/>
      <point x="669.1742424242424" y="1496.5858585858587"/>
      <point x="473.19444444444446" y="1496.5858585858587" type="curve" smooth="yes"/>
      <point x="277.2146464646465" y="1496.5858585858587"/>
      <point x="136.82070707070704" y="1355.3636363636363"/>
      <point x="136.82070707070704" y="1161.3838383838383" type="curve" smooth="yes"/>
      <point x="136.82070707070704" y="967.4040404040404"/>
      <point x="277.2146464646465" y="825.8888888888889"/>
    </contour>
    <contour>
      <point x="473.19444444444446" y="914.4217171717172" type="curve" smooth="yes"/>
      <point x="331.9469696969697" y="914.4217171717172"/>
      <point x="230.68434343434345" y="1009.9772727272727"/>
      <point x="230.68434343434345" y="1161.3838383838383" type="curve" smooth="yes"/>
      <point x="230.68434343434345" y="1312.8636363636363"/>
      <point x="332.239898989899" y="1408.0530303030303"/>
      <point x="473.19444444444446" y="1408.0530303030303" type="curve" smooth="yes"/>
      <point x="614.1489898989898" y="1408.0530303030303"/>
      <point x="715.7045454545454" y="1312.8636363636363"/>
      <point x="715.7045454545454" y="1161.3838383838383" type="curve" smooth="yes"/>
      <point x="715.7045454545454" y="1009.9772727272727"/>
      <point x="614.4419191919192" y="914.4217171717172"/>
    </contour>
  </outline>
</glyph>
<glyph name="plusminus" format="2">
  <advance width="1044.419191919192"/>
  <unicode hex="00B1"/>
  <outline>
    <contour>
      <point x="469.5353535353535" y="327.13131313131316" type="line"/>
      <point x="574.8838383838385" y="327.13131313131316" type="line"/>
      <point x="574.8838383838385" y="667.4646464646464" type="line"/>
      <point x="898.9520202020202" y="667.4646464646464" type="line"/>
      <point x="898.9520202020202" y="767.4949494949495" type="line"/>
      <point x="574.8838383838385" y="767.4949494949495" type="line"/>
      <point x="574.8838383838385" y="1107.828282828283" type="line"/>
      <point x="469.5353535353535" y="1107.828282828283" type="line"/>
      <point x="469.5353535353535" y="767.4949494949495" type="line"/>
      <point x="145.4671717171717" y="767.4949494949495" type="line"/>
      <point x="145.4671717171717" y="667.4646464646464" type="line"/>
      <point x="469.5353535353535" y="667.4646464646464" type="line"/>
    </contour>
    <contour>
      <point x="145.4671717171717" y="0.21969696969697" type="line"/>
      <point x="898.9520202020202" y="0.21969696969697" type="line"/>
      <point x="898.9520202020202" y="100.25000000000006" type="line"/>
      <point x="145.4671717171717" y="100.25000000000006" type="line"/>
    </contour>
  </outline>
</glyph>
<glyph name="twosuperior" format="2">
  <advance width="735.8106060606061"/>
  <unicode hex="00B2"/>
  <outline>
    <contour>
      <point x="91.0959595959596" y="-136.0" type="line"/>
      <point x="638.2777777777778" y="-136.0" type="line"/>
      <point x="638.2777777777778" y="-44.92676767676764" type="line"/>
      <point x="195.80303030303037" y="-44.92676767676764" type="line"/>
      <point x="206.55808080808086" y="-73.40909090909088" type="line"/>
      <point x="452.46212121212125" y="270.0833333333333" type="line" smooth="yes"/>
      <point x="558.2045454545455" y="416.6641414141414"/>
      <point x="599.1919191919193" y="510.17676767676767"/>
      <point x="600.4722222222223" y="613.7247474747475" type="curve" smooth="yes"/>
      <point x="601.7525252525253" y="798.8762626262626"/>
      <point x="486.6010101010101" y="876.2929292929293"/>
      <point x="296.12626262626264" y="876.2929292929293" type="curve" smooth="yes"/>
      <point x="215.2348484848485" y="876.2929292929293"/>
      <point x="135.56060606060606" y="863.5732323232323"/>
      <point x="78.87626262626263" y="839.5126262626262" type="curve"/>
      <point x="78.87626262626263" y="748.270202020202" type="line"/>
      <point x="141.3510101010101" y="773.8914141414141"/>
      <point x="208.98737373737373" y="786.7575757575758"/>
      <point x="285.5959595959596" y="786.7575757575758" type="curve" smooth="yes"/>
      <point x="424.800505050505" y="786.7575757575758"/>
      <point x="498.00252525252523" y="735.6868686868687"/>
      <point x="498.00252525252523" y="606.770202020202" type="curve" smooth="yes"/>
      <point x="498.00252525252523" y="521.7020202020202"/>
      <point x="459.04040404040404" y="439.510101010101"/>
      <point x="367.18939393939394" y="311.38131313131316" type="curve" smooth="yes"/>
      <point x="91.0959595959596" y="-77.6792929292929" type="line"/>
    </contour>
  </outline>
</glyph>
<glyph name="acute" format="2">
  <advance width="943.939393939394"/>
  <unicode hex="00B4"/>
  <anchor x="471.969696969697" y="1200.0" name="_top"/>
  <anchor x="471.969696969697" y="1570.6464646464647" name="top"/>
  <outline>
    <contour>
      <point x="419.85353535353534" y="1257.5555555555557" type="line"/>
      <point x="524.0858585858587" y="1257.5555555555557" type="line"/>
      <point x="729.3156565656566" y="1616.0" type="line"/>
      <point x="604.0782828282828" y="1616.0" type="line"/>
    </contour>
  </outline>
</glyph>
<glyph name="micro" format="2">
  <advance width="1025.1565656565656"/>
  <unicode hex="00B5"/>
  <outline>
    <contour>
      <point x="462.74242424242425" y="-18.21969696969697" type="curve" smooth="yes"/>
      <point x="572.2979797979798" y="-18.21969696969697"/>
      <point x="679.3030303030303" y="26.987373737373737"/>
      <point x="759.7373737373737" y="119.94949494949495" type="curve"/>
      <point x="768.9090909090909" y="119.94949494949495" type="line"/>
      <point x="778.1313131313132" y="0.0" type="line"/>
      <point x="878.3358585858587" y="0.0" type="line"/>
      <point x="878.3358585858587" y="1082.9292929292928" type="line"/>
      <point x="760.9040404040404" y="1082.9292929292928" type="line"/>
      <point x="760.9040404040404" y="247.98232323232327" type="line"/>
      <point x="686.6060606060606" y="132.1414141414142"/>
      <point x="562.0075757575758" y="89.7424242424243"/>
      <point x="470.08838383838383" y="89.7424242424243" type="curve" smooth="yes"/>
      <point x="342.1237373737374" y="89.7424242424243"/>
      <point x="253.27777777777783" y="151.31060606060612"/>
      <point x="253.27777777777783" y="339.30808080808083" type="curve" smooth="yes"/>
      <point x="253.27777777777783" y="499.419191919192" type="line"/>
      <point x="185.94444444444446" y="499.419191919192" type="line"/>
      <point x="185.94444444444446" y="336.5353535353536" type="line" smooth="yes"/>
      <point x="185.94444444444446" y="70.83333333333334"/>
      <point x="294.1136363636364" y="-18.21969696969697"/>
    </contour>
    <contour>
      <point x="135.84595959595958" y="-440.0" type="line"/>
      <point x="253.27777777777783" y="-440.0" type="line"/>
      <point x="253.27777777777783" y="1082.8560606060605" type="line"/>
      <point x="135.84595959595958" y="1082.8560606060605" type="line"/>
    </contour>
  </outline>
</glyph>
<glyph name="paragraph" format="2">
  <advance width="1144.8510101010102"/>
  <unicode hex="00B6"/>
  <outline>
    <contour>
      <point x="652.5656565656566" y="0.0" type="line"/>
      <point x="751.689393939394" y="0.0" type="line"/>
      <point x="751.689393939394" y="1480.0" type="line"/>
      <point x="678.6035353535353" y="1488.659090909091"/>
      <point x="594.6136363636364" y="1494.878787878788"/>
      <point x="507.02777777777777" y="1494.878787878788" type="curve" smooth="yes"/>
      <point x="230.0681818181818" y="1494.878787878788"/>
      <point x="89.42171717171716" y="1339.8156565656566"/>
      <point x="89.42171717171716" y="996.7121212121212" type="curve" smooth="yes"/>
      <point x="89.42171717171716" y="672.8282828282828"/>
      <point x="225.6540404040404" y="499.61868686868684"/>
      <point x="525.6237373737374" y="499.61868686868684" type="curve" smooth="yes"/>
      <point x="572.2424242424242" y="499.61868686868684"/>
      <point x="608.3737373737373" y="501.82575757575756"/>
      <point x="652.5656565656566" y="506.52020202020196" type="curve"/>
    </contour>
    <contour>
      <point x="880.2247474747475" y="0.0" type="line"/>
      <point x="979.3484848484849" y="0.0" type="line"/>
      <point x="979.3484848484849" y="1480.0" type="line"/>
      <point x="880.2247474747475" y="1480.0" type="line"/>
    </contour>
  </outline>
</glyph>
<glyph name="periodcentered" format="2">
  <advance width="412.14646464646466"/>
  <unicode hex="00B7"/>
  <anchor x="206.07323232323233" y="560.0" name="_periodcentered"/>
  <outline>
    <contour>
      <point x="206.07323232323233" y="469.41666666666663" type="curve" smooth="yes"/>
      <point x="259.2828282828283" y="469.41666666666663"/>
      <point x="296.63383838383845" y="504.1818181818182"/>
      <point x="296.63383838383845" y="558.2929292929293" type="curve" smooth="yes"/>
      <point x="296.63383838383845" y="612.4040404040404"/>
      <point x="259.8686868686869" y="648.8762626262627"/>
      <point x="206.07323232323233" y="648.8762626262627" type="curve" smooth="yes"/>
      <point x="152.27777777777777" y="648.8762626262627"/>
      <point x="115.51262626262624" y="612.989898989899"/>
      <point x="115.51262626262624" y="558.2929292929293" type="curve" smooth="yes"/>
      <point x="115.51262626262624" y="503.5959595959596"/>
      <point x="152.86363636363637" y="469.41666666666663"/>
    </contour>
  </outline>
</glyph>
<glyph name="onesuperior" format="2">
  <advance width="735.8106060606061"/>
  <unicode hex="00B9"/>
  <outline>
    <contour>
      <point x="357.7853535353535" y="-115.26767676767676" type="line"/>
      <point x="459.0606060606061" y="-115.26767676767676" type="line"/>
      <point x="459.0606060606061" y="868.0" type="line"/>
      <point x="395.8333333333333" y="868.0" type="line"/>
      <point x="135.85353535353536" y="678.0631313131313" type="line"/>
      <point x="135.85353535353536" y="576.8181818181818" type="line"/>
      <point x="395.8333333333333" y="766.7550505050505" type="line"/>
      <point x="357.7853535353535" y="789.510101010101" type="line"/>
    </contour>
    <contour>
      <point x="140.7171717171717" y="-136.0" type="line"/>
      <point x="665.3484848484849" y="-136.0" type="line"/>
      <point x="665.3484848484849" y="-44.92676767676764" type="line"/>
      <point x="140.7171717171717" y="-44.92676767676764" type="line"/>
    </contour>
  </outline>
</glyph>
<glyph name="ordmasculine" format="2">
  <advance width="853.9191919191919"/>
  <unicode hex="00BA"/>
  <outline>
    <contour>
      <point x="427.0328282828283" y="595.4141414141415" type="curve" smooth="yes"/>
      <point x="641.8863636363636" y="595.4141414141415"/>
      <point x="782.2676767676768" y="729.9318181818182"/>
      <point x="782.2676767676768" y="1045.9267676767677" type="curve" smooth="yes"/>
      <point x="782.2676767676768" y="1361.921717171717"/>
      <point x="641.8863636363636" y="1493.4646464646464"/>
      <point x="427.0328282828283" y="1493.4646464646464" type="curve" smooth="yes"/>
      <point x="212.17929292929293" y="1493.4646464646464"/>
      <point x="71.65151515151514" y="1363.020202020202"/>
      <point x="71.65151515151514" y="1045.9267676767677" type="curve" smooth="yes"/>
      <point x="71.65151515151514" y="728.8333333333334"/>
      <point x="212.17929292929293" y="595.4141414141415"/>
    </contour>
    <contour>
      <point x="427.0328282828283" y="688.159090909091" type="curve" smooth="yes"/>
      <point x="280.08333333333337" y="688.159090909091"/>
      <point x="184.61616161616166" y="772.1388888888889"/>
      <point x="184.61616161616166" y="1045.9267676767677" type="curve" smooth="yes"/>
      <point x="184.61616161616166" y="1319.9343434343434"/>
      <point x="280.08333333333337" y="1400.719696969697"/>
      <point x="427.0328282828283" y="1400.719696969697" type="curve" smooth="yes"/>
      <point x="574.1287878787879" y="1400.719696969697"/>
      <point x="669.3030303030303" y="1319.9343434343434"/>
      <point x="669.3030303030303" y="1045.9267676767677" type="curve" smooth="yes"/>
      <point x="669.3030303030303" y="772.1388888888889"/>
      <point x="574.1287878787879" y="688.159090909091"/>
    </contour>
  </outline>
</glyph>
<glyph name="guillemetright" format="2">
  <advance width="864.169191919192"/>
  <unicode hex="00BB"/>
  <outline>
    <contour>
      <point x="70.79797979797979" y="138.53535353535352" type="line"/>
      <point x="190.71717171717177" y="138.53535353535352" type="line"/>
      <point x="412.86363636363643" y="561.4646464646464" type="line"/>
      <point x="190.71717171717177" y="984.3939393939394" type="line"/>
      <point x="70.79797979797979" y="984.3939393939394" type="line"/>
      <point x="292.94444444444446" y="561.4646464646464" type="line"/>
    </contour>
    <contour>
      <point x="411.3055555555556" y="138.53535353535352" type="line"/>
      <point x="531.2247474747476" y="138.53535353535352" type="line"/>
      <point x="753.3712121212122" y="561.4646464646464" type="line"/>
      <point x="531.2247474747476" y="984.3939393939394" type="line"/>
      <point x="411.3055555555556" y="984.3939393939394" type="line"/>
      <point x="633.4520202020202" y="561.4646464646464" type="line"/>
    </contour>
  </outline>
</glyph>
<glyph name="onequarter" format="2">
  <advance width="1702.2171717171718"/>
  <unicode hex="00BC"/>
  <outline>
    <contour>
      <point x="357.7853535353535" y="636.7323232323232" type="line"/>
      <point x="459.0606060606061" y="636.7323232323232" type="line"/>
      <point x="459.0606060606061" y="1620.0" type="line"/>
      <point x="395.8333333333333" y="1620.0" type="line"/>
      <point x="135.85353535353536" y="1430.0631313131314" type="line"/>
      <point x="135.85353535353536" y="1328.8181818181818" type="line"/>
      <point x="395.8333333333333" y="1518.7550505050503" type="line"/>
      <point x="357.7853535353535" y="1541.510101010101" type="line"/>
    </contour>
    <contour>
      <point x="140.7171717171717" y="616.0" type="line"/>
      <point x="665.3484848484849" y="616.0" type="line"/>
      <point x="665.3484848484849" y="707.0732323232323" type="line"/>
      <point x="140.7171717171717" y="707.0732323232323" type="line"/>
    </contour>
    <contour>
      <point x="420.9873737373738" y="-136.0" type="line"/>
      <point x="526.0202020202021" y="-136.0" type="line"/>
      <point x="1281.2297979797981" y="1616.0" type="line"/>
      <point x="1176.1969696969697" y="1616.0" type="line"/>
    </contour>
    <contour>
      <point x="998.368686868687" y="105.23484848484847" type="line"/>
      <point x="1674.7424242424242" y="105.23484848484847" type="line"/>
      <point x="1674.7424242424242" y="190.86616161616163" type="line"/>
      <point x="1084.0050505050506" y="190.86616161616163" type="line"/>
      <point x="1100.348484848485" y="163.9949494949495" type="line"/>
      <point x="1452.287878787879" y="864.0" type="line"/>
      <point x="1351.1868686868688" y="864.0" type="line"/>
      <point x="998.368686868687" y="164.42171717171718" type="line"/>
    </contour>
    <contour>
      <point x="1447.159090909091" y="-136.0" type="line"/>
      <point x="1540.3560606060607" y="-136.0" type="line"/>
      <point x="1540.3560606060607" y="526.0" type="line"/>
      <point x="1466.7020202020203" y="526.0" type="line"/>
      <point x="1447.159090909091" y="190.86616161616163" type="line"/>
    </contour>
  </outline>
</glyph>
<glyph name="onehalf" format="2">
  <advance width="1702.2171717171718"/>
  <unicode hex="00BD"/>
  <outline>
    <contour>
      <point x="357.7853535353535" y="636.7323232323232" type="line"/>
      <point x="459.0606060606061" y="636.7323232323232" type="line"/>
      <point x="459.0606060606061" y="1620.0" type="line"/>
      <point x="395.8333333333333" y="1620.0" type="line"/>
      <point x="135.85353535353536" y="1430.0631313131314" type="line"/>
      <point x="135.85353535353536" y="1328.8181818181818" type="line"/>
      <point x="395.8333333333333" y="1518.7550505050503" type="line"/>
      <point x="357.7853535353535" y="1541.510101010101" type="line"/>
    </contour>
    <contour>
      <point x="140.7171717171717" y="616.0" type="line"/>
      <point x="665.3484848484849" y="616.0" type="line"/>
      <point x="665.3484848484849" y="707.0732323232323" type="line"/>
      <point x="140.7171717171717" y="707.0732323232323" type="line"/>
    </contour>
    <contour>
      <point x="420.9873737373738" y="-136.0" type="line"/>
      <point x="526.0202020202021" y="-136.0" type="line"/>
      <point x="1281.2297979797981" y="1616.0" type="line"/>
      <point x="1176.1969696969697" y="1616.0" type="line"/>
    </contour>
    <contour>
      <point x="1057.5025252525254" y="-136.0" type="line"/>
      <point x="1604.6843434343436" y="-136.0" type="line"/>
      <point x="1604.6843434343436" y="-44.92676767676764" type="line"/>
      <point x="1162.209595959596" y="-44.92676767676764" type="line"/>
      <point x="1172.9646464646466" y="-73.40909090909088" type="line"/>
      <point x="1418.8686868686868" y="270.0833333333333" type="line" smooth="yes"/>
      <point x="1524.6111111111113" y="416.6641414141414"/>
      <point x="1565.598484848485" y="510.17676767676767"/>
      <point x="1566.878787878788" y="613.7247474747475" type="curve" smooth="yes"/>
      <point x="1568.159090909091" y="798.8762626262626"/>
      <point x="1453.007575757576" y="876.2929292929293"/>
      <point x="1262.5328282828284" y="876.2929292929293" type="curve" smooth="yes"/>
      <point x="1181.6414141414143" y="876.2929292929293"/>
      <point x="1101.9671717171718" y="863.5732323232323"/>
      <point x="1045.2828282828284" y="839.5126262626262" type="curve"/>
      <point x="1045.2828282828284" y="748.270202020202" type="line"/>
      <point x="1107.7575757575758" y="773.8914141414141"/>
      <point x="1175.3939393939395" y="786.7575757575758"/>
      <point x="1252.0025252525254" y="786.7575757575758" type="curve" smooth="yes"/>
      <point x="1391.2070707070707" y="786.7575757575758"/>
      <point x="1464.409090909091" y="735.6868686868687"/>
      <point x="1464.409090909091" y="606.770202020202" type="curve" smooth="yes"/>
      <point x="1464.409090909091" y="521.7020202020202"/>
      <point x="1425.4469696969697" y="439.510101010101"/>
      <point x="1333.5959595959596" y="311.38131313131316" type="curve" smooth="yes"/>
      <point x="1057.5025252525254" y="-77.6792929292929" type="line"/>
    </contour>
  </outline>
</glyph>
<glyph name="threequarters" format="2">
  <advance width="1702.2171717171718"/>
  <unicode hex="00BE"/>
  <outline>
    <contour>
      <point x="304.76010101010104" y="603.7070707070707" type="curve" smooth="yes"/>
      <point x="527.1969696969697" y="603.7070707070707"/>
      <point x="652.8838383838385" y="704.2449494949495"/>
      <point x="652.8838383838385" y="882.429292929293" type="curve" smooth="yes"/>
      <point x="652.8838383838385" y="1027.439393939394"/>
      <point x="564.679292929293" y="1120.5353535353536"/>
      <point x="400.24494949494954" y="1142.9621212121212" type="curve"/>
      <point x="400.24494949494954" y="1128.6338383838383" type="line"/>
      <point x="537.89898989899" y="1157.7550505050506"/>
      <point x="620.25" y="1248.729797979798"/>
      <point x="620.25" y="1376.8989898989898" type="curve" smooth="yes"/>
      <point x="620.25" y="1538.5353535353536"/>
      <point x="511.70959595959596" y="1628.2929292929293"/>
      <point x="310.4191919191919" y="1628.2929292929293" type="curve" smooth="yes"/>
      <point x="234.22222222222223" y="1628.2929292929293"/>
      <point x="150.12121212121212" y="1615.8535353535353"/>
      <point x="93.08333333333333" y="1592.3661616161617" type="curve"/>
      <point x="93.08333333333333" y="1503.6868686868686" type="line"/>
      <point x="159.20454545454544" y="1530.1010101010102"/>
      <point x="229.35353535353536" y="1541.8939393939393"/>
      <point x="301.9141414141414" y="1541.8939393939393" type="curve" smooth="yes"/>
      <point x="447.17676767676767" y="1541.8939393939393"/>
      <point x="521.2449494949494" y="1484.1666666666667"/>
      <point x="521.2449494949494" y="1369.858585858586" type="curve" smooth="yes"/>
      <point x="521.2449494949494" y="1247.3939393939395"/>
      <point x="428.510101010101" y="1173.510101010101"/>
      <point x="250.52272727272728" y="1173.510101010101" type="curve" smooth="yes"/>
      <point x="190.55555555555554" y="1173.510101010101" type="line"/>
      <point x="190.55555555555554" y="1085.0984848484848" type="line"/>
      <point x="298.21212121212125" y="1085.0984848484848" type="line" smooth="yes"/>
      <point x="474.77525252525254" y="1085.0984848484848"/>
      <point x="554.2449494949494" y="1010.3737373737374"/>
      <point x="554.2449494949494" y="887.7853535353536" type="curve" smooth="yes"/>
      <point x="554.2449494949494" y="757.0883838383838"/>
      <point x="465.020202020202" y="690.179292929293"/>
      <point x="301.7828282828283" y="690.179292929293" type="curve" smooth="yes"/>
      <point x="229.13636363636363" y="690.179292929293"/>
      <point x="147.07323232323233" y="702.459595959596"/>
      <point x="72.48737373737373" y="728.7878787878789" type="curve"/>
      <point x="72.48737373737373" y="640.1085858585859" type="line"/>
      <point x="143.53787878787878" y="615.9141414141415"/>
      <point x="223.01515151515153" y="603.7070707070707"/>
    </contour>
    <contour>
      <point x="420.9873737373738" y="-136.0" type="line"/>
      <point x="526.0202020202021" y="-136.0" type="line"/>
      <point x="1281.2297979797981" y="1616.0" type="line"/>
      <point x="1176.1969696969697" y="1616.0" type="line"/>
    </contour>
    <contour>
      <point x="998.368686868687" y="105.23484848484847" type="line"/>
      <point x="1674.7424242424242" y="105.23484848484847" type="line"/>
      <point x="1674.7424242424242" y="190.86616161616163" type="line"/>
      <point x="1084.0050505050506" y="190.86616161616163" type="line"/>
      <point x="1100.348484848485" y="163.9949494949495" type="line"/>
      <point x="1452.287878787879" y="864.0" type="line"/>
      <point x="1351.1868686868688" y="864.0" type="line"/>
      <point x="998.368686868687" y="164.42171717171718" type="line"/>
    </contour>
    <contour>
      <point x="1447.159090909091" y="-136.0" type="line"/>
      <point x="1540.3560606060607" y="-136.0" type="line"/>
      <point x="1540.3560606060607" y="526.0" type="line"/>
      <point x="1466.7020202020203" y="526.0" type="line"/>
      <point x="1447.159090909091" y="190.86616161616163" type="line"/>
    </contour>
  </outline>
</glyph>
<glyph name="questiondown" format="2">
  <advance width="832.0580808080808"/>
  <unicode hex="00BF"/>
  <outline>
    <contour>
      <point x="502.86616161616166" y="748.9494949494949" type="line"/>
      <point x="425.7929292929293" y="748.9494949494949" type="line"/>
      <point x="412.9368686868687" y="394.30808080808083" type="line"/>
      <point x="152.61363636363637" y="285.3030303030303"/>
      <point x="58.41161616161616" y="158.97222222222223"/>
      <point x="58.41161616161616" y="-40.37121212121211" type="curve" smooth="yes"/>
      <point x="58.41161616161616" y="-267.3030303030303"/>
      <point x="209.06313131313132" y="-400.0"/>
      <point x="488.4545454545455" y="-400.0" type="curve" smooth="yes"/>
      <point x="595.7373737373738" y="-400.0"/>
      <point x="711.6691919191919" y="-380.2070707070707"/>
      <point x="793.5732323232323" y="-346.219696969697" type="curve"/>
      <point x="793.5732323232323" y="-241.96969696969694" type="line"/>
      <point x="698.4520202020202" y="-279.51767676767673"/>
      <point x="601.1439393939394" y="-297.310606060606"/>
      <point x="496.79040404040404" y="-297.310606060606" type="curve" smooth="yes"/>
      <point x="284.2373737373738" y="-297.310606060606"/>
      <point x="175.79292929292936" y="-205.5126262626262"/>
      <point x="175.79292929292936" y="-35.073232323232304" type="curve" smooth="yes"/>
      <point x="175.79292929292936" y="130.43939393939394"/>
      <point x="261.4116161616162" y="237.37121212121212"/>
      <point x="523.2878787878789" y="329.79040404040404" type="curve"/>
    </contour>
    <contour>
      <point x="464.29292929292933" y="1094.3939393939395" type="curve" smooth="yes"/>
      <point x="409.37626262626264" y="1094.3939393939395"/>
      <point x="373.7323232323232" y="1058.2146464646464"/>
      <point x="373.7323232323232" y="1006.9090909090909" type="curve" smooth="yes"/>
      <point x="373.7323232323232" y="953.8964646464646"/>
      <point x="410.49747474747477" y="917.7171717171717"/>
      <point x="464.29292929292933" y="917.7171717171717" type="curve" smooth="yes"/>
      <point x="518.0883838383838" y="917.7171717171717"/>
      <point x="554.8535353535354" y="953.310606060606"/>
      <point x="554.8535353535354" y="1006.9090909090909" type="curve" smooth="yes"/>
      <point x="554.8535353535354" y="1058.800505050505"/>
      <point x="517.5025252525253" y="1094.3939393939395"/>
    </contour>
  </outline>
</glyph>
<glyph name="Aacute" format="2">
  <advance width="1238.3181818181818"/>
  <unicode hex="00C1"/>
  <anchor x="619.939393939394" y="1520.0" name="_top"/>
  <anchor x="620.0126262626263" y="0.0" name="bottom"/>
  <anchor x="1211.7247474747476" y="0.0" name="ogonek"/>
  <anchor x="619.939393939394" y="1520.0" name="top"/>
  <outline>
    <contour>
      <point x="26.593434343434335" y="0.0" type="line"/>
      <point x="147.06060606060612" y="0.0" type="line"/>
      <point x="630.7449494949495" y="1419.5681818181818" type="line"/>
      <point x="604.8409090909091" y="1419.5681818181818" type="line"/>
      <point x="1088.9646464646464" y="0.0" type="line"/>
      <point x="1211.7247474747476" y="0.0" type="line"/>
      <point x="700.7525252525253" y="1480.0" type="line"/>
      <point x="537.5656565656566" y="1480.0" type="line"/>
    </contour>
    <contour>
      <point x="271.5176767676768" y="500.6843434343434" type="line"/>
      <point x="966.4343434343434" y="500.6843434343434" type="line"/>
      <point x="937.5" y="606.0833333333334" type="line"/>
      <point x="300.52525252525254" y="606.0833333333334" type="line"/>
    </contour>
    <contour>
      <point x="567.6035353535353" y="1611.6060606060605" type="line"/>
      <point x="671.9823232323233" y="1611.6060606060605" type="line"/>
      <point x="848.429292929293" y="1890.050505050505" type="line"/>
      <point x="722.179292929293" y="1890.050505050505" type="line"/>
    </contour>
  </outline>
</glyph>
<glyph name="Atilde" format="2">
  <advance width="1238.3181818181818"/>
  <unicode hex="00C3"/>
  <anchor x="619.939393939394" y="1520.0" name="_top"/>
  <anchor x="620.0126262626263" y="0.0" name="bottom"/>
  <anchor x="1211.7247474747476" y="0.0" name="ogonek"/>
  <anchor x="619.939393939394" y="1520.0" name="top"/>
  <outline>
    <contour>
      <point x="26.593434343434335" y="0.0" type="line"/>
      <point x="147.06060606060612" y="0.0" type="line"/>
      <point x="630.7449494949495" y="1419.5681818181818" type="line"/>
      <point x="604.8409090909091" y="1419.5681818181818" type="line"/>
      <point x="1088.9646464646464" y="0.0" type="line"/>
      <point x="1211.7247474747476" y="0.0" type="line"/>
      <point x="700.7525252525253" y="1480.0" type="line"/>
      <point x="537.5656565656566" y="1480.0" type="line"/>
    </contour>
    <contour>
      <point x="271.5176767676768" y="500.6843434343434" type="line"/>
      <point x="966.4343434343434" y="500.6843434343434" type="line"/>
      <point x="937.5" y="606.0833333333334" type="line"/>
      <point x="300.52525252525254" y="606.0833333333334" type="line"/>
    </contour>
    <contour>
      <point x="761.9444444444445" y="1680.3156565656566" type="curve" smooth="yes"/>
      <point x="830.2045454545455" y="1680.3156565656566"/>
      <point x="880.8282828282829" y="1703.169191919192"/>
      <point x="916.9166666666667" y="1743.8661616161617" type="curve"/>
      <point x="916.9166666666667" y="1834.8257575757575" type="line"/>
      <point x="872.7550505050506" y="1786.7525252525252"/>
      <point x="827.5580808080808" y="1763.1060606060605"/>
      <point x="762.8232323232323" y="1763.1060606060605" type="curve" smooth="yes"/>
      <point x="670.7702020202021" y="1763.1060606060605"/>
      <point x="589.4267676767677" y="1840.5454545454545"/>
      <point x="477.9343434343434" y="1840.5454545454545" type="curve" smooth="yes"/>
      <point x="409.67424242424244" y="1840.5454545454545"/>
      <point x="359.0505050505051" y="1817.3989898989898"/>
      <point x="322.9621212121212" y="1776.7020202020203" type="curve"/>
      <point x="322.9621212121212" y="1685.7424242424242" type="line"/>
      <point x="367.12373737373736" y="1733.8156565656566"/>
      <point x="412.3207070707071" y="1757.4621212121212"/>
      <point x="477.05555555555554" y="1757.4621212121212" type="curve" smooth="yes"/>
      <point x="569.1085858585859" y="1757.4621212121212"/>
      <point x="650.4520202020202" y="1680.3156565656566"/>
    </contour>
  </outline>
</glyph>
<glyph name="Adieresis" format="2">
  <advance width="1238.3181818181818"/>
  <unicode hex="00C4"/>
  <anchor x="619.939393939394" y="1520.0" name="_top"/>
  <anchor x="620.0126262626263" y="0.0" name="bottom"/>
  <anchor x="1211.7247474747476" y="0.0" name="ogonek"/>
  <anchor x="619.939393939394" y="1520.0" name="top"/>
  <outline>
    <contour>
      <point x="26.593434343434335" y="0.0" type="line"/>
      <point x="147.06060606060612" y="0.0" type="line"/>
      <point x="630.7449494949495" y="1419.5681818181818" type="line"/>
      <point x="604.8409090909091" y="1419.5681818181818" type="line"/>
      <point x="1088.9646464646464" y="0.0" type="line"/>
      <point x="1211.7247474747476" y="0.0" type="line"/>
      <point x="700.7525252525253" y="1480.0" type="line"/>
      <point x="537.5656565656566" y="1480.0" type="line"/>
    </contour>
    <contour>
      <point x="271.5176767676768" y="500.6843434343434" type="line"/>
      <point x="966.4343434343434" y="500.6843434343434" type="line"/>
      <point x="937.5" y="606.0833333333334" type="line"/>
      <point x="300.52525252525254" y="606.0833333333334" type="line"/>
    </contour>
    <contour>
      <point x="828.9469696969697" y="1672.4242424242425" type="curve" smooth="yes"/>
      <point x="880.0328282828283" y="1672.4242424242425"/>
      <point x="913.0631313131314" y="1702.4292929292928"/>
      <point x="913.0631313131314" y="1751.7070707070707" type="curve" smooth="yes"/>
      <point x="913.0631313131314" y="1800.9848484848485"/>
      <point x="880.0328282828283" y="1832.6969696969697"/>
      <point x="828.9469696969697" y="1832.6969696969697" type="curve" smooth="yes"/>
      <point x="777.8611111111111" y="1832.6969696969697"/>
      <point x="744.8308080808081" y="1800.9848484848485"/>
      <point x="744.8308080808081" y="1751.7070707070707" type="curve" smooth="yes"/>
      <point x="744.8308080808081" y="1702.4292929292928"/>
      <point x="777.8611111111111" y="1672.4242424242425"/>
    </contour>
    <contour>
      <point x="410.9318181818182" y="1672.4242424242425" type="curve" smooth="yes"/>
      <point x="462.0176767676768" y="1672.4242424242425"/>
      <point x="495.04797979797985" y="1702.4292929292928"/>
      <point x="495.04797979797985" y="1751.7070707070707" type="curve" smooth="yes"/>
      <point x="495.04797979797985" y="1800.9848484848485"/>
      <point x="462.0176767676768" y="1832.6969696969697"/>
      <point x="410.9318181818182" y="1832.6969696969697" type="curve" smooth="yes"/>
      <point x="359.8459595959596" y="1832.6969696969697"/>
      <point x="326.8156565656565" y="1800.9848484848485"/>
      <point x="326.8156565656565" y="1751.7070707070707" type="curve" smooth="yes"/>
      <point x="326.8156565656565" y="1702.4292929292928"/>
      <point x="359.8459595959596" y="1672.4242424242425"/>
    </contour>
  </outline>
</glyph>
<glyph name="Aring" format="2">
  <advance width="1238.3181818181818"/>
  <unicode hex="00C5"/>
  <anchor x="622.9267676767677" y="1366.3636363636365" name="_top"/>
  <anchor x="620.0126262626263" y="0.0" name="bottom"/>
  <anchor x="1211.7247474747476" y="0.0" name="ogonek"/>
  <anchor x="619.939393939394" y="1520.0" name="top"/>
  <outline>
    <contour>
      <point x="26.593434343434335" y="0.0" type="line"/>
      <point x="147.06060606060612" y="0.0" type="line"/>
      <point x="630.7449494949495" y="1419.5681818181818" type="line"/>
      <point x="604.8409090909091" y="1419.5681818181818" type="line"/>
      <point x="1088.9646464646464" y="0.0" type="line"/>
      <point x="1211.7247474747476" y="0.0" type="line"/>
      <point x="700.7525252525253" y="1480.0" type="line"/>
      <point x="537.5656565656566" y="1480.0" type="line"/>
    </contour>
    <contour>
      <point x="271.5176767676768" y="500.6843434343434" type="line"/>
      <point x="966.4343434343434" y="500.6843434343434" type="line"/>
      <point x="937.5" y="606.0833333333334" type="line"/>
      <point x="300.52525252525254" y="606.0833333333334" type="line"/>
    </contour>
    <contour>
      <point x="622.9267676767677" y="1450.9318181818182" type="curve" smooth="yes"/>
      <point x="732.7348484848485" y="1450.9318181818182"/>
      <point x="813.3712121212121" y="1530.9823232323233"/>
      <point x="813.3712121212121" y="1640.2045454545455" type="curve" smooth="yes"/>
      <point x="813.3712121212121" y="1749.4267676767677"/>
      <point x="732.7348484848485" y="1829.4772727272727"/>
      <point x="622.9267676767677" y="1829.4772727272727" type="curve" smooth="yes"/>
      <point x="513.1186868686868" y="1829.4772727272727"/>
      <point x="432.48232323232327" y="1749.4267676767677"/>
      <point x="432.48232323232327" y="1640.2045454545455" type="curve" smooth="yes"/>
      <point x="432.48232323232327" y="1530.9823232323233"/>
      <point x="513.1186868686868" y="1450.9318181818182"/>
    </contour>
    <contour>
      <point x="622.9267676767677" y="1515.5277777777778" type="curve" smooth="yes"/>
      <point x="551.320707070707" y="1515.5277777777778"/>
      <point x="500.54292929292933" y="1562.891414141414"/>
      <point x="500.54292929292933" y="1640.2045454545455" type="curve" smooth="yes"/>
      <point x="500.54292929292933" y="1717.517676767677"/>
      <point x="551.320707070707" y="1764.8813131313132"/>
      <point x="622.9267676767677" y="1764.8813131313132" type="curve" smooth="yes"/>
      <point x="694.5328282828283" y="1764.8813131313132"/>
      <point x="745.3106060606061" y="1717.517676767677"/>
      <point x="745.3106060606061" y="1640.2045454545455" type="curve" smooth="yes"/>
      <point x="745.3106060606061" y="1562.891414141414"/>
      <point x="694.5328282828283" y="1515.5277777777778"/>
    </contour>
  </outline>
</glyph>
<glyph name="Egrave" format="2">
  <advance width="1058.328282828283"/>
  <unicode hex="00C8"/>
  <anchor x="602.1767676767677" y="1520.0" name="_top"/>
  <anchor x="603.030303030303" y="0.0" name="bottom"/>
  <anchor x="923.2651515151515" y="0.0" name="ogonek"/>
  <anchor x="602.1767676767677" y="1520.0" name="top"/>
  <anchor x="38.28030303030303" y="1480.0" name="topleft"/>
  <outline>
    <contour>
      <point x="165.50252525252523" y="0.0" type="line"/>
      <point x="1003.9974747474748" y="0.0" type="line"/>
      <point x="1003.9974747474748" y="105.83838383838389" type="line"/>
      <point x="283.1540404040405" y="105.83838383838389" type="line"/>
      <point x="283.1540404040405" y="1374.1616161616162" type="line"/>
      <point x="993.9974747474748" y="1374.1616161616162" type="line"/>
      <point x="993.9974747474748" y="1480.0" type="line"/>
      <point x="165.50252525252523" y="1480.0" type="line"/>
    </contour>
    <contour>
      <point x="251.33333333333337" y="707.2020202020202" type="line"/>
      <point x="899.7398989898991" y="707.2020202020202" type="line"/>
      <point x="899.7398989898991" y="813.040404040404" type="line"/>
      <point x="251.33333333333337" y="813.040404040404" type="line"/>
    </contour>
    <contour>
      <point x="549.9873737373737" y="1611.6060606060605" type="line"/>
      <point x="654.3661616161617" y="1611.6060606060605" type="line"/>
      <point x="499.79040404040404" y="1890.050505050505" type="line"/>
      <point x="373.540404040404" y="1890.050505050505" type="line"/>
    </contour>
  </outline>
</glyph>
<glyph name="Ecircumflex" format="2">
  <advance width="1058.328282828283"/>
  <unicode hex="00CA"/>
  <anchor x="602.1767676767677" y="1520.0" name="_top"/>
  <anchor x="603.030303030303" y="0.0" name="bottom"/>
  <anchor x="923.2651515151515" y="0.0" name="ogonek"/>
  <anchor x="602.1767676767677" y="1520.0" name="top"/>
  <anchor x="38.28030303030303" y="1480.0" name="topleft"/>
  <outline>
    <contour>
      <point x="165.50252525252523" y="0.0" type="line"/>
      <point x="1003.9974747474748" y="0.0" type="line"/>
      <point x="1003.9974747474748" y="105.83838383838389" type="line"/>
      <point x="283.1540404040405" y="105.83838383838389" type="line"/>
      <point x="283.1540404040405" y="1374.1616161616162" type="line"/>
      <point x="993.9974747474748" y="1374.1616161616162" type="line"/>
      <point x="993.9974747474748" y="1480.0" type="line"/>
      <point x="165.50252525252523" y="1480.0" type="line"/>
    </contour>
    <contour>
      <point x="251.33333333333337" y="707.2020202020202" type="line"/>
      <point x="899.7398989898991" y="707.2020202020202" type="line"/>
      <point x="899.7398989898991" y="813.040404040404" type="line"/>
      <point x="251.33333333333337" y="813.040404040404" type="line"/>
    </contour>
    <contour>
      <point x="325.5984848484848" y="1611.6060606060605" type="line"/>
      <point x="431.489898989899" y="1611.6060606060605" type="line"/>
      <point x="614.9469696969697" y="1849.5656565656566" type="line"/>
      <point x="589.4065656565657" y="1849.5656565656566" type="line"/>
      <point x="772.8636363636364" y="1611.6060606060605" type="line"/>
      <point x="878.7550505050506" y="1611.6060606060605" type="line"/>
      <point x="659.4368686868687" y="1890.050505050505" type="line"/>
      <point x="544.9166666666666" y="1890.050505050505" type="line"/>
    </contour>
  </outline>
</glyph>
<glyph name="Edieresis" format="2">
  <advance width="1058.328282828283"/>
  <unicode hex="00CB"/>
  <anchor x="602.1767676767677" y="1520.0" name="_top"/>
  <anchor x="603.030303030303" y="0.0" name="bottom"/>
  <anchor x="923.2651515151515" y="0.0" name="ogonek"/>
  <anchor x="602.1767676767677" y="1520.0" name="top"/>
  <anchor x="38.28030303030303" y="1480.0" name="topleft"/>
  <outline>
    <contour>
      <point x="165.50252525252523" y="0.0" type="line"/>
      <point x="1003.9974747474748" y="0.0" type="line"/>
      <point x="1003.9974747474748" y="105.83838383838389" type="line"/>
      <point x="283.1540404040405" y="105.83838383838389" type="line"/>
      <point x="283.1540404040405" y="1374.1616161616162" type="line"/>
      <point x="993.9974747474748" y="1374.1616161616162" type="line"/>
      <point x="993.9974747474748" y="1480.0" type="line"/>
      <point x="165.50252525252523" y="1480.0" type="line"/>
    </contour>
    <contour>
      <point x="251.33333333333337" y="707.2020202020202" type="line"/>
      <point x="899.7398989898991" y="707.2020202020202" type="line"/>
      <point x="899.7398989898991" y="813.040404040404" type="line"/>
      <point x="251.33333333333337" y="813.040404040404" type="line"/>
    </contour>
    <contour>
      <point x="811.1843434343434" y="1672.4242424242425" type="curve" smooth="yes"/>
      <point x="862.2702020202021" y="1672.4242424242425"/>
      <point x="895.3005050505051" y="1702.4292929292928"/>
      <point x="895.3005050505051" y="1751.7070707070707" type="curve" smooth="yes"/>
      <point x="895.3005050505051" y="1800.9848484848485"/>
      <point x="862.2702020202021" y="1832.6969696969697"/>
      <point x="811.1843434343434" y="1832.6969696969697" type="curve" smooth="yes"/>
      <point x="760.0984848484849" y="1832.6969696969697"/>
      <point x="727.0681818181818" y="1800.9848484848485"/>
      <point x="727.0681818181818" y="1751.7070707070707" type="curve" smooth="yes"/>
      <point x="727.0681818181818" y="1702.4292929292928"/>
      <point x="760.0984848484849" y="1672.4242424242425"/>
    </contour>
    <contour>
      <point x="393.1691919191919" y="1672.4242424242425" type="curve" smooth="yes"/>
      <point x="444.2550505050505" y="1672.4242424242425"/>
      <point x="477.2853535353536" y="1702.4292929292928"/>
      <point x="477.2853535353536" y="1751.7070707070707" type="curve" smooth="yes"/>
      <point x="477.2853535353536" y="1800.9848484848485"/>
      <point x="444.2550505050505" y="1832.6969696969697"/>
      <point x="393.1691919191919" y="1832.6969696969697" type="curve" smooth="yes"/>
      <point x="342.0833333333333" y="1832.6969696969697"/>
      <point x="309.05303030303025" y="1800.9848484848485"/>
      <point x="309.05303030303025" y="1751.7070707070707" type="curve" smooth="yes"/>
      <point x="309.05303030303025" y="1702.4292929292928"/>
      <point x="342.0833333333333" y="1672.4242424242425"/>
    </contour>
  </outline>
</glyph>
<glyph name="Icircumflex" format="2">
  <advance width="449.5353535353536"/>
  <unicode hex="00CE"/>
  <anchor x="224.7676767676768" y="1520.0" name="_top"/>
  <anchor x="224.69444444444446" y="0.0" name="bottom"/>
  <anchor x="284.03282828282835" y="0.0" name="ogonek"/>
  <anchor x="224.7676767676768" y="1520.0" name="top"/>
  <outline>
    <contour>
      <point x="165.50252525252523" y="0.0" type="line"/>
      <point x="284.03282828282835" y="0.0" type="line"/>
      <point x="284.03282828282835" y="1480.0" type="line"/>
      <point x="165.50252525252523" y="1480.0" type="line"/>
    </contour>
    <contour>
      <point x="-51.81060606060607" y="1611.6060606060605" type="line"/>
      <point x="54.08080808080811" y="1611.6060606060605" type="line"/>
      <point x="237.5378787878788" y="1849.5656565656566" type="line"/>
      <point x="211.99747474747477" y="1849.5656565656566" type="line"/>
      <point x="395.45454545454544" y="1611.6060606060605" type="line"/>
      <point x="501.34595959595964" y="1611.6060606060605" type="line"/>
      <point x="282.0277777777778" y="1890.050505050505" type="line"/>
      <point x="167.50757575757575" y="1890.050505050505" type="line"/>
    </contour>
  </outline>
</glyph>
<glyph name="Idieresis" format="2">
  <advance width="449.5353535353536"/>
  <unicode hex="00CF"/>
  <anchor x="224.7676767676768" y="1520.0" name="_top"/>
  <anchor x="224.69444444444446" y="0.0" name="bottom"/>
  <anchor x="284.03282828282835" y="0.0" name="ogonek"/>
  <anchor x="224.7676767676768" y="1520.0" name="top"/>
  <outline>
    <contour>
      <point x="165.50252525252523" y="0.0" type="line"/>
      <point x="284.03282828282835" y="0.0" type="line"/>
      <point x="284.03282828282835" y="1480.0" type="line"/>
      <point x="165.50252525252523" y="1480.0" type="line"/>
    </contour>
    <contour>
      <point x="433.77525252525254" y="1672.4242424242425" type="curve" smooth="yes"/>
      <point x="484.8611111111112" y="1672.4242424242425"/>
      <point x="517.8914141414142" y="1702.4292929292928"/>
      <point x="517.8914141414142" y="1751.7070707070707" type="curve" smooth="yes"/>
      <point x="517.8914141414142" y="1800.9848484848485"/>
      <point x="484.8611111111112" y="1832.6969696969697"/>
      <point x="433.77525252525254" y="1832.6969696969697" type="curve" smooth="yes"/>
      <point x="382.68939393939394" y="1832.6969696969697"/>
      <point x="349.6590909090909" y="1800.9848484848485"/>
      <point x="349.6590909090909" y="1751.7070707070707" type="curve" smooth="yes"/>
      <point x="349.6590909090909" y="1702.4292929292928"/>
      <point x="382.68939393939394" y="1672.4242424242425"/>
    </contour>
    <contour>
      <point x="15.760101010101016" y="1672.4242424242425" type="curve" smooth="yes"/>
      <point x="66.84595959595963" y="1672.4242424242425"/>
      <point x="99.87626262626266" y="1702.4292929292928"/>
      <point x="99.87626262626266" y="1751.7070707070707" type="curve" smooth="yes"/>
      <point x="99.87626262626266" y="1800.9848484848485"/>
      <point x="66.84595959595963" y="1832.6969696969697"/>
      <point x="15.760101010101016" y="1832.6969696969697" type="curve" smooth="yes"/>
      <point x="-35.32575757575759" y="1832.6969696969697"/>
      <point x="-68.35606060606062" y="1800.9848484848485"/>
      <point x="-68.35606060606062" y="1751.7070707070707" type="curve" smooth="yes"/>
      <point x="-68.35606060606062" y="1702.4292929292928"/>
      <point x="-35.32575757575759" y="1672.4242424242425"/>
    </contour>
  </outline>
</glyph>
<glyph name="Eth" format="2">
  <advance width="1278.719696969697"/>
  <unicode hex="00D0"/>
  <anchor x="165.50252525252523" y="762.0" name="_stroke"/>
  <anchor x="580.1237373737374" y="0.0" name="bottom"/>
  <anchor x="637.0959595959596" y="740.0" name="center"/>
  <anchor x="165.50252525252523" y="762.0" name="stroke"/>
  <anchor x="577.1944444444445" y="1520.0" name="top"/>
  <outline>
    <contour>
      <point x="468.469696969697" y="-11.244949494949497" type="curve" smooth="yes"/>
      <point x="934.9873737373738" y="-11.244949494949497"/>
      <point x="1177.530303030303" y="213.19444444444446"/>
      <point x="1177.530303030303" y="740.0" type="curve" smooth="yes"/>
      <point x="1177.530303030303" y="1255.2449494949494"/>
      <point x="948.7070707070708" y="1494.659090909091"/>
      <point x="499.2676767676768" y="1494.659090909091" type="curve" smooth="yes"/>
      <point x="388.6010101010101" y="1494.659090909091"/>
      <point x="270.020202020202" y="1481.340909090909"/>
      <point x="165.50252525252523" y="1461.7171717171718" type="curve"/>
      <point x="165.50252525252523" y="6.707070707070707" type="line"/>
      <point x="283.979797979798" y="-6.232323232323234"/>
      <point x="372.5505050505051" y="-11.244949494949497"/>
    </contour>
    <contour>
      <point x="486.8005050505051" y="94.44696969696975" type="curve" smooth="yes"/>
      <point x="412.69696969696975" y="94.44696969696975"/>
      <point x="351.2247474747475" y="97.43434343434348"/>
      <point x="284.03282828282835" y="105.90909090909096" type="curve"/>
      <point x="284.03282828282835" y="1371.431818181818" type="line"/>
      <point x="358.2702020202021" y="1382.6262626262626"/>
      <point x="433.58333333333337" y="1389.260101010101"/>
      <point x="501.5050505050505" y="1389.260101010101" type="curve" smooth="yes"/>
      <point x="875.4823232323232" y="1389.260101010101"/>
      <point x="1053.9747474747473" y="1196.7121212121212"/>
      <point x="1053.9747474747473" y="740.1464646464647" type="curve" smooth="yes"/>
      <point x="1053.9747474747473" y="277.1060606060606"/>
      <point x="865.2045454545455" y="94.44696969696975"/>
    </contour>
    <contour>
      <point x="-0.5606060606060601" y="716.9873737373737" type="line"/>
      <point x="598.969696969697" y="716.9873737373737" type="line"/>
      <point x="598.969696969697" y="807.0126262626263" type="line"/>
      <point x="-0.5606060606060601" y="807.0126262626263" type="line"/>
    </contour>
  </outline>
</glyph>
<glyph name="Ntilde" format="2">
  <advance width="1359.25"/>
  <unicode hex="00D1"/>
  <anchor x="679.8383838383838" y="1520.0" name="_top"/>
  <anchor x="679.8383838383838" y="0.0" name="bottom"/>
  <anchor x="679.8383838383838" y="1520.0" name="top"/>
  <outline>
    <contour>
      <point x="165.50252525252523" y="0.0" type="line"/>
      <point x="278.4444444444445" y="0.0" type="line"/>
      <point x="278.4444444444445" y="1348.3787878787878" type="line"/>
      <point x="242.47727272727278" y="1348.3787878787878" type="line"/>
      <point x="1069.0353535353536" y="0.0" type="line"/>
      <point x="1193.7474747474748" y="0.0" type="line"/>
      <point x="1193.7474747474748" y="1480.0" type="line"/>
      <point x="1080.8055555555557" y="1480.0" type="line"/>
      <point x="1080.8055555555557" y="131.6212121212122" type="line"/>
      <point x="1116.7727272727273" y="131.6212121212122" type="line"/>
      <point x="290.21464646464653" y="1480.0" type="line"/>
      <point x="165.50252525252523" y="1480.0" type="line"/>
    </contour>
    <contour>
      <point x="821.8434343434344" y="1680.3156565656566" type="curve" smooth="yes"/>
      <point x="890.1035353535353" y="1680.3156565656566"/>
      <point x="940.7272727272727" y="1703.169191919192"/>
      <point x="976.8156565656566" y="1743.8661616161617" type="curve"/>
      <point x="976.8156565656566" y="1834.8257575757575" type="line"/>
      <point x="932.6540404040404" y="1786.7525252525252"/>
      <point x="887.4570707070708" y="1763.1060606060605"/>
      <point x="822.7222222222223" y="1763.1060606060605" type="curve" smooth="yes"/>
      <point x="730.6691919191919" y="1763.1060606060605"/>
      <point x="649.3257575757576" y="1840.5454545454545"/>
      <point x="537.8333333333334" y="1840.5454545454545" type="curve" smooth="yes"/>
      <point x="469.57323232323233" y="1840.5454545454545"/>
      <point x="418.9494949494949" y="1817.3989898989898"/>
      <point x="382.8611111111111" y="1776.7020202020203" type="curve"/>
      <point x="382.8611111111111" y="1685.7424242424242" type="line"/>
      <point x="427.02272727272725" y="1733.8156565656566"/>
      <point x="472.219696969697" y="1757.4621212121212"/>
      <point x="536.9545454545455" y="1757.4621212121212" type="curve" smooth="yes"/>
      <point x="629.0075757575758" y="1757.4621212121212"/>
      <point x="710.3510101010102" y="1680.3156565656566"/>
    </contour>
  </outline>
</glyph>
<glyph name="Otilde" format="2">
  <advance width="1303.2020202020203"/>
  <unicode hex="00D5"/>
  <anchor x="651.6010101010102" y="1520.0" name="_top"/>
  <anchor x="651.6010101010102" y="0.0" name="bottom"/>
  <anchor x="651.6010101010102" y="740.0" name="center"/>
  <anchor x="806.5075757575758" y="0.0" name="ogonek"/>
  <anchor x="651.6010101010102" y="1520.0" name="top"/>
  <anchor x="41.80555555555556" y="1480.0" name="topleft"/>
  <anchor x="807.8383838383838" y="1480.0" name="topright"/>
  <outline>
    <contour>
      <point x="651.6010101010102" y="-18.292929292929294" type="curve" smooth="yes"/>
      <point x="982.6136363636364" y="-18.292929292929294"/>
      <point x="1202.0126262626263" y="193.33333333333334"/>
      <point x="1202.0126262626263" y="740.0" type="curve" smooth="yes"/>
      <point x="1202.0126262626263" y="1286.6666666666667"/>
      <point x="983.9671717171718" y="1498.2929292929293"/>
      <point x="651.6010101010102" y="1498.2929292929293" type="curve" smooth="yes"/>
      <point x="320.5151515151515" y="1498.2929292929293"/>
      <point x="101.18939393939394" y="1286.8131313131314"/>
      <point x="101.18939393939394" y="740.0" type="curve" smooth="yes"/>
      <point x="101.18939393939394" y="193.1868686868687"/>
      <point x="319.30808080808083" y="-18.292929292929294"/>
    </contour>
    <contour>
      <point x="651.6010101010102" y="87.53282828282833" type="curve" smooth="yes"/>
      <point x="394.3686868686869" y="87.53282828282833"/>
      <point x="224.74494949494954" y="246.56313131313135"/>
      <point x="224.74494949494954" y="744.5858585858585" type="curve" smooth="yes"/>
      <point x="224.74494949494954" y="1233.4368686868686"/>
      <point x="394.5883838383839" y="1392.4671717171716"/>
      <point x="651.6010101010102" y="1392.4671717171716" type="curve" smooth="yes"/>
      <point x="908.6136363636364" y="1392.4671717171716"/>
      <point x="1078.4570707070707" y="1233.2171717171716"/>
      <point x="1078.4570707070707" y="735.4141414141415" type="curve" smooth="yes"/>
      <point x="1078.4570707070707" y="246.78282828282832"/>
      <point x="908.8333333333334" y="87.53282828282833"/>
    </contour>
    <contour>
      <point x="793.6060606060606" y="1680.3156565656566" type="curve" smooth="yes"/>
      <point x="861.8661616161617" y="1680.3156565656566"/>
      <point x="912.4898989898991" y="1703.169191919192"/>
      <point x="948.5782828282829" y="1743.8661616161617" type="curve"/>
      <point x="948.5782828282829" y="1834.8257575757575" type="line"/>
      <point x="904.4166666666667" y="1786.7525252525252"/>
      <point x="859.219696969697" y="1763.1060606060605"/>
      <point x="794.4848484848485" y="1763.1060606060605" type="curve" smooth="yes"/>
      <point x="702.4318181818182" y="1763.1060606060605"/>
      <point x="621.0883838383838" y="1840.5454545454545"/>
      <point x="509.5959595959596" y="1840.5454545454545" type="curve" smooth="yes"/>
      <point x="441.3358585858586" y="1840.5454545454545"/>
      <point x="390.71212121212125" y="1817.3989898989898"/>
      <point x="354.62373737373736" y="1776.7020202020203" type="curve"/>
      <point x="354.62373737373736" y="1685.7424242424242" type="line"/>
      <point x="398.7853535353535" y="1733.8156565656566"/>
      <point x="443.9823232323232" y="1757.4621212121212"/>
      <point x="508.7171717171717" y="1757.4621212121212" type="curve" smooth="yes"/>
      <point x="600.7702020202021" y="1757.4621212121212"/>
      <point x="682.1136363636364" y="1680.3156565656566"/>
    </contour>
  </outline>
</glyph>
<glyph name="Odieresis" format="2">
  <advance width="1303.2020202020203"/>
  <unicode hex="00D6"/>
  <anchor x="651.6010101010102" y="1520.0" name="_top"/>
  <anchor x="651.6010101010102" y="0.0" name="bottom"/>
  <anchor x="651.6010101010102" y="740.0" name="center"/>
  <anchor x="806.5075757575758" y="0.0" name="ogonek"/>
  <anchor x="651.6010101010102" y="1520.0" name="top"/>
  <anchor x="41.80555555555556" y="1480.0" name="topleft"/>
  <anchor x="807.8383838383838" y="1480.0" name="topright"/>
  <outline>
    <contour>
      <point x="651.6010101010102" y="-18.292929292929294" type="curve" smooth="yes"/>
      <point x="982.6136363636364" y="-18.292929292929294"/>
      <point x="1202.0126262626263" y="193.33333333333334"/>
      <point x="1202.0126262626263" y="740.0" type="curve" smooth="yes"/>
      <point x="1202.0126262626263" y="1286.6666666666667"/>
      <point x="983.9671717171718" y="1498.2929292929293"/>
      <point x="651.6010101010102" y="1498.2929292929293" type="curve" smooth="yes"/>
      <point x="320.5151515151515" y="1498.2929292929293"/>
      <point x="101.18939393939394" y="1286.8131313131314"/>
      <point x="101.18939393939394" y="740.0" type="curve" smooth="yes"/>
      <point x="101.18939393939394" y="193.1868686868687"/>
      <point x="319.30808080808083" y="-18.292929292929294"/>
    </contour>
    <contour>
      <point x="651.6010101010102" y="87.53282828282833" type="curve" smooth="yes"/>
      <point x="394.3686868686869" y="87.53282828282833"/>
      <point x="224.74494949494954" y="246.56313131313135"/>
      <point x="224.74494949494954" y="744.5858585858585" type="curve" smooth="yes"/>
      <point x="224.74494949494954" y="1233.4368686868686"/>
      <point x="394.5883838383839" y="1392.4671717171716"/>
      <point x="651.6010101010102" y="1392.4671717171716" type="curve" smooth="yes"/>
      <point x="908.6136363636364" y="1392.4671717171716"/>
      <point x="1078.4570707070707" y="1233.2171717171716"/>
      <point x="1078.4570707070707" y="735.4141414141415" type="curve" smooth="yes"/>
      <point x="1078.4570707070707" y="246.78282828282832"/>
      <point x="908.8333333333334" y="87.53282828282833"/>
    </contour>
    <contour>
      <point x="860.6085858585859" y="1672.4242424242425" type="curve" smooth="yes"/>
      <point x="911.6944444444445" y="1672.4242424242425"/>
      <point x="944.7247474747476" y="1702.4292929292928"/>
      <point x="944.7247474747476" y="1751.7070707070707" type="curve" smooth="yes"/>
      <point x="944.7247474747476" y="1800.9848484848485"/>
      <point x="911.6944444444445" y="1832.6969696969697"/>
      <point x="860.6085858585859" y="1832.6969696969697" type="curve" smooth="yes"/>
      <point x="809.5227272727273" y="1832.6969696969697"/>
      <point x="776.4924242424242" y="1800.9848484848485"/>
      <point x="776.4924242424242" y="1751.7070707070707" type="curve" smooth="yes"/>
      <point x="776.4924242424242" y="1702.4292929292928"/>
      <point x="809.5227272727273" y="1672.4242424242425"/>
    </contour>
    <contour>
      <point x="442.59343434343435" y="1672.4242424242425" type="curve" smooth="yes"/>
      <point x="493.67929292929296" y="1672.4242424242425"/>
      <point x="526.709595959596" y="1702.4292929292928"/>
      <point x="526.709595959596" y="1751.7070707070707" type="curve" smooth="yes"/>
      <point x="526.709595959596" y="1800.9848484848485"/>
      <point x="493.67929292929296" y="1832.6969696969697"/>
      <point x="442.59343434343435" y="1832.6969696969697" type="curve" smooth="yes"/>
      <point x="391.50757575757575" y="1832.6969696969697"/>
      <point x="358.4772727272727" y="1800.9848484848485"/>
      <point x="358.4772727272727" y="1751.7070707070707" type="curve" smooth="yes"/>
      <point x="358.4772727272727" y="1702.4292929292928"/>
      <point x="391.50757575757575" y="1672.4242424242425"/>
    </contour>
  </outline>
</glyph>
<glyph name="multiply" format="2">
  <advance width="973.1313131313132"/>
  <unicode hex="00D7"/>
  <outline>
    <contour>
      <point x="188.81818181818184" y="392.6212121212121" type="line"/>
      <point x="486.5656565656566" y="690.3686868686868" type="line"/>
      <point x="784.3131313131313" y="392.6212121212121" type="line"/>
      <point x="853.9444444444445" y="462.2525252525253" type="line"/>
      <point x="556.1969696969697" y="760.0" type="line"/>
      <point x="853.9444444444445" y="1057.7474747474748" type="line"/>
      <point x="784.3131313131313" y="1127.378787878788" type="line"/>
      <point x="486.5656565656566" y="829.6313131313132" type="line"/>
      <point x="188.81818181818184" y="1127.378787878788" type="line"/>
      <point x="119.18686868686868" y="1057.7474747474748" type="line"/>
      <point x="416.9343434343434" y="760.0" type="line"/>
      <point x="119.18686868686868" y="462.2525252525253" type="line"/>
    </contour>
  </outline>
</glyph>
